<svg xmlns="http://www.w3.org/2000/svg" width="25" height="19" viewBox="0 0 25 19">
    <path fill="#FFF" fill-rule="evenodd" d="M24.001 7.566a.817.817 0 0 0-.584-.24h-2.444l-2.62-5.403a.663.663 0 0 0-.64-.401h-1.947v-.214a.355.355 0 0 0-.111-.268.385.385 0 0 0-.278-.107H9.673a.385.385 0 0 0-.278.107.355.355 0 0 0-.111.268v.214H7.253a.662.662 0 0 0-.64.401l-2.62 5.403H1.55a.816.816 0 0 0-.584.24.756.756 0 0 0-.25.562c0 .107.018.205.055.294l3.812 9.094a.765.765 0 0 0 .306.36.843.843 0 0 0 .473.148h14.245c.167 0 .324-.049.473-.147a.766.766 0 0 0 .306-.361l3.811-9.094a.754.754 0 0 0 .056-.294.756.756 0 0 0-.25-.562zm-7.233 6.018h2.838v-1.818h-2.838v1.818zm3.784-1.818h.451l-.451 1.075v-1.075zM5.305 13.584h2.42v-1.818h-2.42v1.818zm-.946-.876l-.395-.942h.395v.942zm.946-1.852h2.42V8.931h-2.42v1.925zm10.517-1.925v1.925h-2.866V8.931h2.866zm-7.15 1.925h3.338V8.931H8.672v1.925zm0 2.728h3.338v-1.818H8.672v1.818zm0 2.835h3.338v-1.926H8.672v1.926zm4.284 0h2.866v-1.926h-2.866v1.926zm0-2.835h2.866v-1.818h-2.866v1.818zm3.812-2.728h2.838V8.931h-2.838v1.925zm-9.07-7.97h1.586v.24c0 .108.037.197.111.268a.385.385 0 0 0 .278.107h5.704a.385.385 0 0 0 .278-.107.355.355 0 0 0 .111-.267v-.241h1.503l2.12 4.44H5.578l2.119-4.44zM4.359 8.93v1.925h-.777l-.809-1.925H4.36zm.75 5.562h2.617v1.926H5.917l-.808-1.926zm13.94 1.926h-2.281v-1.926h2.838v.6l-.557 1.326zm2.336-5.563h-.833V8.931h1.641l-.808 1.925z" opacity=".641"/>
</svg>
