<svg xmlns="http://www.w3.org/2000/svg" xmlns:xlink="http://www.w3.org/1999/xlink" width="33" height="24" viewBox="0 0 33 24">
    <defs>
        <path id="a" d="M16.503.037H.005V24h32.997V.037H16.503z"/>
    </defs>
    <g fill="none" fill-rule="evenodd">
        <mask id="b" fill="#fff">
            <use xlink:href="#a"/>
        </mask>
        <path fill="#FDBA12" d="M32.65 9.338A1.145 1.145 0 0 0 31.832 9h-3.427l-3.672-7.575c-.182-.375-.481-.562-.897-.562h-2.73v-.3a.498.498 0 0 0-.157-.375.54.54 0 0 0-.39-.15h-7.997a.54.54 0 0 0-.39.15.498.498 0 0 0-.156.375v.3H9.167c-.416 0-.715.187-.897.562L4.597 9H1.17c-.312 0-.585.113-.819.338a1.06 1.06 0 0 0-.351.787c0 .15.026.288.078.413l5.344 12.75c.078.2.221.369.43.506.208.137.428.206.663.206h19.972c.234 0 .456-.069.663-.206.208-.137.352-.306.43-.506l5.344-12.75c.052-.125.078-.263.078-.413 0-.3-.117-.562-.351-.787zm-10.142 8.437h3.98v-2.55h-3.98v2.55zm5.306-2.55h.632l-.632 1.508v-1.508zm-21.377 2.55H9.83v-2.55H6.437v2.55zM5.11 16.547l-.554-1.322h.554v1.322zm1.327-2.597H9.83v-2.7H6.437v2.7zm14.745-2.7v2.7h-4.018v-2.7h4.018zm-10.025 2.7h4.681v-2.7h-4.681v2.7zm0 3.825h4.681v-2.55h-4.681v2.55zm0 3.975h4.681v-2.7h-4.681v2.7zm6.007 0h4.018v-2.7h-4.018v2.7zm0-3.975h4.018v-2.55h-4.018v2.55zm5.344-3.825h3.98v-2.7h-3.98v2.7zM9.791 2.775h2.224v.338c0 .15.052.275.156.375.104.1.234.15.39.15h7.997a.54.54 0 0 0 .39-.15.498.498 0 0 0 .156-.375v-.338h2.106L26.182 9H6.82L9.79 2.775zm-4.68 8.475v2.7H4.02l-1.134-2.7H5.11zm1.05 7.8h3.67v2.7H7.294l-1.134-2.7zm19.546 2.7h-3.199v-2.7h3.98v.842l-.78 1.858zm3.275-7.8h-1.168v-2.7h2.301l-1.133 2.7z" mask="url(#b)"/>
    </g>
</svg>
