<svg xmlns="http://www.w3.org/2000/svg" xmlns:xlink="http://www.w3.org/1999/xlink" width="61" height="38" viewBox="0 0 61 38">
    <defs>
        <path id="a" d="M.092.104h53.801v32.732H.092z"/>
        <path id="c" d="M0 .013V3.8h19.828V.013z"/>
    </defs>
    <g fill="none" fill-rule="evenodd">
        <path fill="#181818" d="M19.5 34.891a2.391 2.391 0 1 1 0-4.782 2.391 2.391 0 0 1 0 4.782m0-7.891a5.499 5.499 0 0 0-5.5 5.5c0 3.039 2.462 5.5 5.5 5.5 3.039 0 5.5-2.461 5.5-5.5S22.539 27 19.5 27M47.5 34.891a2.39 2.39 0 1 1 0-4.781 2.39 2.39 0 0 1 0 4.781m0-7.891a5.499 5.499 0 0 0-5.5 5.5c0 3.039 2.461 5.5 5.5 5.5s5.5-2.461 5.5-5.5-2.461-5.5-5.5-5.5"/>
        <path fill="#E54B21" d="M25 10.461c0 .847-.626 1.539-1.393 1.539H4.392C3.627 12 3 11.308 3 10.461v-.923C3 8.692 3.627 8 4.392 8h19.215C24.374 8 25 8.692 25 9.538v.923z"/>
        <g transform="translate(7)">
            <mask id="b" fill="#fff">
                <use xlink:href="#a"/>
            </mask>
            <path fill="#FDBA12" d="M44.973 18.238h-8.63c-.356 0-.404-.353-.404-.353v-7.321s-.02-.282.438-.282h2.462c1.483 0 3.255 1.098 3.938 2.44l2.28 4.703c.097.19.2.357.31.509.08.11-.056.304-.394.304m5.768.275c-1.952-.516-3.07-.842-3.836-2.35l-2.563-5.285c-.767-1.509-2.758-2.742-4.425-2.742H36.41s-.472.01-.472-.473V3.229c0-1.718-.955-3.125-2.986-3.125H4.38C1.472.104.092 1.511.092 3.23v2.778s0 .827.785.827h15.99c1.495 0 2.712 1.239 2.712 2.762v.83c0 1.523-1.217 2.762-2.713 2.762H.877s-.785-.066-.785.797v.956c0 .759 1.022.759 1.022.759h10.764c1.495 0 2.712 1.24 2.712 2.763v.828c0 1.524-1.217 2.763-2.712 2.763H1.284S.092 22.031.092 23v6.713c0 1.718 1.38 3.124 3.068 3.124h1.694c.384 0 .441-.217.441-.327 0-3.896 3.113-7.065 6.938-7.065 3.826 0 6.938 3.169 6.938 7.065 0 .11-.03.327.264.327H33.11c.271 0 .26-.232.26-.327 0-3.896 3.112-7.065 6.938-7.065 3.826 0 6.937 3.169 6.937 7.065 0 .11-.002.327.168.327h3.447c1.668 0 3.032-1.389 3.032-3.087v-5.867c0-4.94-1.531-4.94-3.152-5.369" mask="url(#b)"/>
        </g>
        <g transform="translate(0 17)">
            <mask id="d" fill="#fff">
                <use xlink:href="#c"/>
            </mask>
            <path fill="#E54B21" d="M19.828 2.344c0 .8-.607 1.457-1.349 1.457H1.35C.606 3.8 0 3.145 0 2.344V1.47C0 .669.607.013 1.348.013H18.48c.742 0 1.349.656 1.349 1.457v.874z" mask="url(#d)"/>
        </g>
    </g>
</svg>
