<svg xmlns="http://www.w3.org/2000/svg" width="13" height="13" viewBox="0 0 13 13">
    <path fill="#FCBA12" fill-rule="evenodd" d="M12.994 10.26a.63.63 0 0 1-.193.55l-1.83 1.818c-.083.092-.19.17-.324.234a1.337 1.337 0 0 1-.392.124 1.857 1.857 0 0 1-.262.014c-.174 0-.456-.03-.846-.09-.39-.06-.867-.206-1.431-.44-.564-.234-1.204-.586-1.92-1.054-.715-.468-1.477-1.11-2.284-1.928a15.095 15.095 0 0 1-1.597-1.817A12.948 12.948 0 0 1 .897 6.066 8.63 8.63 0 0 1 .319 4.73a7.088 7.088 0 0 1-.262-1.032 3.407 3.407 0 0 1-.055-.682c.01-.165.014-.257.014-.276.018-.128.06-.259.124-.392a1.03 1.03 0 0 1 .234-.324L2.204.193A.606.606 0 0 1 2.644 0c.12 0 .225.034.317.103.092.07.17.154.234.255l1.473 2.796a.67.67 0 0 1 .068.482.858.858 0 0 1-.233.44l-.675.675a.23.23 0 0 0-.048.09.341.341 0 0 0-.02.103c.036.193.119.413.247.66.11.221.28.49.51.807.229.316.554.681.976 1.094.413.423.78.75 1.101.985.321.234.59.406.805.516.216.11.381.177.496.2l.172.034a.33.33 0 0 0 .09-.02.228.228 0 0 0 .089-.049l.784-.798a.843.843 0 0 1 .578-.22.72.72 0 0 1 .372.082h.014l2.656 1.57c.192.12.307.27.344.455z"/>
</svg>
