<?xml version="1.0" encoding="utf-8"?>
<!-- Generator: Adobe Illustrator 21.0.0, SVG Export Plug-In . SVG Version: 6.00 Build 0)  -->
<svg version="1.1" id="Слой_1" xmlns="http://www.w3.org/2000/svg" xmlns:xlink="http://www.w3.org/1999/xlink" x="0px" y="0px"
	 viewBox="0 0 22 22" style="enable-background:new 0 0 22 22;" xml:space="preserve">
<style type="text/css">
	.st0{fill:#E54B21;}
</style>
<path class="st0" d="M11,1.1c5.5,0,9.9,4.5,9.9,9.9s-4.5,9.9-9.9,9.9S1.1,16.5,1.1,11S5.5,1.1,11,1.1 M11,0C4.9,0,0,4.9,0,11
	s4.9,11,11,11s11-4.9,11-11S17.1,0,11,0L11,0z"/>
<path class="st0" d="M11.8,11l4.6-4.6c0.2-0.2,0.2-0.5,0-0.8c-0.2-0.2-0.5-0.2-0.8,0L11,10.2L6.4,5.6c-0.2-0.2-0.5-0.2-0.8,0
	c-0.2,0.2-0.2,0.5,0,0.8l4.6,4.6l-4.6,4.6c-0.2,0.2-0.2,0.5,0,0.8c0.1,0.1,0.2,0.2,0.4,0.2s0.3-0.1,0.4-0.2l4.6-4.6l4.6,4.6
	c0.1,0.1,0.2,0.2,0.4,0.2s0.3-0.1,0.4-0.2c0.2-0.2,0.2-0.5,0-0.8L11.8,11z"/>
</svg>
