<svg xmlns="http://www.w3.org/2000/svg" width="20" height="23" viewBox="0 0 20 23">
    <path fill="#E54B21" fill-rule="evenodd" d="M5.624 22.944c-1.533-3.179-.716-5 .462-6.716 1.291-1.88 1.624-3.74 1.624-3.74s1.014 1.314.609 3.37c1.792-1.989 2.13-5.156 1.86-6.368 4.052 2.82 5.784 8.928 3.45 13.454 12.413-6.996 3.087-17.464 1.464-18.643.541 1.18.644 3.175-.45 4.144C12.793 1.455 8.217.022 8.217.022c.541 3.605-1.962 7.547-4.375 10.493-.085-1.438-.175-2.43-.934-3.805C2.738 9.32.734 11.45.192 14.066c-.735 3.543.55 6.137 5.432 8.878z"/>
</svg>
