<svg xmlns="http://www.w3.org/2000/svg" xmlns:xlink="http://www.w3.org/1999/xlink" width="65" height="70" viewBox="0 0 65 70">
    <defs>
        <path id="a" d="M.013.104h22.15V17.7H.013V.104z"/>
    </defs>
    <g fill="none" fill-rule="evenodd">
        <path fill="#EBEBEB" d="M0 10l53-4v53L0 63z"/>
        <path fill="#B1CDE3" d="M46.733 8.242l.003.031-.09-.041z"/>
        <path fill="#FED4C4" d="M35.908 19.146l6.02-3.226 5.72-10.431 4.617-.435-.358-1.903s-.876-.22-.693.591l-1.365-.581-1.501.282-.911-.713s.465-.528.198-1.141c0 0-.256-.849-1.084.285l-.414.892.799.868-6.872 9.61-5.983 3.175-.844.392 2.67 2.335zM42.77 38.825l8.45 1.218 9.57 9.144-1.914.92-8.281-5.695-15.906 2.414zM33.068 46.344l-4.02 10.536-13.33 6.4-.032-1.738 7.79-6.378.536-9.888z"/>
        <path fill="#E13532" d="M40.381 36.982l1.94 1.123 2.416.007-2.762 9.557-8.087.244-1.537 4.152-10.879-1.5 1.635-4.62 1.375-5.664 14.096-1.075z"/>
        <path fill="#171C22" d="M60.79 49.187l2.265-1.23 1.28-1.316.44 1.33-3.465 3.302 1.12 1.052-.8 1.087-2.494-2.261zM15.18 61.445l-.085 2.24-.8 1.084-.056 2.787-1.221 2.411-.596-1.958.153-3.254-1.147.343L11.3 63.3z"/>
        <path fill="#808081" d="M39.359 37.181l-4.88-14.412-10.993-1.528-3.1 1.327 5.394 8.521-.89 8.038 13.228-.472z"/>
        <path fill="#808081" d="M23.409 22.867l-.785-2.076 3.227-1.027 3.574 1.437.164 7.108z"/>
        <path fill="#808081" d="M25.7 19.802l4.867-2.421 5.065-2.195 1.475 4.71-3.234 3.022-4.62.82z"/>
        <path fill="#FED4C4" d="M28.658 23.499l.932 4.81 7.95.07 7.379-2.007-.732-1.646-7.81.284z"/>
        <path fill="#F9B195" d="M27.961 17.908l-2.856-1.782-1.895.14 1.43 3.8 1.856-.296z"/>
        <path fill="#FED4C4" d="M31.9 8.772c1.66 4.784-1.319 10.19-6.65 12.075-5.333 1.887-11-.462-12.659-5.246-1.658-4.783 1.32-10.19 6.65-12.074 5.334-1.887 11.001.461 12.66 5.245"/>
        <path fill="#FEFEFE" d="M24.976 17.116s2.654-.653 4.351-2.086c0 0 .176 2.381-1.48 2.962 0 0-2.213.08-2.871-.876"/>
        <g transform="scale(-1 1) rotate(14 -9.753 -127.126)">
            <mask id="b" fill="#fff">
                <use xlink:href="#a"/>
            </mask>
            <path fill="#5C1416" d="M19.588 17.7c.412-.447.654-1.398.74-1.981.298-2.02-2.716-2.783-3.755-1.25 0 0-1.033-.764-.675-6.806 0 0-5.741-4.277-13.998-.226 0 0-7.836-7.445 8.434-7.333 1.81.014 3.852.5 5.52 1.13 6.34 2.391 8.478 11.306 3.734 16.467" mask="url(#b)"/>
        </g>
        <path fill="#191A1A" d="M21.58 13.007a.769.769 0 0 1 .06 1.06.712.712 0 0 1-1.027.083.769.769 0 0 1-.059-1.06.714.714 0 0 1 1.027-.083M29.526 9.212a.77.77 0 0 1 .058 1.062.715.715 0 0 1-1.026.081.768.768 0 0 1-.058-1.061.711.711 0 0 1 1.026-.082"/>
        <path fill="#FED4C4" d="M43.965 26.178s-.117.541.58.562c0 0 1.71.056 2.423.14 0 0 1.455.294 2.51.551 0 0 .475-.034.369-.36l-2.013-.55s.385-.296 1.17-.284c0 0 1.193.022 1.514.159 0 0 .481-.062.179-.285 0 0-.796-.375-1.28-.433 0 0 1.326.084 1.582.115 0 0 .474-.033.129-.328 0 0-1.216-.325-2.581-.359 0 0 .656-.47 2.198-.302 0 0 .416-.17.012-.328 0 0-1.11-.27-2.353-.064 0 0-.782.109-1.239.058 0 0 .692-.91.862-1.288 0 0 .116-.272-.167-.312 0 0-.502.298-.733.422 0 0-1.115 1.108-1.87 1.222 0 0-.708.04-.89.203 0 0-.132 1.017-.402 1.46"/>
    </g>
</svg>
