<svg xmlns="http://www.w3.org/2000/svg" xmlns:xlink="http://www.w3.org/1999/xlink" width="10" height="16" viewBox="0 0 10 16">
    <defs>
        <path id="a" d="M5 .01H.003V16h9.994V.01H5z"/>
    </defs>
    <g fill="none" fill-rule="evenodd">
        <mask id="b" fill="#fff">
            <use xlink:href="#a"/>
        </mask>
        <path fill="#F5A623" d="M5.01.01h-.023C2.237.01 0 2.257 0 5.018c0 1.809.82 4.197 2.439 7.097a39.449 39.449 0 0 0 2.429 3.813.179.179 0 0 0 .144.073h.005a.18.18 0 0 0 .144-.08c.012-.019 1.22-1.85 2.412-4.091 1.609-3.024 2.424-5.316 2.424-6.812C9.997 2.257 7.76.01 5.01.01zm2.302 5.13a2.32 2.32 0 0 1-2.313 2.322A2.321 2.321 0 0 1 2.685 5.14 2.32 2.32 0 0 1 5 2.816 2.32 2.32 0 0 1 7.312 5.14z" mask="url(#b)"/>
    </g>
</svg>
