<svg xmlns="http://www.w3.org/2000/svg" xmlns:xlink="http://www.w3.org/1999/xlink" width="13" height="16" viewBox="0 0 13 16">
    <defs>
        <path id="a" d="M6.884 16.828H0V0h13.768v16.828H6.884z"/>
    </defs>
    <g fill="none" fill-rule="evenodd" transform="translate(0 -1)">
        <mask id="b" fill="#fff">
            <use xlink:href="#a"/>
        </mask>
        <path fill="#E54B21" d="M6.222 9.03c1.718 0 3.111-1.675 3.111-3.742s-.457-3.743-3.11-3.743c-2.655 0-3.112 1.676-3.112 3.743s1.393 3.743 3.111 3.743zM12.438 15.516c-.061-3.578-.564-4.598-4.412-5.243 0 0-.541.641-1.804.641-1.262 0-1.804-.641-1.804-.641C.613 10.91.08 11.916.01 15.4c-.005.284-.008.299-.009.266v.376s.916 1.716 6.222 1.716 6.222-1.716 6.222-1.716v-.278c0 .02-.003-.02-.006-.248z" mask="url(#b)"/>
    </g>
</svg>
