<svg xmlns="http://www.w3.org/2000/svg" xmlns:xlink="http://www.w3.org/1999/xlink" width="101" height="101" viewBox="0 0 101 101">
    <defs>
        <path id="a" d="M0 0h99.868v99.861H0z"/>
    </defs>
    <g fill="none" fill-rule="evenodd" transform="translate(.39 .485)">
        <mask id="b" fill="#fff">
            <use xlink:href="#a"/>
        </mask>
        <path fill="#E54B21" d="M99.868 49.93c0 27.577-22.357 49.931-49.934 49.931C22.356 99.861 0 77.507 0 49.931S22.356 0 49.934 0C77.51 0 99.868 22.355 99.868 49.93" mask="url(#b)"/>
        <path fill="#FFF" d="M16.107 45.944h8.765v9.784H22.16V48.32h-3.341v7.408h-2.712zM29.963 45.944h2.684v5.507l3.788-5.507h2.53v9.784h-2.684v-5.507l-3.788 5.507h-2.53zM51.325 55.728h-7.27v-9.784h2.713v7.408h3.34v-7.408h2.713v7.408h1.104l-.308 4.333h-2.292zM65.474 55.728h-7.269v-9.784h2.712v7.408h3.34v-7.408h2.713v7.408h1.104l-.308 4.333h-2.292zM78.113 51.87l-1.09-2.78-1.104 2.78h2.194zm-2.376-5.996h2.614l4.166 9.855h-2.908l-.713-1.748h-3.774l-.7 1.748h-2.85l4.165-9.855zM36.456 71.194v-5.032h-2.125v.097c0 2.167-.321 3.593-.769 4.935h2.894zm-6.598 0h.867c.656-1.775.992-3.481.992-7.157v-.251h7.45v7.408h1.105l-.307 4.333h-2.293V73.57h-5.2l-.182 1.957h-2.432v-4.333zM44.706 63.786h2.712v3.662h3.48v-3.662h2.713v9.784h-2.712v-3.718h-3.481v3.718h-2.712zM64.544 68.524v-2.432H62.77c-.908 0-1.468.433-1.468 1.23 0 .713.532 1.202 1.454 1.202h1.79zm-3.956 1.636c-1.216-.517-2.012-1.51-2.012-3.034 0-2.292 1.83-3.34 4.054-3.34h4.626v9.784h-2.712v-2.963h-1.188l-1.97 2.963h-3.132l2.334-3.41zM72.129 14.218a2.22 2.22 0 0 1-2.753-1.496 2.22 2.22 0 0 1 1.505-2.744 2.197 2.197 0 0 1 2.733 1.5 2.192 2.192 0 0 1-1.485 2.74m-3.104 9.813a2.055 2.055 0 0 1-2.551-1.398 2.052 2.052 0 0 1 1.385-2.551 2.053 2.053 0 0 1 2.544 1.399 2.053 2.053 0 0 1-1.378 2.55m-5.897-5.199c-1.67.5-3.413-.46-3.913-2.127a3.144 3.144 0 0 1 2.127-3.913c1.68-.5 3.423.458 3.923 2.128a3.156 3.156 0 0 1-2.137 3.912m12.468-7.94c.168-.046.347-.042.525-.011l.131-3.38a49.767 49.767 0 0 0-6.758-3.522L49.81 16.106a31.141 31.141 0 0 0 2.591 3.678c5.217 6.257 12.35 9.93 19.826 10.973 0 0 2.291.425 3.128-.278l.511-13.062c-.468-.567-.884-1.326-1.154-2.225-.6-2.057-.205-3.972.884-4.3" mask="url(#b)"/>
        <path fill="#FFF" d="M56.344 30.56c-7.88-5.15-11.082-11.679-11.29-12.104l3.422-1.633-1.714.809 1.712-.818c.286.608 7.326 14.716 27.1 16.08l-.264 3.78c-8.144-.566-14.351-3.097-18.966-6.114" mask="url(#b)"/>
    </g>
</svg>
