<svg xmlns="http://www.w3.org/2000/svg" xmlns:xlink="http://www.w3.org/1999/xlink" width="190" height="150" viewBox="0 0 190 150">
    <defs>
        <path id="a" d="M.423 4.95h5.67V.235H.424V4.95z"/>
        <path id="b" d="M22.484 19.83V.125H.499V19.83h21.985z"/>
        <path id="c" d="M.345.098h4.688v4.426H.345V.098z"/>
    </defs>
    <g fill="none" fill-rule="evenodd">
        <path fill="#6D8C9A" d="M101.007 43.767H90.41l-9.881-7.264-3.58 3.133 10.74 8.404 16.039 1.709z"/>
        <path fill="#6D4337" d="M67.856 96.712l-3.007 2.778v1.816l3.543-1.71zM71.185 107.43l-.573 18.515.358.071L73.476 108z"/>
        <path fill="#6D4337" d="M78.703 112.984l-3.293 2.991-9.738-6.836 5.012-3.275 9.022 4.841z"/>
        <path fill="#6D4337" d="M75.41 115.975l-3.08 20.937-.572-.57 1.862-21.649zM65.672 109.139l.644 20.936.716.427.43-20.366zM80.35 112.13l-3.437 19.654-.574-.284 2.364-18.516zM66.675 108.569l-.932-7.192-.035-.606.645-.57.536 2.6.824 5.34z"/>
        <path fill="#2B343D" d="M118.87 77.165l3.652 28.093-12.459 21.042-.106.784-4.439-1.851 2.613.64 10.418-22.217-9.13-21.577 3.008-7.691z"/>
        <path fill="#394453" d="M107.915 72.252l-3.222 8.972 10.955 46.145 2.577 1.922-2.148-25.422-1.073-16.236 2.004-7.833z"/>
        <path fill="#F9B195" d="M78.205 39.287s.304-4.329.442-4.974c0 0-.36-.736-.898-.283 0 0-.346 1.711-.291 2.057 0 0-1.997-2.218-2.077-2.488 0 0 .894-3.178 1.817-4.477 0 0-.105-.493-.575-.264 0 0-2.172 2.53-2.195 4.212l-.227-.269s.41-2.33 1.09-3.28c0 0-.11-.69-.478-.412 0 0-1.396 2.79-1.363 3.309l-.202-.195s.1-1.51.558-2.431c0 0-.085-.616-.452-.289 0 0-1.033 2.265-.716 3.446 0 0-1.009-.924-1.262-1.215 0 0-.567.231-.389.55 0 0 5.685 5.965 6.29 6.5 0 0-.007.034-.024.098l.953.72c.003-.129.003-.235-.001-.315"/>
        <path fill="#DE9D85" d="M51.44 57.244c.835-.872 19.901-3.014 19.901-3.014 2.443-.802 12.915-13.6 12.915-13.6l1.07-1.04s.458-.898.458-1.437c0 0 .343-1.139.744-.3 0 0-.057 1.317-.057 1.497 0 0 0 .967.108 1.319 1.038-.225 2.072-.656 2.733-.965.182-.474.249-1.132.249-1.132-.228-.84.401-.78.401-.78.4.121.286.36.286.36.032.236-.026.661-.083.988 1.52-2.143 1.618-.528 1.618-.528-.249.551-.704 1.057-1.275 1.522.32.012 1.087.074 1.4.355 0 0 .63.778-.172.598 0 0-1.134-.393-2.107-.318-1.622 1.051-3.681 1.867-4.822 2.494-1.825 1.004-11.968 14.048-11.968 14.048-4.522-.762-21.65 5.67-21.65 5.67l.25-5.737z"/>
        <path fill="#6D8C9A" d="M116.865 43.126s3.4 3.916 6.3 6.693l2.793 5.555 6.659-3.418 3.079 2.35-10.382 9.614s-5.8-5.555-6.23-7.05l-2.219-13.744z"/>
        <path fill="#8D201F" d="M58.271 38.252s-.264-1.84-2.641-2.101c-2.378-.263-10.697.722-12.15 3.217 0 0-.858-1.445-1.98-.13 0 0-2.863 4.574 1.672 5.975 0 0 1.145.22 1.849-.481 1.609-1.601 6.802 1.103 7.538 2.813l5.712-9.293z"/>
        <path fill="#F9B195" d="M52.662 49.689l-.992-4.87c-1.322.69-2.94-1.51-2.115-3.153.825-1.641 2.115-.296 2.115-.296-.921-4.04 6.469-3.118 6.469-3.118.53 2.816 4.012 2.665 6.162 2.277 0 0 .903 1.4-.527 1.926 0 0-.022.985.242 1.051.264.066-.66.92-1.783.854 0 0 1.189 0 1.584.459 0 0-.66.263-.726.854 0 0 .66.657.199 1.248-.519.661-.964.71-1.714.738-2.9.106-7.396-.925-7.862 2.545l-1.052-.515z"/>
        <path fill="#171C22" d="M58.082 39.913c.099.087.196.202.281.337.242.385.288.792.103.906-.187.115-.532-.104-.775-.49-.09-.141-.157-.387-.19-.52l.58-.233z"/>
        <path fill="#171C22" d="M59.083 39.478c-.021.06-.373.715-1.524.948l-.118-.56c.484-.102.767-.276.928-.414.08-.07.132-.13.161-.17l.028-.043.004-.007.111.057-.113-.051.002-.006.111.057-.113-.051.523.24z"/>
        <path fill="#EA2527" d="M64.17 43.484s-.132-.394-.33-.263c0 0-.298.23-.298.788 0 0 .583.154.628-.525M63.817 44.82s-.396-.395-.66-.296c0 0-.033.525.231.591.265.065.627.011.43-.296"/>
        <path fill="#141614" d="M81.203 133.661l-1.316 1.955.435 1.76.74-.803.25 1.65-.82 2.378 1.71 5.027.774-.034 1.073-5.472-.467-2.53-1.014.013zM99.214 137.411l.397 2.752 2.508 1.172-.337-1.242 2.326 1.966 1 .687 4.717.119.585-.975-3.094-1.392-1.845-.533-2.664-2.013z"/>
        <path fill="#EDA88E" d="M53.964 110.837l.019 17.35-.228 16.419-4.146-22.841.19-12.379z"/>
        <path fill="#F9B195" d="M54.07 141.394l3.006 3.633-3.32-.422z"/>
        <path fill="#171C22" d="M56.647 144.172l3.866 2.991-7.518-1.282v-1.495z"/>
        <path fill="#F9B195" d="M52.297 106.072l-.59 18.231-11.074 20.51 8.574-22.58-3.575-14.71z"/>
        <path fill="#171C22" d="M42.9 141.181l-1.803 2.889.607-2.72-2.221 3.57v3.738l2.563-2.38z"/>
        <path fill="#F9B195" d="M137.272 111.687l-7.155 26.686 1.196 2.278-.277 4.419-2.2-4.13-.272-5.43 5.346-25.239z"/>
        <path fill="#F9B195" d="M134.872 113.59l.642 15.293 1.24 4.179-1.481 2.705-.678-2.727-.055-2.998-3.412-19.523 3.698-2.045z"/>
        <path fill="#171C22" d="M136.754 133.062l.235 2.834-1.861 2.421-1.29-3.418.757-1.859.962 2.143zM131.313 140.651l-.967 2.08-1.51-1.79.429 3.193 1.53 2.159z"/>
        <path fill="#F9B195" d="M136.626 53.31s-3.364.284-5.297-5.27l-1.719.285s1.074 6.017-3.51 4.628c0 0 2.15 6.837 9.094 6.48 0 0 4.01 1.389 1.432-6.124M143.53 21.777c.044-.618 1.797-1.015 1.797-1.015 2.282-.213 1.568.522 1.568.522l-1.406.116c-.546.697.817.925.817.925.408 0 4.447.27 4.447.27-.68.848-2.541.695-2.541.695 1.496.809.771 1.003.771 1.003-.409.076-.907-.233-.907-.233-.457-.357-.956-.698-1.505-.903-.613-.23-1.766-.28-2.125.402-.1.084-.084.114-.084.621l-1.051-.258c-.05-1.478.218-2.145.218-2.145"/>
        <path fill="#F9B195" d="M141.316 57.938s1.783-5.451 2.75-8.55c.967-3.097 1.933-10.253 1.61-12.817 0 0-1.718-7.905-1.288-12.818l-1.074-.426s-.537 8.971.43 13.672c0 0 .106 2.35-.645 4.699-.752 2.35-2.792 7.69-3.114 11.537l-2.141.394.788 6.338 2.362 3.739.322-5.768zM123.581 44.108c.563 3.136 5.21 5.373 8.714 4.75 3.504-.622 4.429-4.555 3.866-7.69-.563-3.136-3.753-4.488-7.256-3.866-3.503.623-5.887 3.669-5.324 6.806"/>
        <path fill="#E76D24" d="M136.376 43.945s2.41-1.072 3.16-2.034c0 0-2.63-7.796-9.182-7.049 0 0-2.463-2.24-5.584.962 0 0-6.283 4.112-2.523 12.55l4.356.163s-2.363-7.262.537-8.971c0 0 3.222.142 5.477-1.924 0 0 3.33 1.496 3.76 6.303"/>
        <path fill="#4DADB0" d="M137.88 52.918l-.68-.037 1.216 5.378-2.219 2.171-6.265-2.385-3.114-5.021-.717-.07 1.898 5.41.394 2.138 2.284 11.105-3.108 2.888-.536 2.243-7.877 30.122 10.454 3.846 6.88 1.39 1.175-.11 6.408-28.483-2.22-6.231-1.611-3.632 1.54-9.933-2.149-5.128z"/>
        <path fill="#F9B195" d="M126.173 53.31l-2.72-.571-4.44 3.418.573 3.704 5.728-3.561 2.435 1.282z"/>
        <path fill="#010202" d="M133.669 38.678l-.06-.02a.572.572 0 0 0-.162-.026.936.936 0 0 0-.22.022c-.08.019-.165.034-.248.063-.082.028-.165.052-.24.091-.072.037-.144.063-.199.102-.112.073-.18.127-.18.127l.128.23c0-.002.078-.018.188-.051.055-.016.12-.032.189-.05.069-.02.147-.029.221-.05.15-.034.301-.05.414-.088a.697.697 0 0 0 .133-.058l.051-.03-.015-.262zM127.665 41.039l-.059.003a2.417 2.417 0 0 0-.615.16c-.08.036-.161.08-.235.12-.071.053-.14.101-.196.144a.34.34 0 0 0-.09.164l-.003.08.216.152.073-.003.057-.015.053-.037.137-.106c.06-.034.116-.079.182-.115.066-.035.128-.08.194-.11l.177-.092.175-.09-.066-.255z"/>
        <path fill="#191A1A" d="M132.946 41.035a.695.695 0 0 0 .53.826c.38.09.76-.132.848-.496a.692.692 0 0 0-.53-.826c-.38-.09-.76.13-.848.496M127.05 43.177a.696.696 0 0 0 .53.827c.38.09.76-.132.848-.497.088-.365-.149-.735-.53-.826-.38-.09-.76.131-.849.496"/>
        <path fill="#171C22" d="M51.854 53.452l9.236 11.536-3.222 6.409-2.792 22.645-1.934 5.341 1.074 12.818-8.162-1.282-4.08-22.218 7.302-12.604-.645-13.245z"/>
        <path fill="#F9B195" d="M57.868 60.715s-4.51-6.694-4.081-11.11l-1.125.083s-.523 3.478-.951 4.19l6.157 6.837zM75.052 62.78a.75.75 0 0 0 .751.748.75.75 0 0 0 .752-.748.751.751 0 0 0-1.503 0"/>
        <path fill="#F9B195" d="M72.903 51.173l.573 2.35 3.58 2.634c.93-.213 1.146.57 1.146.57.143 1.068-1.36.712-1.36.712l-.663 1.62s-1.843.16-3.06-.124l-.162.338s.806 1.655 2.524 1.71l.716 4.86-9.684-1.443-.268-1.656-.698-.908c1.02-.373 2.202-1.922 2.202-1.922-1.984-.152-2.579-4.16-.323-4.273 1.075-.053 1.612 1.496 1.612 1.496s.913 1.067 1.61 1.067c0 0 .322-.747.053-1.494 0 0-3.275-1.39-4.188-2.297 0 0-1.718-1.335-.321-2.35 0 0 2.54-1.71 4.313-1.496 0 0 1.754.464 2.398.606"/>
        <path fill="#929090" d="M70.271 52.066s.612-.422.19-.89c0 0-.708-1.217-1.744-1.5 0 0-6.31 1.796-7.346 4.373l-.281-.516.046.655-.612.33.566.093-.142.42.376.048s.787 3.733 3.99 6.918c0 0 .06.044.814-.377 0 0 1.695-1.077 1.648-1.592 0 0-1.648-.984-1.319-2.483 0 0 .079-1.28 1.54-.53 0 0 1.568.936 2.605 1.42 0 0 .632-1.85.207-2.366 0 0-2.798-.116-3.599-.866 0 0-2.166-1.45.424-2.529 0 0 2.072-.654 2.637-.608"/>
        <path fill="#171C22" d="M72.365 54.12c.1.087.197.2.282.336.242.385.288.791.102.907-.185.115-.532-.104-.775-.49-.089-.142-.155-.388-.189-.52l.58-.233zM72.94 50.745s-1.255.01-2.145 1.474l.247.13s1.19-.82 2.157-.286c0 0 .65-1.144-.26-1.318"/>
        <path fill="#929090" d="M76.86 57.836s.554.663.322 1.097c0 0-.77.091-2.22.273 0 0 .251-.822.573-1.233 0 0 .644-.228 1.325-.137"/>
        <path fill="#808081" d="M78.059 72.572l2.362 1.923.108 26.063-2.291 3.347-9.558 1.709-1.826-18.906-1.29-16.237 1.612-5.02 5.942 4.023z"/>
        <path fill="#808081" d="M78.273 75.028l12.136-1.602 7.483-10.219-1.934-3.488-7.481 9.648-12.853-.747.501 4.2z"/>
        <path fill="#979798" d="M65.278 71.076s.465 6.73.251 14.848l22.84 5.127.859-3.525-19.01-5.127.109-11.75-2.471-.962-2.04.535-.538.854z"/>
        <path fill="#171C22" d="M68.715 105.365l1.898 4.629 19.045 7.406-6.588 17.375 1.576 1.139 8.771-18.586-17.936-12.746z"/>
        <path fill="#171C22" d="M78.273 103.656l19.69 8.616 2.865 21.221-2.149-.285-3.722-17.945-24.344-5.27-.716-4.842z"/>
        <path fill="#FEFEFE" d="M77.629 68.406l.574 11.68-5.3-11.11z"/>
        <path fill="#F9B195" d="M54.288 59.86s-1.003-1.85-2.435-1.85c0 0-1.145.142-.142 2.99 0 0 5.584 10.112 8.878 12.533 0 0 8.019-2.777 10.882-4.2l4.44 1.85-.287.82.143.462 1.146-1.14-5.298-3.56-9.737 1.78-7.59-9.684zM90.018 88.157s1.02-1.268 1.592-1.71c0 0 .828-.824 2.23-1.14 0 0 2.102-.065 2.611-.128l.51.064s.254.76-.446.886c0 0-1.847-.19-2.42 0v.238s1.098.237 1.29.332c0 0 .811.237.43.666 0 0 .526.19.142.806l-.286.144s.096.475-.334.618c0 0 .62.189.765.142 0 0 .333-.285.429.047 0 0 .382.808-1.671.618 0 0-1.577-.096-2.246.238l-.908.617s-.573.76-1.528.428l-.574.048.414-2.914z"/>
        <path fill="#F9B195" d="M72.546 68.62l3.15.427.287 1.71-.645.925s-.43-.072-.358-.427l.071-.357.072-.783-2.864-.925.287-.57z"/>
        <path fill="#141614" d="M116.848 129.186l3.454 4.613-.7 5.711-1.305-.177-2.343-5.667z"/>
        <path fill="#6D8C9A" d="M117.58 44.072l-1.789-2.157-4.224 2.35-10.203-.641-2.971.428 9.451 26.633-1.002 5.554 10.023 5.555 4.44-11.394z"/>
        <path fill="#F9B195" d="M98.035 42.592s.94.391 1.476.792c0 0 .108.748-.697.48 0 0-1.128.268-2.229 1.202 0 0-.555.267-.698-.124 0 0-1.42.04-1.504-.961 0 0-.804-.183-1.56.069 0 0-1.092.083-.587-.586 0 0 1.503-.48 2.255-.267 0 0 1.393-.84 1.897-1.175 0 0 .723.235 1.647.57M113.187 44.902s-1.83-2.627-.765-4.498c0 0 2.267-1.902 4.275-3.152 0 0 .364-1.723-.716-3.608-.081-.14-1.757.055-2.673-.554.002 0 2.53-.263 2.442-.448-.173-.366-.31-1.014.413-1.645 0 0 .639-.385.704-1.493 0 0-.013-.46-.847-.44l-1.945.05s-1.95-3.73-3.548-4.611c0 0-4.85 2.43-5.273 4.007 0 0-1.221 2.982.792 9.106 0 0 1.08 5.874.759 7.818 0 0 3.952 2.364 5.387 3.64l.37-.01s.384-3.143.625-4.162"/>
        <path fill="#2A0F0F" d="M113.301 29.63a.45.45 0 0 1-.44.46.45.45 0 1 1-.023-.898.451.451 0 0 1 .463.438"/>
        <path fill="#171C22" d="M105.734 38.086s1.03-.441 1.297-.932c0 0 .736-1.057.86-1.682 0 0-2.87-.756-2.08-2.436 0 0 .744-.78 1.672.096 0 0 1.71-1.012 1.672-2.532 0 0-2.695-2.075-1.758-3.481 0 0 3.55-2.417 5.083-2.249l.014-5.189-10.05 8.92s-.392 4.255 3.29 9.485"/>
        <path fill="#171C22" d="M113.02 26.38s-2.737-.533-3.07.904l.512.126s1.04-1.042 2.31-.245l.247-.784z"/>
        <path fill="#FEFEFE" d="M133.906 44.717s-1.937.87-3.651.83c0 0 1.01 1.478 2.3 1.037 0 0 1.396-.997 1.35-1.867"/>
        <path fill="#FEC025" d="M95.283 84.687l.148-4.479-3.11.096.943 4.894s1.174-.494 2.02-.511"/>
        <path fill="#B1CDE3" d="M122.96 108.262l.067.022-.005.022-.062-.044zm6.566-35.584l-1.956 1.816-.538 2.244-5.489 20.993-.342-2.638 6.118-21.398 2.207-1.017z"/>
        <path fill="#22303B" d="M121.2 95.093l.342 2.638-2.047 7.834-1.055-.82z"/>
        <path fill="#319CA5" d="M128.464 58.315l2.005 4.13 2.864 3.987v5.413l-3.007 3.133-7.299 33.306-.06-.022-3.472-2.698 2.048-7.833 5.49-20.993.536-2.244 1.956-1.816 1.803-.833-.859-5.982z"/>
        <path fill="#B1CDE3" d="M158.767 110.538l-.002-.043.403-.15z"/>
        <path fill="#583D37" d="M158.765 110.496l.002.044-2.665 1.285.063-.36 2.6-.97zm-7.845-1.397l3.463 3.032.332-.125-.066.52-.696.336-3.033-3.763z"/>
        <path fill="#583D37" d="M156.164 111.465l-.063.36-1.453.702.067-.52z"/>
        <path fill="#141614" d="M151.197 90.588l-3.007.499v1.816l3.544.57z"/>
        <path fill="#6D4337" d="M159.073 114.729l-3.83 19.619-.573-.57 2.612-20.33zM145.182 114.053l3.187 19.156.716.426-2.005-19.94zM156.746 108.142l-3.437 19.654-.573-.285 2.364-18.515zM150.039 107.245l1.652 19.881-.626-.133-2.403-18.509z"/>
        <path fill="#F9B195" d="M113.35 113.922l4.876-1.186 5.946-6.188 3.376.493.083-1.37s-.586-.3-.601.288l-.871-.633-1.123-.063-.525-.646s.428-.283.346-.75c0 0-.031-.627-.826.01l-.454.542.416.733-6.622 5.427-4.84 1.156-.674.125 1.493 2.062zM114.747 128.621l5.822 2.284 5.208 7.923-1.532.305-4.903-5.332-11.794-1.067zM106.476 132.125l-4.75 6.55-10.665 2.115.288-1.2 6.702-3.048 2.145-6.702z"/>
        <path fill="#E13532" d="M113.368 126.945l1.186 1.105 1.725.418-3.676 6.094-5.821-1.219-1.838 2.591-7.505-2.895 1.991-2.896 1.99-3.655 10.264 1.676z"/>
        <path fill="#171C22" d="M125.777 138.828l1.838-.457 1.149-.685.076.989-3.063 1.676.613.914-.766.61-1.379-1.98zM91.005 139.437l-.46 1.524-.766.609-.536 1.906-1.302 1.447-.076-1.447.689-2.21-.881.039.23-1.258z"/>
        <path fill="#808081" d="M112.603 126.907l-.92-10.74-7.582-2.933-2.45.38 2.335 6.78-2.067 5.371 9.535 1.942z"/>
        <path fill="#808081" d="M103.757 114.338l-.192-1.561 2.49-.153 2.297 1.6-1.149 4.913z"/>
        <path fill="#808081" d="M105.94 112.624l3.908-.83 4.01-.64.215 3.488-2.848 1.524-3.448-.228z"/>
        <path fill="#F9B195" d="M107.395 115.67l-.192 3.467 5.668 1.41 5.63-.115-.23-1.257-5.63-1.143zM107.892 111.71l-1.723-1.714-1.378-.229.344 2.856 1.38.115z"/>
        <path fill="#F9B195" d="M112.335 106.107c.333 3.571-2.758 6.776-6.904 7.159-4.146.382-7.776-2.203-8.11-5.774-.332-3.571 2.76-6.776 6.903-7.158 4.147-.383 7.778 2.202 8.11 5.773"/>
        <path fill="#FEFEFE" d="M105.901 110.655s2.012.006 3.481-.69c0 0-.299 1.668-1.585 1.783 0 0-1.596-.323-1.896-1.093"/>
        <path fill="#5C1416" d="M99.114 111.495c-.304-.318-.481-.991-.545-1.404-.22-1.43 2-1.971 2.765-.885 0 0 .761-.541.497-4.82 0 0 4.228-3.029 10.308-.16 0 0 5.77-5.273-6.21-5.193-1.333.01-2.837.354-4.066.8-4.668 1.693-6.242 8.007-2.749 11.662"/>
        <path fill="#191A1A" d="M104.207 107.249c.164.237.1.568-.147.739a.537.537 0 0 1-.748-.12.531.531 0 0 1 .147-.739.54.54 0 0 1 .748.12M110.56 106.002c.165.239.1.568-.147.74a.54.54 0 0 1-.749-.12.532.532 0 0 1 .148-.74.538.538 0 0 1 .748.12"/>
        <path fill="#F9B195" d="M117.854 120.135s-.18.352.314.485c0 0 1.212.331 1.707.511 0 0 .987.453 1.695.81 0 0 .345.058.327-.184l-1.34-.724s.328-.137.888.005c0 0 .847.22 1.052.37 0 0 .355.038.179-.167 0 0-.502-.393-.838-.516 0 0 .933.284 1.11.35 0 0 .345.059.15-.203 0 0-.81-.432-1.78-.69 0 0 .553-.21 1.625.17 0 0 .327-.046.067-.224 0 0-.745-.375-1.67-.447 0 0-.578-.059-.895-.172 0 0 .657-.507.845-.738 0 0 .132-.166-.064-.242 0 0-.412.119-.599.165 0 0-.994.57-1.552.519 0 0-.514-.095-.673-.013 0 0-.275.677-.548.935"/>
        <path fill="#DE9D85" d="M138.846 51.923c-2.202 0-3.222-.16-4.388.586 0 0 .71.573 2.51 1.435 0 0 2.349.194 3.415.149l-1.537-2.17z"/>
        <path fill="#DE9D85" d="M137.487 53.696l-.354 1.057-.922.132s-.43-.352.033-.526l.623-.197s-.258-.287-.426-.694l1.046.228z"/>
        <path fill="#DE9D85" d="M138.31 53.633l.221 1.156-.35.589s-.744.483-.842-.204l.348-.589-.562-1.269 1.184.317z"/>
        <path fill="#DE9D85" d="M139.102 53.167l.406 1.105-.249.638s-.655.598-.864-.066l.248-.637-.762-1.162 1.221.122z"/>
        <path fill="#DE9D85" d="M140.032 53.198l.54 1.047-.17.663s-.576.673-.864.042l.167-.664-.9-1.06 1.227-.028z"/>
        <path fill="#304250" d="M107.497 76.603l3.944 2.186-.018.177-1.861 12.818-3.58-10.112z"/>
        <path fill="#5C8292" d="M100.254 48.487l5.298 1.14 7.017 17.945-1.128 11.216-3.943-2.185 1.634-5.47z"/>
        <path fill="#F9B195" d="M98.303 61.632s1.35-1.531 2.13-2.065c0 0 .708-1.997 1.208-3.392 0 0 .324-.575.672-.426 0 0 .367.538.666.143 0 0 .249-.495.05-.99 0 0 .433-.12.483-.418 0 0-.286-.534-.284-.967 0 0 .248-.593-.348-.593l-1.56-.114.795-.997s2.507-.39 1.91-1.463c0 0-.051-.197-.4-.099 0 0-1.878 1.13-2.575 1.278 0 0-.375.053-.724.588 0 0-.879.955-1.078 1.351 0 0-.1.742-.299 1.286 0 0-.377 2.9-.593 3.682l-1.574 1.282 1.521 1.914zM25.192 82.685l.464 1.277s-.25.219-.88.539l-.153-1.676.569-.14z"/>
        <path fill="#AD6465" d="M31.211 96.86l5.646 1.48 3.47-4.854.561-.074-.019-.792-.553-.204-1.624 1.155L36.28 96l-4.124-2.36-1.85-.523-.734 2.482z"/>
        <path fill="#AD6465" d="M38.142 92.923l-1.417-.566-1.82.554-2.12 1.56 1.207 1.25 2.595-2.446.952.188zM32.283 114.02l.155 7.142 1.226 2.828.05.883-.302.84h-.907l-.186-2.103-1.727-2.101-.535-2.205z"/>
        <path fill="#AD6465" d="M29.09 116.288l-2.39-3.659 1.694-9.137-1.29-6.252-.538-2.762.644-2.844.48-4.263 1.08-.646 2.467-1.617 1.772 2.442 1.167-.28.19.33.017 1.122-.68.659.393.338-.71.495-1.458.82.317 1.134 2.107 5.72-.337 6.561-.31 6.87-1.26 3.422-1.564 6.803 1.08 4.17-.603 1.922-.967-.06.017-.674.286-1.429-1.88-3.53z"/>
        <path fill="#AD6465" d="M29.487 87.614L28.154 84.6l-.434 3.823z"/>
        <path fill="#AD6465" d="M28.072 87.135l-1.562-1.72 1.098 4.063zM27.372 109.976s-1.045 3.815-1.103 5.05c-.115 2.445-.312 6.391-.464 8.16 0 0 .098 3.176-.787 5.245 0 0-.557.896-1.045 1.407 0 0 .49 1.178 1.533.585 0 0 2.726-1.53 2.044-6.496 0 0-.283-4.272-.276-6.787l.822-4.161-.724-3.003zM31.51 87.93l.114.124c.181.233.237.492.124.578-.112.086-.35-.034-.53-.266l-.045-.064.338-.371z"/>
        <path fill="#EC9979" d="M23.627 94.046s4.59 8.009 7.006 8.33v2.082s-4.107-1.121-7.811-5.847l.805-4.565z"/>
        <path fill="#E13532" d="M15.415 106.67l-.201-12.134 8.213.96.805 2.884-4.147 11.013z"/>
        <path fill="#F9B195" d="M22.62 77.922s2.028 2.048 3.036 6.04c0 0-.135 3.982-4.218 4.821 0 0-5.376 2.014-8.664-2.187 0 0-2.819-3.775.52-6.448 0 0 2.17-2.712 6.299-2.383l3.026.157z"/>
        <path fill="#F9B195" d="M19.146 89.211s1.196.422.255 1.22c0 0 1.21 1.329 1.308.103.07-.866 1.045-2.096 1.045-2.096l-2.608.773zM24.663 82.79l-.455-1.737c.752.356 1.404-.016 1.776.105.397.131.445.8.243 1.08-.246.343-.683.5-1.014.739l-.55-.186zM24.738 85.916l.565.029s.237.468-.532.58l-.941.473.413-1.01.495-.072z"/>
        <path fill="#FEFEFE" d="M25.84 83.976s-1.546 1.039-3.91.89c0 0 1.227 1.722 3.231 1.016l.68-1.906z"/>
        <path fill="#191A1A" d="M22.16 81.464c.246.41.607.647.804.53.197-.117.159-.545-.088-.955-.245-.41-.606-.647-.803-.53-.197.119-.159.546.087.955M22.017 79.82l-1.031.682-.068-.154.924-.957z"/>
        <path fill="#8D201F" d="M22.96 75.426c.604.125 1.103.636 1.293 1.2.219.638-.007 1.326-.42 1.84-.207.257-.47.523-.744.706-.131.087-.403.382-.563.375-.26-.011.075-.614.116-.755.051-.178.083-.601-.023-.756-.226-.328-.526.405-.624.538-.172.232-.332.474-.539.678-.11.109-.284.262-.438.297-.289.063-.161-.17-.226-.355-.134-.39-.36-.13-.451.106-.093.243-.122.523-.24.756-.141.282-.26.583-.45.837-.075.098-.224.294-.35.326-.256.064-.278-.473-.303-.615a1.908 1.908 0 0 0-.228-.627c-.28-.48-.706-.783-1.28-.655-.511.114-1.18.428-1.53.954 0 0 1.742 3.995-1.657 3.724-.397-.032-.677-.196-1.088-.042a1.305 1.305 0 0 0-.738.706c-.325.73.024 1.477.57 2.01 0 0 1.024.802 1.292-.453 0 0 2.453 2.081 1.555 3.202 0 0-3.816-.867-5.87-3.989 0 0-1.08.608.62 3.378 0 0 2.75 5.1-2.675 6.443 0 0 .389-1.596-.52-3.703-.817-1.892-.715-4.378.567-6.05.445-.579.995-1.066 1.563-1.524.129-.106 1.076-.66 1.074-.824 0 0-1.144-4.14 2.632-4.976 0 0 3.21-5.254 8.884-2.288 0 0-.087-.645.791-.464"/>
        <path fill="#EDA88E" d="M18.504 123.516l-1.792 12.256-.293 8.372s2.085 1.655 3.317 1.878c0 0-.56 1.448-3.36.111l-1.961-.632s-.168-21.205.728-24.101l3.36 2.116z"/>
        <path fill="#171C22" d="M20.819 146.466c-.016 1.098-.803 1.283-.803 1.283l-2.52-.781s-.987-.351-1.267-.351l-.241.27-1.45-.3-.067-1.457s0 .055.616.055c0 0 .785-1.058 1.792-1.058l.263.372s-1.495.52-1.159 1.188c0 0 1.065 1.227 1.961.613l1.008-.78s1.878.133 1.867.946"/>
        <path fill="#F9B195" d="M14.645 122.235s-1.159 18.784-.821 23.13c0 0-2.015 2.863-4.48 1.972 0 0 .946-1.302 2.627-2.973l-.967-25.11 3.64 2.981z"/>
        <path fill="#171C22" d="M13.823 145.205l.14 1.562-1.334.313-2.138 2.029-1.95-.024s-.899-1.397.727-1.95l1.4.334 1.57-1.058s.125-.966-.821-1.657l.282-.36.93.848 1.194-.037z"/>
        <path fill="#E13532" d="M18.596 91.492s.161 2.724 2.255 2.724h.643s.619-1.092-.364-2.653c0 0 1.813 1.852 2.297 2.172.483.32.644 2.243.644 2.243l.162 2.402-3.67-.916-3.781 2.11-1.57-5.038 3.384-3.044zM20.085 109.393l1.851 2.233.483 9.611-3.14 4.566S3.334 120.076.435 116.07l6.724-7.408 7.891-2.563 5.035 3.293z"/>
        <path fill="#F9B195" d="M20.562 97.464s1.553 2.329 3.487 2.329c0 0 5.454-1.504 6.929-2.329 0 0 1.659-1.1 1.199-2.109 0 0 .368-.733 1.013.092 0 0 .185 1.284.369 1.742 0 0 .37.55.83.641 0 0 .664-.39.996.361 0 0 .34.7-.812 1.107 0 0 .233.421-.32.696 0 0 .395.61-1.264.61 0 0-.665-.31-2.517-.351 0 0-4.241 2.328-6.362 2.604 0 0-1.852.88-3.865-1.122l-2.819-2.563 3.136-1.708zM34.927 104.41s.772.636.619 1.374c0 0 .087 1.445-1.414 1.523 0 0-1.382.12-2.122.044 0 0-.614-.377.05-.666l1.372.141s.178-.092-.11-.145c-.462-.085-1.354-.257-1.443-1.044-.026-.238.321-.168.292-.433-.026-.245.22-.39.22-.39s.985.024 1.437.232l.123-.302s-.763-.291-1.285-.322c0 0-.383-.623.402-.688 0 0 1.44.272 1.86.676"/>
        <path fill="#191A1A" d="M33.89 87.356a.35.35 0 0 0 .341.356c.188 0 .34-.16.34-.356a.348.348 0 0 0-.34-.357c-.188 0-.34.16-.34.357M31.263 87.374c.165.195.399.272.519.171.121-.1.087-.341-.08-.537-.164-.196-.396-.273-.517-.172-.122.101-.086.342.078.538"/>
        <path fill="#A17260" d="M145.943 18.884l.296 1.025 1.22.184.68 1.059-.464.882-.03-.54-.323-.72-.467.035-1.1-.25-.33-1.49z"/>
        <path fill="#A17260" d="M145.686 19.822l-.566.932.484.983.13-.97.404-.592zM146.807 20.036l.668-.557.76.144.276.37-.383-.034-.474.113-.27.438z"/>
        <path fill="#A17260" d="M144.292 19.73l.146 1.167 1.309.415.562 1.271-.664.878.061-.594-.229-.84-.519-.043-1.163-.465-.086-1.706z"/>
        <path fill="#A17260" d="M143.903 21.088l-.645.826.26 1.015.272-.92.45-.521zM145.249 21.421l.749-.445.73.261.213.41-.374-.094-.486.037-.337.39z"/>
        <path fill="#DFDB1E" d="M141.371 15.008c-.14.6-.447 1.402-.576 2.069-.128.665-.08 1.193.49 1.244 1.254.3 2.422.085 3.492-.45a7.667 7.667 0 0 0 1.524-1.022c.295-.26.578-.536.848-.828.967-1.045 1.981-2.304 2.605-3.582.464-.95 1.403-1.422 2.12-2.14.752-.757 1.297-1.729 1.656-2.727a8.009 8.009 0 0 0 .417-1.766c.282-2.429-3.305-2.134-5.066-1.08-.426.218-2.385 2.485-2.769 2.767-2.46 1.812-2.69 3.195-3.99 5.813a35.56 35.56 0 0 0-.75 1.702"/>
        <path fill="#DFDB1E" d="M153.366 4.664s-2.223-3.036-5.57-2.413c0 0-.497.598-.096 1.091 0 0 4.35.107 5.666 1.322"/>
        <g transform="matrix(-1 0 0 1 153.74 .61)">
            <mask id="d" fill="#fff">
                <use xlink:href="#c"/>
            </mask>
            <path fill="#DFDB1E" d="M.345 4.524S1.16.857 4.479.097c0 0 .696.35.527.963 0 0-3.944 1.827-4.661 3.464" mask="url(#d)"/>
        </g>
        <path fill="#DFDB1E" d="M153.27 4.589s-2.802-2.36-6.029-.882c0 0-.384.71.113 1.082 0 0 4.369-1.033 5.916-.2M140.36 16.465s-5.257 7.923-6.276 10.49c0 0 .74-.036 2.25-1.973 0 0 4.546-5.7 5.448-8.398 0 0-.805-1.327-1.422-.12"/>
        <path fill="#DFDB1E" d="M141.286 16.133s-6.777 11.01-8.045 14.413c0 0 1.003-.225 2.963-2.969 0 0 5.916-8.107 7.018-11.64 0 0-1.153-1.436-1.936.196"/>
        <path fill="#DFDB1E" d="M142.833 16.45s-5.004 8.448-5.918 11.073c0 0 .763-.155 2.218-2.255 0 0 4.394-6.204 5.179-8.936 0 0-.906-1.14-1.479.118M141.239 10.043s-5.94 7.077-7.125 9.407c0 0 .8.006 2.494-1.712 0 0 5.1-5.051 6.162-7.509 0 0-.825-1.275-1.531-.186"/>
        <path fill="#DFDB1E" d="M142.25 9.784s-7.685 9.864-9.167 12.956c0 0 1.09-.156 3.299-2.6 0 0 6.657-7.215 7.964-10.438 0 0-1.196-1.393-2.097.082"/>
        <path fill="#DFDB1E" d="M143.91 10.16s-5.685 7.58-6.76 9.969c0 0 .83-.104 2.472-1.978 0 0 4.95-5.527 5.888-8.022 0 0-.94-1.106-1.6.031M142.33 8.5s-5.466 4.742-9.427 7.865c0 0 1.572-.055 3.532-1.468 0 0 5.877-4.13 7.338-6.377 0 0-.564-.975-1.444-.02"/>
        <path fill="#DFDB1E" d="M143.335 7.995s-9.235 8.445-11.218 11.247c0 0 1.102.028 3.69-2.013 0 0 7.778-6.004 9.61-8.965 0 0-.946-1.573-2.082-.269"/>
        <path fill="#DFDB1E" d="M144.91 8.643s-6.881 6.525-8.343 8.703c0 0 .835.034 2.769-1.54 0 0 5.81-4.624 7.155-6.928 0 0-.738-1.248-1.582-.235M145.038 18.251s-.034 1.942-.851 2.065c0 0-.52.106-1.25-.821 0 0-.748-1.225-.493-1.986l2.594.742z"/>
        <path fill="#DFDB1E" d="M146.338 16.598s.024 2.707-.794 2.83c0 0-.519.105-1.25-.82 0 0-.748-1.226-.493-1.987l2.537-.023zM142.367 8.492s1.968-2.492 4.397-1.644l-2.143 3.301-2.254-1.657z"/>
        <path fill="#171C22" d="M151.724 5.417c0 .223.14.405.313.405.174 0 .313-.182.313-.405 0-.223-.14-.405-.313-.405s-.313.182-.313.405M153.54 4.514s2.223-.592 2.49 1.48l-2.343.49-.147-1.97z"/>
        <path fill="#171C22" d="M153.76 6.445l1.137.831s-1.035.447-1.588.132l.45-.963z"/>
        <g>
            <path fill="#6D4337" d="M159.037 114.658l-14.5-.32 3.545-8.76 1.647-.142 9.022 4.842z"/>
            <path fill="#F9B195" d="M165.88 74.133c.332.168 2.823 1.985 2.823 1.985a890.232 890.232 0 0 0 7.41 4.913c-.118-1.114.437-15.943.437-15.943-.028-.368.484-.395 1.121-.858.554-.403 1.241-1.272 1.241-1.272 1.51-1.026.667.986.667.986l-1.006.622c-.25.386.386.77.386.77.188-.03 1.75.006 2.725-.079l.498-.68-.167-.454c0-.734.454-.17.454-.17l.392.678-.178.517c.054-.005.68-.014.733-.017.313-.028.76-.818 1.003-.838.427-.036.166.719.166.719-.61 1.05-2.69 1.188-2.69 1.188 1.79.646 1.02.979 1.02.979-.438.154-1.04-.104-1.04-.104-2.188-1.239-2.975-.685-2.975-.685-.764.028-1.117.734-1.117.734-.785.902.526 11.085.977 14.544.45 3.46-.816 3.986-.816 3.986a7.046 7.046 0 0 1-1.299-.457c-1.688-.987-12.182-7.809-12.182-7.809l1.416-3.255zM149.014 61.071c.563 3.136 4.944 6.96 8.448 6.338 3.503-.623 3.294-5.412 3.222-8.83-.067-3.185-3.145-4.097-6.648-3.474-3.503.622-5.586 2.83-5.022 5.966"/>
            <path fill="#F9B195" d="M157.82 65.38s-.573 4.77 4.295 7.335c0 0 .574 3.56-3.006 3.845 0 0-4.046.997-7.805-3.383 0 0 3.653.533 3.653-2.171 0 0-1.003-6.125-1.433-6.695l4.296 1.069z"/>
            <path fill="#F8991C" d="M149.371 85.497l1.826 7.05c0 1.424-1.826 5.34-1.826 5.34l6.3-2.99 3.008.57.25-.677c.645-6.41.752-8.439.752-8.439 1.29-.142 3.008-.712 3.008-.712.286-1.281 0-6.408 1.145-7.12 1.146-.713 2.332-4.813 2.332-4.813l-2.761-.422s-.143 3.739-3.008 3.846c0 0-1.861.461-4.582-1.354l-6.157-4.807-3.294 1.994-2.005 8.118 2.578 1.282 1.718-3.132.716 6.266z"/>
            <path fill="#F9B195" d="M144.453 80.592s-2.296 6.9-1.522 9.196c0 0 .29 1.491 1.727.773 0 0 2.69-.17 5.958-8.96l1.165-2.577s.472-.797.15-1.992l-.573-3.93 1.272-.84 1.07.793-.327.777s.494.367.892-.42c0 0-.021-.654-.228-1.062 0 0 .42-.644-.074-1.011 0 0 .183-.756-.136-.929l-.39-.163s.184-.756-.197-.847c0 0-.239-.623-1.91.494l-1.158.606s-.575.592-.728 1.052l.937 5.922s-3.42 5.237-3.96 6.556l.53-1.9s-2.334-.904-2.498-1.538M166.34 96.036l-4.153-1.281-2.147 1.993L165.48 108l10.312 9.685 8.591 10.255.573-.855-16.897-27.06zM165.48 108.427l-3.292 2.28-4.726 27.913 1.289-.285 8.448-26.917z"/>
            <path fill="#3C9AC4" d="M161.114 95.04l3.579 13.244-10.31 3.846-7.16-6.266 1.003-6.41 10.024-3.845z"/>
            <path fill="#171C22" d="M159.051 137.83l.673 4.22-3.364 3.697-.893-4.173 1.676-4.029zM185.656 126.873l3.4 4.196.944 2.48-4.72-2.48-1.134-2.48z"/>
            <path fill="#191A1A" d="M160.827 59.433s-3.652-1.709-3.938-3.988c0 0-1.825 4.915-5.656 4.985 0 0-.716 3.56.716 5.27 0 0-1.826 1.068-3.867-2.279 0 0-4.439-8.687 3.58-11.394 0 0 3.938-2.136 5.979.534 0 0 6.336 1.639 3.186 6.872"/>
            <path fill="#F9B195" d="M149.618 62.635c.175.656.735 1.077 1.252.94.514-.135.792-.778.617-1.432-.175-.657-.735-1.078-1.25-.942-.517.137-.794.778-.619 1.434"/>
            <path fill="#171C22" d="M154.142 60.968c.1.087.196.201.281.336.243.385.29.79.103.907-.186.115-.532-.105-.774-.49-.09-.142-.157-.39-.19-.52l.58-.233zM158.653 59.614c.099.087.197.201.281.337.243.385.288.791.103.907-.186.115-.533-.105-.774-.49-.09-.143-.158-.389-.191-.522l.58-.232z"/>
            <path fill="#FEFEFE" d="M159.326 63.953s-1.936.87-3.651.83c0 0 1.01 1.479 2.3 1.038 0 0 1.397-.998 1.351-1.868"/>
            <path fill="#FEC025" d="M152.003 69.1l-1.395-4.261-2.891 1.142 2.56 4.283s.936-.862 1.726-1.164"/>
            <path fill="#218CB6" d="M148.941 99.902l3.294 5.84 10.74-1.568.716 3.989-4.522 2.183-.405.15-2.6.97-1.45.54-.331.124-3.463-3.031-2.838-3.521z"/>
        </g>
    </g>
</svg>
