<svg xmlns="http://www.w3.org/2000/svg" width="140" height="52" viewBox="0 0 140 52">
    <g fill="none" fill-rule="evenodd">
        <path fill="#FDBA12" d="M34.382 29.644h34.75L51.756.311 34.382 29.644zm17.374-9.898l1.756 3.358H50l1.756-3.358z"/>
        <path fill="#00B4AE" d="M104.877 29.644h34.752L122.252.311l-17.375 29.333zm17.376-9.898l1.756 3.358h-3.512l1.756-3.358z"/>
        <path fill="#28702A" d="M32.922.31L16.529 7.358v-.02l-.02.011-.022-.01v.02L.095.31v29.333h10.808v-2.221l5.584 2.219.023-.01.02.01 5.584-2.22v2.222h10.808z"/>
        <path fill="#E54A21" d="M103.419.31L87.026 7.358v-.02l-.02.011-.023-.01v.02L70.591.31v29.333H81.4v-2.221l5.583 2.219.023-.01.02.01 5.584-2.22v2.222H103.42z"/>
        <g fill="#221F20">
            <path d="M0 51.887v-9.186h3.842c.495 0 .939.068 1.335.204.395.134.713.304.957.511.243.205.444.448.605.73.162.279.273.552.333.82.06.266.09.535.09.805 0 .35-.054.695-.162 1.031a3.363 3.363 0 0 1-.521.984c-.239.32-.586.577-1.041.774-.456.197-.989.296-1.596.296H2.553v3.031H0zm2.553-7.166v2.112h.729c.833 0 1.25-.352 1.25-1.062 0-.699-.417-1.05-1.25-1.05h-.729zM33.755 51.888h2.553V42.7h-2.553zM63.327 42.7h7.384l-4.102 6.981h3.737v2.206h-7.748l4.194-6.982h-3.465zM97.098 42.7h7.384l-4.102 6.981h3.737v2.206h-7.748l4.194-6.982h-3.465zM130.137 51.887l3.243-9.186h3.099l3.243 9.186h-2.735l-.508-1.59h-3.099l-.508 1.59h-2.735zm4.793-6.994l-1.043 3.386h2.084l-1.041-3.386z"/>
        </g>
    </g>
</svg>
