<?xml version="1.0" standalone="no"?>
<!DOCTYPE svg PUBLIC "-//W3C//DTD SVG 1.1//EN" "http://www.w3.org/Graphics/SVG/1.1/DTD/svg11.dtd" >
<svg xmlns="http://www.w3.org/2000/svg" xmlns:xlink="http://www.w3.org/1999/xlink" version="1.1">
<metadata>
Created by FontForge 20161013 at Thu Jun 21 22:14:58 2007
 By ,,,
a_ConceptoTitulNarrowCameoGraved *Arsenal Company (c) 1996*  FAX: (095)924-3775; e-Mail: arsenal@itco.msk.su; Phone: (095)924-5811 (Design and Featuring W.Chufarofsky)
</metadata>
<defs>
<font id="m_Brody" horiz-adv-x="395" >
  <font-face 
    font-family="m_Brody"
    font-weight="400"
    font-stretch="normal"
    units-per-em="1000"
    panose-1="4 3 9 5 2 8 2 2 3 3"
    ascent="800"
    descent="-200"
    x-height="426"
    cap-height="682"
    bbox="-71 -201 856.231 900"
    underline-thickness="0"
    underline-position="0"
    unicode-range="U+0020-2122"
  />
<missing-glyph horiz-adv-x="500" 
d="M63 0v900h375v-900h-375zM125 63h250v775h-250v-775z" />
    <glyph glyph-name=".notdef" horiz-adv-x="500" 
d="M63 0v900h375v-900h-375zM125 63h250v775h-250v-775z" />
    <glyph glyph-name=".null" horiz-adv-x="0" 
 />
    <glyph glyph-name="nonmarkingreturn" horiz-adv-x="334" 
 />
    <glyph glyph-name="space" unicode=" " horiz-adv-x="334" 
 />
    <glyph glyph-name="exclam" unicode="!" horiz-adv-x="244" 
d="M152 158h-10q-2 0 -8.5 -2t-9.5 -2q-8 0 -12 7t-14 7q-27 0 -27 53l3 173v126l4 70q0 4 -3 14.5t-3 9.5q0 3 9 12.5t15 9.5l14 -4l3 2.5t5 4.5l16 -3q-1 0 7 3.5t17 3.5q17 0 40 -35v-10q0 -2 3 -9.5t3 -6.5q0 -2 -6 -10q-8 -12 -8.5 -37t-7.5 -59q-10 -48 -16 -103.5
t-10 -137.5l-2 -41q-1 -11 1 -17.5t2 -8.5q0 -10 -5 -10zM90 119q1 0 4.5 -1.5t5.5 -1.5q2 8 14.5 9t26.5 -6.5t25.5 -23t11.5 -39.5q0 -22 -22 -43t-45 -21q-25 0 -42 17t-17 43q0 20 12 43.5t26 23.5z" />
    <glyph glyph-name="quotedbl" unicode="&#x22;" horiz-adv-x="340" 
d="M62 672l29 -2l21 -6q19 -5 22.5 -6.5t3.5 -15.5q0 -12 -3 -29t-2 -40l1 -39v-72q0 -22 -11 -22q-5 0 -17 4h-14q-25 0 -29.5 6.5t-4.5 12.5q0 7 1 18t1 21q0 4 -0.5 16.5t-1.5 34.5l-2 65l2 16q0 3 -2 13t-2 15q0 8 8 10zM212 672l28 -2l22 -6q18 -5 21 -6t3 -17
q0 -14 -2 -38t-2 -30l2 -39v-72q0 -13 -2 -17.5t-10 -4.5q-5 0 -17 4h-14q-25 0 -29 6.5t-4 12.5q0 5 1 18.5t1 20.5q0 8 -3 51l-1 29v51q0 5 -1 14t-1 15q0 8 8 10z" />
    <glyph glyph-name="numbersign" unicode="#" horiz-adv-x="546" 
d="M252 460q14 0 41 2t59 2l2 11q4 19 12.5 56t19.5 90q-2 11 9.5 22t30.5 11q12 0 25 -16t13 -28q0 19 -4 -1.5t-9 -52.5t-9.5 -62t-5.5 -30q3 0 33 -6q19 2 30 5t26 3q20 0 20 -11q0 -1 -1.5 -7t-1.5 -8q0 -1 -1.5 -8t-4.5 -15.5t-7.5 -15.5t-11.5 -7q-2 0 -12.5 0.5
t-21.5 0.5h-14t-35 -1q-13 0 -22 -16.5t-15 -37.5t-9.5 -39.5t-3.5 -22.5h48h19t18 1q7 1 11.5 1h7.5q19 0 19 -10v-3q0 -1 -1 -10.5t-4 -20.5t-9 -19.5t-15 -8.5q-1 0 -12 1t-20 1q-3 0 -16.5 -0.5t-39.5 -0.5q-6 0 -11 -0.5t-9 -0.5q-2 -6 -8 -33t-13 -58t-12.5 -57.5
t-6.5 -31.5q0 -15 -12.5 -21t-27.5 -3t-27.5 14t-12.5 28q0 14 10 53t29 110q-19 0 -31.5 0.5t-18.5 0.5q-19 1 -31 1.5t-16 0.5l-12 -52q-12 -54 -19 -87.5t-9 -44.5q0 -15 -12.5 -21t-27.5 -3t-27.5 14t-12.5 28q0 3 11 36q3 10 9 43.5t20 86.5h-24q-10 0 -15 -1t-7 -1
h-27l-24 -2q-14 -2 -14 20q0 3 1 11t4 16.5t7.5 14.5t10.5 6l22 -2l38 5q22 -12 35 -1.5t20 31.5t11 46t8 43h-17t-15 -1q-10 -1 -17.5 -1.5t-10.5 -0.5l-22 1l-23 -3q-14 -2 -14 21q0 36 15.5 43t53.5 7q4 0 12 -0.5t20 -1.5q19 -4 26 -2.5t12 24.5l19 86q5 21 8 29.5
t3 10.5l-2 22q-1 6 14.5 14t27.5 8q13 0 25.5 -15t12.5 -29q0 -1 -4 -17.5t-9 -40t-11 -49t-10 -43.5zM238 397q-4 -17 -9 -32t-9 -29q-13 -46 -14 -62q10 0 42 2t60 3q3 11 9.5 40t17.5 75q-23 1 -47 1.5t-50 1.5z" />
    <glyph glyph-name="dollar" unicode="$" horiz-adv-x="404" 
d="M232 563l-2 -27v-19q0 -18 -1 -32t-2 -20q-1 -12 -1.5 -18.5t-0.5 -8.5q0 -66 2 -72q2 2 21 -11t42 -31t43.5 -35.5t24.5 -23.5q28 -40 28 -83q0 -21 -18 -52l-28 -49q-8 -13 -21 -24.5t-28.5 -20.5t-30.5 -14.5t-26 -6.5q-18 -1 -16.5 -14t6 -28t3.5 -27t-23 -12
q-4 0 -19 7.5t-15 17.5q0 7 0.5 15t0.5 7q0 21 -1.5 26t-9.5 6q-34 6 -61.5 20.5t-46.5 37.5q-18 23 -30 46.5t-12 34.5q0 6 3.5 8t7.5 4t7.5 7t3.5 16q0 19 12 19q14 0 25 -14.5t24.5 -31.5t31 -31.5t42.5 -14.5q7 0 7 23v48l1 39q1 18 2 28t1 11q0 7 -12 16t-27 19
q-42 28 -72.5 57t-38.5 76q-4 21 -4 40q0 35 13 66.5t35 50.5q3 3 15.5 11.5t26.5 17t27.5 15t18.5 6.5h20q5 0 5 6q0 7 -3 16.5t-3 12.5q0 8 10.5 17.5t20.5 9.5q8 0 15.5 -12t7.5 -26q0 -2 -0.5 -8t-0.5 -7q0 -7 9 -7q10 0 23.5 -5.5t19.5 -5.5q1 0 6 1.5t6 1.5
q12 0 21 -15t17 -39t15 -53t13 -57l-6 -5t-15 -11.5t-19 -12t-17 -5.5q-15 0 -26 11t-19 29.5t-14.5 41.5t-13.5 47zM179 572q-9 3 -19.5 -7.5t-18.5 -25.5t-13.5 -31.5t-5.5 -25.5q0 -13 9 -29.5t20.5 -29.5t20.5 -18t9 6q0 1 -3 29l2 13v39q0 8 -0.5 14t-0.5 10
q0 3 1.5 12t2 18.5t0 17t-3.5 8.5zM225 110q23 0 38 6q10 6 18.5 7.5t8.5 28.5q0 12 -7 26t-16.5 26.5t-20 22t-16.5 11.5q-2 0 -3 -1t-2 -7t-2 -18.5t-3 -35.5l4 -28q0 -2 -1.5 -10t-1.5 -12t1.5 -10t2.5 -6z" />
    <glyph glyph-name="percent" unicode="%" horiz-adv-x="550" 
d="M106 640q4 0 9.5 -1l5.5 -1l16 2q3 0 5 0.5t3 0.5q29 0 45 -23.5t24.5 -55.5t10.5 -66t2 -54q0 -47 -12.5 -90.5t-44.5 -73.5q-15 -14 -26 -22t-28 -8q-51 0 -72.5 48.5t-21.5 132.5q0 17 2 42t6 58l1 9q3 27 7.5 42t4.5 21q0 1 -3 5l2 9q2 8 3 9.5t15 3.5l14 4
q27 8 32 8zM131 604l-6 -4q-15 -10 -21.5 -39t-9.5 -67l-2 -14v-16l-3 -46q-1 -13 1.5 -34t6.5 -40.5t8.5 -33.5t9.5 -12l6 2q11 3 18 22t11 44.5t6 51.5t2 42q0 89 -11 119q-10 25 -16 25zM430 686q26 0 26 -34q0 -6 -19 -43l-39 -79q-9 -18 -20.5 -42t-24.5 -56
q-19 -46 -45 -93t-38 -81q-6 -17 -21 -50t-33 -69.5t-36 -71.5t-30 -55q-2 -6 -2 -14.5t-1.5 -16.5t-5.5 -13.5t-14 -5.5q-1 0 -8 3t-14 8t-13 11.5t-6 13.5q0 12 17.5 40.5t38.5 75.5q3 8 22 46.5t42 85t43 87.5t25 53q10 24 13 32t6 13.5t8.5 16t20.5 40.5q18 35 32 64.5
t24 51.5q6 12 9.5 26.5t8 26.5t12.5 20.5t22 8.5zM408 388q2 0 8 -0.5t6 -1.5l8 2h8q3 0 5 1t3 1q10 0 15 -3.5t21 -14.5q16 -12 25.5 -36.5t14 -52t5.5 -53.5t1 -40q0 -48 -12 -90.5t-44 -72.5q-16 -17 -26 -24t-28 -7q-51 0 -73.5 47t-22.5 135q0 34 9 100l1 8q4 28 8 43
t4 21l-2 4l1 10q1 8 3 9.5t15 3.5l14 3q27 8 33 8zM432 352l-6 -2q-14 -8 -21 -39t-9 -69l-3 -14v-16l-3 -46q-1 -14 1.5 -34.5t6.5 -39.5t9 -32.5t9 -13.5l6 2q10 3 17.5 22t11.5 44.5t6 51.5t2 43q0 89 -11 119q-10 24 -16 24z" />
    <glyph glyph-name="ampersand" unicode="&#x26;" horiz-adv-x="471" 
d="M388 274q4 0 8.5 -7t9.5 -7q1 0 4.5 1t8.5 1q2 0 6.5 -5t8.5 -11t7 -11.5l3 -5.5q0 -22 -9 -37.5t-33 -47.5q0 -4 20 -42l9 -16q-1 -3 -6.5 -22t-17.5 -41.5t-26 -22.5q-5 0 -12 4.5t-10 18.5l-6 13q-12 30 -17 30q-2 0 -14.5 -11t-30 -24t-38.5 -24t-41 -11
q-4 0 -11.5 2t-9.5 2q-1 0 -11.5 -3t-16.5 -3q-24 0 -47 17t-41 42t-29.5 52t-11.5 47q0 66 39 142q2 4 12 16t21.5 25.5t20.5 24.5t9 13q0 -3 -8 12.5t-18 39t-18 51t-8 48.5q0 16 4.5 33.5t11.5 33t16 26.5t18 13l8 4q14 8 25.5 12t36.5 6l40 4q38 4 55.5 0t35.5 -18
q4 -2 13.5 -15t19.5 -35q16 -32 10.5 -52t-8.5 -31q0 -41 -86 -142q-10 -9 -10 -15q0 -3 12 -22.5t27 -42.5t28 -41t15 -18q3 0 6 8t6.5 17t8 17t11.5 8zM237 236l-25 40l-11 13q-61 -67 -61 -127q0 -33 16 -61.5t35 -28.5q-13 0 0 1.5t35 9t42 22t20 41.5q0 3 -10 22
l-16 33zM220 434q30 20 47.5 57t17.5 66q0 4 -3 13t-8 18.5t-10.5 16.5t-11.5 7q-37 0 -54.5 -17.5t-17.5 -60.5q0 -15 9 -43.5t31 -56.5z" />
    <glyph glyph-name="quotesingle" unicode="'" horiz-adv-x="190" 
d="M62 672l29 -2l21 -6q19 -5 22.5 -6.5t3.5 -15.5q0 -12 -3 -29t-2 -40l1 -39v-72q0 -22 -11 -22q-5 0 -17 4h-14q-25 0 -29.5 6.5t-4.5 12.5q0 7 1 18t1 21q0 4 -0.5 16.5t-1.5 34.5l-2 65l2 16q0 3 -2 13t-2 15q0 8 8 10z" />
    <glyph glyph-name="parenleft" unicode="(" horiz-adv-x="274" 
d="M180 706l18 -4h8l8 -4l6 3t8 3q4 0 10 -2t8 -2q3 0 7.5 1.5t6.5 1.5q7 0 7 -7q0 -9 -13.5 -30.5t-29.5 -37.5q-4 -4 -12 -19t-16 -32.5t-15 -33t-9 -20.5q-11 -26 -17 -43.5t-9 -33.5t-4.5 -36.5t-3.5 -52.5q-3 -53 -3 -89q0 -64 17.5 -128.5t53.5 -127.5q28 -49 28 -52
q0 -10 -5.5 -9.5t-12.5 0.5q-1 0 -7.5 -1t-9.5 -1q-4 0 -10.5 3.5t-14.5 3.5q-2 0 -8 -3t-10 -3q-13 0 -25 14t-23 37.5t-22 54t-23 64.5q-25 75 -25 180q0 22 2 49t5.5 54t9 52.5t11.5 46.5q9 31 17.5 54.5t18.5 37.5q20 29 29 45t10 18q7 29 13 35.5t26 13.5z" />
    <glyph glyph-name="parenright" unicode=")" horiz-adv-x="274" 
d="M36 706q-2 -3 3 -3t11.5 0.5t12 1.5l5.5 1q14 0 16 -1.5t14 -1.5l6 -4q7 4 10.5 5.5l3.5 1.5q16 0 37.5 -37t40 -90.5t31 -112t11.5 -101.5q0 -7 -4 -28.5t-9 -58.5q-9 -62 -11 -87t-5 -39t-10.5 -30t-26.5 -60q-11 -26 -15.5 -39t-7.5 -21.5t-8.5 -15t-19.5 -18.5
q-15 -14 -29 -18t-26 -4q-19 0 -38 8l-18 -2q-3 0 -3 8q0 6 13 16t19.5 19t12 21t12 29.5t20.5 44.5q11 21 21 57t18 75.5t13 77.5t5 63q0 84 -21 156.5t-59 122.5q-25 34 -30 41t-5 13q0 10 10 10z" />
    <glyph glyph-name="asterisk" unicode="*" horiz-adv-x="396" 
d="M226 400h-22l-15 4q-4 1 -9.5 -1.5l-5.5 -2.5q-11 0 -12 10l4 43q2 16 -2.5 24l-4.5 8q-2 -1 -14 -9t-28 -19t-22 -16q-1 1 -7 10t-12.5 19.5t-11.5 20.5t-5 14q0 3 10 8t21.5 10.5t21.5 10.5t10 9q0 2 -9 7t-20 11.5t-20 14t-9 13.5q0 1 3.5 10t9.5 19t13 18.5t13 8.5
q5 0 16 -7t22.5 -15t19 -15t4.5 -7q5 0 5 11v4q0 19 -2.5 23.5t-2.5 20.5v6q0 2 -0.5 3t-0.5 2q0 5 7 9.5t13 4.5q1 0 8 -2.5t11 -2.5q1 0 8.5 2t13.5 2q16 -1 13.5 -15t3.5 -26v-16q0 -16 3.5 -17.5t11 4t18.5 14t26 12.5l3.5 -5t9.5 -16l10 -16q12 -18 12 -21
q0 -13 -16 -14l-24 -16q-10 -7 -16 -6.5t-6 -3.5l4 -3.5l12 -10.5l16 -5l12 -7q14 -8 16.5 -9.5t2.5 -6.5q0 -7 -12.5 -18t-18.5 -36l-3 -6l-6 3l-10 -1q-11 9 -19 19t-15 14.5t-11.5 0.5t-7.5 -24l1 -10l-4 -22q0 -4 1.5 -13t-6.5 -7z" />
    <glyph glyph-name="plus" unicode="+" horiz-adv-x="396" 
d="M161 358v21q0 38 -0.5 60.5t-0.5 30.5q-1 4 -1 8.5v7.5q0 19 14 17l18 -1l10 1l12 -1l14 1q11 0 11 -12q0 -2 -1 -11.5t-1 -15.5v-12q1 -12 1 -22.5v-19.5q0 -8 -1.5 -17.5t-0.5 -17t6 -12.5t19 -5q38 1 60 1t30 1h16q17 0 17 -12q0 -2 -3 -20v-10q0 -17 -4.5 -24.5
t-11 -10t-14 -1.5t-14.5 1h-15t-37 -1h-17t-31 1q0 -7 -1.5 -20t-0.5 -31l2 -58q0 -2 1.5 -11t1.5 -14q0 -6 -3.5 -7.5t-18.5 -1.5l-13 -1l-18 2q-19 2 -23.5 2.5t-4.5 14.5q0 8 2.5 26t3.5 46q1 17 -0.5 30.5t-1.5 23.5l-104 -1l-11 1q-3 0 -11.5 -2t-13.5 -2q-8 0 -8 9
l2 26l4 18q4 19 5 23.5t15 4.5q8 0 25.5 -1.5t45.5 -3.5q1 0 19.5 1t30.5 1z" />
    <glyph glyph-name="comma" unicode="," horiz-adv-x="216" 
d="M74 116l22 -2q-1 0 9 2t17 2q11 0 21 -7.5t17.5 -17.5t11.5 -20.5t4 -16.5q0 -18 -5 -42.5t-15 -47t-23.5 -38.5t-30.5 -16q-13 0 -13 8q0 10 10.5 27t10.5 35q0 4 -11 8t-24 10t-24 15.5t-11 24.5q0 22 12 47t22 29z" />
    <glyph glyph-name="hyphen" unicode="-" horiz-adv-x="231" 
d="M174 184h-12q-14 0 -20 -0.5l-6 -0.5l-44 3l-36 -2l-16 1q-3 0 -13.5 -1.5t-15.5 -1.5q-11 0 -10 10l2 36l5 28q4 24 7 28.5t17 4.5q11 0 28.5 -3t38.5 -2l93 4h22q18 0 18 -13v-7t-2 -17l-1 -18q-3 -36 -3 -39q-3 -12 -16 -12q-3 0 -15 1t-21 1z" />
    <glyph glyph-name="period" unicode="." horiz-adv-x="216" 
d="M82 115q3 0 21 -3l27 5q5 1 12.5 -5.5t15 -15t13 -17.5t5.5 -13t-3.5 -18.5t-11.5 -30.5t-20.5 -28.5t-30.5 -12.5q-40 0 -54.5 20t-14.5 43q0 6 3 18.5t8 25t13 22.5t17 10z" />
    <glyph glyph-name="slash" unicode="/" horiz-adv-x="409" 
d="M364 682q25 0 25 -35q0 -8 -19 -45l-39 -81q-9 -18 -20 -43.5t-25 -57.5q-11 -26 -22.5 -50t-23.5 -47t-18.5 -38.5t-12 -29t-11.5 -28t-18 -36.5q-12 -23 -27 -53.5t-32 -69.5q-13 -31 -23 -51.5t-14 -30.5q-4 -6 -4 -14.5t-1 -16.5t-4.5 -13.5t-14.5 -5.5
q-1 0 -7.5 2.5t-13.5 7.5t-13 12t-6 15q0 13 21 58.5t51 104.5t61.5 122.5t52.5 113.5q7 16 25 56t38 83t37 79t20 44q4 6 4.5 14.5t3 16t9 12.5t21.5 5z" />
    <glyph glyph-name="zero" unicode="0" 
d="M169 636q4 0 14 -1.5t9 -1.5l14 1l13 2q5 1 8 1.5t4 0.5q15 0 23 -5t32 -23q21 -16 35 -37.5t22 -54.5t11.5 -80.5t3.5 -115.5q0 -13 -2.5 -38t-7 -52.5t-9.5 -51.5t-10 -36q-12 -31 -32.5 -59t-57.5 -53q-13 -9 -27.5 -13t-26.5 -4q-45 0 -89 41l-8 8l-18 34l-10.5 19.5
t-5 12t-3 12t-3.5 18.5q-4 27 -7 63.5t-3 78.5q0 28 3 68t10 92l1 13q4 44 12 68.5t8 34.5q0 3 -4 10l2 12q2 11 4 13t21 4l9 3l13 2q20 3 32.5 8t19.5 6zM210 588q-2 1 -8 -1.5t-12 -7.5t-11 -12t-5 -15q0 -1 -3.5 -14.5t-8 -34.5t-9.5 -46.5t-9 -50.5l-4 -22v-28l-4 -72
q-1 -23 2.5 -58t10.5 -67t15.5 -54.5t17.5 -20.5l12 4q20 6 32 38t19 73t9.5 83t2.5 70q0 80 -4 125t-14 67q-11 28 -16 35.5t-13 8.5z" />
    <glyph glyph-name="one" unicode="1" 
d="M246 48l4 -4q3 -3 3.5 -13.5t0.5 -15.5q0 -7 -17 -13l-6 -2l-10 2q-14 3 -25.5 18.5t-23.5 15.5q-9 0 -16 6t-7 26v14l1 8q2 15 -4 45.5t-6 79.5q0 22 5 72t5 129v62l2 30q0 4 -9 12t-9 16l3 16t9 34.5t14 34.5t17 16q7 0 24.5 6.5t28.5 6.5q2 0 8.5 -5t13.5 -11
t12.5 -12t5.5 -7q0 -3 -8 -19q-4 -10 -6.5 -27t-3.5 -36t-1.5 -37.5t-0.5 -31.5q0 -4 -1 -29t-2 -55.5t-2 -59t-1 -38.5l1 -164v-45.5t1 -24.5z" />
    <glyph glyph-name="two" unicode="2" 
d="M315 12q-5 0 -30 -6l-21 4l-16 2q-9 2 -15 3t-9 1q-9 0 -22.5 -2t-26.5 -4t-23 -4t-12 -2q-16 0 -36 6q-10 3 -17.5 4t-12 5t-6.5 12.5t-1 26.5q0 8 -8 10.5t-8 15.5q0 -1 19 32.5t43.5 78t47.5 88.5t31 63q14 32 25 56.5t18.5 46.5t11.5 44.5t4 49.5q0 13 -8.5 29
t-23.5 16q-4 0 -17.5 -18.5t-28 -46t-26 -60.5t-11.5 -61q0 -2 2 -7t2 -7t-6 -9.5t-8 -7.5l-20 1q-3 0 -10.5 -4t-10.5 -4q-5 0 -11.5 8.5t-12.5 19t-10.5 20.5t-4.5 13q0 1 1.5 10t6.5 24l20 60q8 25 10.5 37t4 19t3.5 13t9 20q3 7 2.5 10.5t-0.5 5.5t1.5 3.5t9.5 4.5l6 4
q4 -3 7 -4.5l3 -1.5l11 3t26 6l30 6t22 3q35 0 54 -10q41 -16 59 -42t18 -69q0 -113 -60 -204q-9 -15 -12 -22t-5.5 -14t-7.5 -17.5t-19 -32.5q-28 -45 -44.5 -75t-16.5 -46v-11l17 5l29 -4q11 -2 33.5 3.5t61.5 5.5q8 0 8 -9v-14l2 -10q2 -8 5 -20.5t3 -23.5
q0 -16 -6.5 -21t-22.5 -5z" />
    <glyph glyph-name="three" unicode="3" 
d="M91 227l26 -1q2 0 7 2t8 2q8 0 8 -8q0 -1 -1.5 -5.5t-1.5 -5.5t3 -10t3 -18q0 -13 3.5 -32t10.5 -37t17.5 -31t23.5 -13q9 0 16.5 17t12.5 41t8 50t3 44q0 44 -4 56q-6 27 -15 26l-53 -4q-4 0 -16 11t-10 15l4 16q2 8 1.5 12t2.5 4l13 -1q31 -2 48 46.5t17 115.5
q0 37 -5 51t-23 21l-10 5q-5 2 -14 -19.5t-18 -49t-15.5 -51.5t-6.5 -28q0 -10 1 -16.5t1 -7.5q0 -11 -12 -11q-4 0 -12 2.5t-10 2.5q-6 0 -16 -4t-14 -4q-10 0 -20 13t-10 25q0 10 14 62l15 58q6 22 11 34t6 16q3 25 15 25q4 0 7.5 -4t5.5 -7q14 3 22 5.5t17 5t20.5 4
t31.5 1.5q26 0 49.5 -9.5t41.5 -26t29 -39.5t11 -49q0 -7 -2 -16.5t-2 -11.5v-17q0 -17 -9.5 -37.5t-20.5 -39t-19.5 -32t-6.5 -17.5q1 -4 19 -13q14 -7 24.5 -24.5t17.5 -39t10 -43.5t3 -37q0 -5 -3 -20.5t-11 -35.5t-21 -41t-34 -38l-12 -11q-11 -10 -21 -14.5t-11 -5.5
q-23 -3 -41.5 -12.5t-37.5 -11t-40 11.5t-49 54q-11 17 -11 20l-12 42l-4 30q-3 19 4.5 34.5t42.5 28.5z" />
    <glyph glyph-name="four" unicode="4" 
d="M314 136q-4 -24 -4 -52.5t2 -31.5q0 -8 6 -9.5t6 -13.5q0 -6 -2 -7.5t-12 -4.5l-20 -12l-10 -1l-10 -3q-3 -1 -9 3.5t-12.5 10t-11.5 10l-5 4.5q-3 -1 -6 -2.5t-6 -1.5q-4 0 -7.5 4t-2.5 7l4 20l2 74q0 8 -10 8l-41 -2q-16 -1 -26.5 -0.5t-15.5 -1.5q-8 -2 -12.5 -3
l-4.5 -1l-28 4q-16 2 -23 12.5t-10 23.5t-5 25.5t-10 20.5q-5 8 -5 12q0 18 4.5 33.5t13.5 39t22 59.5t30 94l28 98q13 47 20 70.5t17 23.5q6 -2 13 -3t22 -1q2 0 8.5 3t14.5 3h16q3 0 12.5 0.5t15.5 0.5q15 0 21.5 -7t10.5 -7l9 1l7 -2q12 -3 14 -13t0 -33t-5.5 -64.5
t-3.5 -107.5q-4 -48 -5.5 -77t-1.5 -40q0 -10 2.5 -21t2.5 -12l-3 -30q0 -4 6.5 -4.5t14.5 -1t14.5 -2t6.5 -7.5l-2.5 -7t-2.5 -12q0 -4 5 -16l4 -32q2 -10 -8.5 -13t-19.5 -3q-14 0 -14 -2zM220 560q-3 0 -10 -21t-16 -53.5t-19.5 -71.5t-20 -75t-17.5 -64.5t-13 -38.5
q0 -6 14 -6q12 0 22 1t21 1l23 -1q2 0 8 4.5t6 5.5l-4 23q3 8 4.5 14.5t1.5 17.5v32q0 5 -0.5 10.5t-0.5 9.5q0 6 3 87l1 37l3 28l2 36q0 4 1 7t1 4q0 5 -3.5 9t-6.5 4z" />
    <glyph glyph-name="five" unicode="5" 
d="M134 176q4 0 8 -14.5t10 -32.5t14 -32.5t20 -14.5q8 0 16.5 15.5t16 38t12.5 46.5t5 40q0 33 -10.5 61.5t-37.5 28.5q-10 0 -19.5 -9.5t-17 -20.5t-13 -20.5t-8.5 -9.5l-16 1l-15 -2q-8 -1 -17 10t-9 19q0 9 3 24q0 9 1 40.5t1 85.5q0 25 1 40.5t1 23.5q2 17 3 26.5
t1 11.5l-1 48q0 4 2.5 12.5t2.5 7.5l-2 20q0 2 4.5 5.5t10.5 7.5t11 6.5t6 2.5h8q8 -1 12 -1h5q58 0 91.5 0.5t43.5 0.5h6q3 0 7.5 -1t4.5 -3l-3 -18q0 -2 12.5 -12t12.5 -34q0 -6 -6 -19t-8 -13l-7 3t-12 3q-34 0 -49 -3l-9 -1.5l-3 -0.5l-30 1q-15 0 -15 -90v-12
q0 -8 0.5 -15.5t0.5 -12.5q0 -6 -1 -14.5t-1 -15.5q0 -6 5 -6q2 0 20 5t29 5q25 0 44 -12.5t32.5 -32.5t20.5 -46t7 -53q0 -12 -2.5 -25.5t-3.5 -28.5q-1 -16 -1 -25t-1 -15.5t-4.5 -14t-11.5 -22.5t-11 -21.5t-6.5 -10.5t-9 -8.5t-18.5 -16.5q-12 -11 -20 -18t-15 -11.5
t-15.5 -7t-23.5 -5.5q-15 -7 -24 -7q-19 0 -39.5 13t-38 33t-28.5 43t-11 44q1 -2 2 2.5t2 11t2.5 12t3.5 5.5l20 -7q4 -2 9.5 0l5.5 2q2 0 8.5 -0.5t6.5 -1.5q6 0 12 4t10 8z" />
    <glyph glyph-name="six" unicode="6" 
d="M154 403l2 -29q0 1 4.5 1.5t5.5 0.5h10l66 16q2 1 8.5 -3.5t7.5 -4.5h12q4 0 14 -9t25 -19l11 -14q6 -9 12.5 -23.5t11 -31t7.5 -33.5t3 -29q0 -15 -5 -40t-16.5 -52.5t-30 -53.5t-44.5 -42q-42 -27 -61 -27q-1 0 -17.5 5t-27.5 5q-26 3 -45 25.5t-32.5 54t-20 67.5
t-6.5 66v81l4 40l2 43q0 6 2 20t5 29.5t6.5 30.5t6.5 23l5 13q3 11 7 23.5t7 24.5t5.5 21t3.5 12q0 1 3.5 8t7.5 14.5t8 13t5 4.5l13 -2h5l8 -2l14 6l10 -2l24 6l52 -5l15 2q13 2 24.5 -10t20 -31t13.5 -41t5 -40q0 -14 -7 -34t-11 -20q-1 0 -3.5 1t-2.5 2l-10 -4
q-8 -3 -17 -7.5t-16 -4.5q-6 0 -16.5 17t-12.5 57l-3 38q-10 20 -12.5 23t-9.5 3q-8 0 -11.5 -4t-6.5 -18q0 -2 -6 -23.5t-12.5 -48.5t-12.5 -52.5t-6 -36.5zM206 322q-21 0 -46 -18q-4 -3 -6.5 -8t-4 -15.5t-2 -28t-0.5 -46.5q0 -14 2.5 -34.5t7 -40t11 -34t13.5 -17.5h13
l8 -2q12 -3 21 17.5t14.5 47t8 51t2.5 30.5v28.5t-2 27.5q-2 16 -13 29t-27 13z" />
    <glyph glyph-name="seven" unicode="7" 
d="M202 16l-14 1q-2 0 -8 -5.5t-8 -5.5q-1 0 -9.5 4t-18.5 14t-18.5 28t-8.5 46q0 40 9.5 97t25.5 110q32 112 35 143q5 56 15 74l1.5 3l0.5 1q0 6 -12 6l-8 -1l-24 -3l-14 -3l-14 1l-12 -1l-7.5 2.5t-10.5 2.5q-2 0 -8 -1t-14 -1q-13 0 -18 14t-6 30.5t0.5 29t1.5 8.5v8v7
t-2 11q0 1 11 4.5t14 3.5t9 -6l8 -4q12 -7 15 -8t13 -1q14 0 40 5t51.5 10t42.5 8t12 0l14 -4q10 -3 15 -3.5t5 -2.5l-2 -14q0 2 5.5 -4.5t12.5 -15.5t12.5 -19t5.5 -15q0 -2 -6 -10q-9 -9 -17 -27t-15.5 -41.5t-14.5 -51t-13 -55.5l-9 -44l-7 -24q-14 -47 -18.5 -73.5
t-5.5 -29.5q-2 -10 -2 -24l-11 -85l1 -35l-2 -20l2 -17q0 -1 -8 -9t-12 -8z" />
    <glyph glyph-name="eight" unicode="8" 
d="M260 376q8 -13 53 -65q19 -23 32 -61.5t13 -69.5l-4 -23t-16.5 -52t-35.5 -55.5t-60 -32.5l-15 -5l-23 -2l-28 -4q-19 -6 -43 5t-45 31t-35.5 46t-14.5 52q0 13 3 33.5t8.5 42.5t13 42t17.5 30l8 10q34 44 34 50q0 7 -11.5 21.5t-25 32.5t-25 36.5t-11.5 33.5
q0 41 9.5 69.5t35.5 56.5q8 10 39 28t74 18q52 0 81 -20q12 -9 14 -9q4 0 7.5 3.5t3.5 2.5q2 -1 6.5 -3.5t8.5 -2.5q8 0 17 1.5t16.5 1t13 -4.5t5.5 -15l-1 -14q7 -7 7 -11q0 -6 -9 -13t-22 -28l-59 -92q-14 -21 -22 -37.5t-14 -26.5zM198 286q-2 0 -26 -32
q-14 -17 -23 -39.5t-13 -44.5t-1.5 -40t10.5 -25l19 -29l8 -2q18 -4 19 -9t13 -4q15 0 26.5 10t18.5 25t11 32.5t4 32.5q0 13 -7 31t-17.5 36t-22 34t-19.5 24zM203 597q-15 -1 -34.5 -16t-20.5 -31l-2 -38q0 -8 4.5 -21.5t12 -26.5t15.5 -22.5t14 -9.5q2 0 13.5 15t24 34.5
t22.5 38.5t10 26q0 20 -20 35t-39 16z" />
    <glyph glyph-name="nine" unicode="9" 
d="M216 15l-11 1q-3 0 -6 -3t-5 -3q-9 0 -22 2t-18 2h-12l-8 2l-7 -1q-3 0 -37 39q-9 10 -17.5 28.5t-12.5 36.5t-1.5 31.5t14.5 13.5q1 0 4 -1l3 -1l11 8q13 9 28.5 10.5t12.5 1.5q6 0 8 -23l10 -25q4 -12 16 -31t30 -19q9 0 17.5 22t15 49t10.5 51t4 29q0 15 -12 15
q-3 0 -16 -8q-12 -12 -27 -13t-28.5 2.5t-23.5 9t-12 7.5q-23 3 -38.5 18.5t-25.5 39t-14 52.5t-4 59q0 9 4.5 44t14.5 72.5t26 67.5t39 30l10 -1q1 0 13.5 5t31.5 5q-1 0 12 1t32 -3l29 -7q22 -6 40 -29.5t30.5 -56t19 -69.5t6.5 -70v-30q0 -4 -0.5 -8.5t-0.5 -9.5
q0 -31 -1 -51.5t-2.5 -39t-4.5 -38.5t-9 -51q-3 -19 -14 -46.5t-26.5 -53.5t-35 -44.5t-40.5 -18.5zM204 600q-18 -8 -22 -12t-8 -18q0 -4 -4 -23t-9 -42t-9 -45.5t-4 -34.5q0 -17 1 -38t5 -47t21 -36t25 -10q10 0 15 4.5t21 27.5q4 6 7.5 16t0.5 47l-2 24l2 23v34l-5 32
l-2 29q-2 28 -9.5 47.5t-23.5 21.5z" />
    <glyph glyph-name="colon" unicode=":" horiz-adv-x="216" 
d="M82 115q3 0 21 -3l27 5q5 1 12.5 -5.5t15 -15t13 -17.5t5.5 -13t-3.5 -18.5t-11.5 -30.5t-20.5 -28.5t-30.5 -12.5q-40 0 -54.5 20t-14.5 43q0 6 3 18.5t8 25t13 22.5t17 10zM84 336q4 0 14 -1.5t8 -0.5l26 4q4 1 12 -5.5t15.5 -15.5t13 -17.5t5.5 -12.5q0 -3 -4 -17.5
t-12 -31t-20.5 -29.5t-29.5 -13q-38 0 -53 20.5t-15 43.5q0 6 3 19t8 25.5t12.5 22t16.5 9.5z" />
    <glyph glyph-name="semicolon" unicode=";" horiz-adv-x="216" 
d="M74 116l22 -2q-1 0 9 2t17 2q11 0 21 -7.5t17.5 -17.5t11.5 -20.5t4 -16.5q0 -18 -5 -42.5t-15 -47t-23.5 -38.5t-30.5 -16q-13 0 -13 8q0 10 10.5 27t10.5 35q0 4 -11 8t-24 10t-24 15.5t-11 24.5q0 22 12 47t22 29zM86 336q7 0 14.5 -1l7.5 -1l26 4q12 2 20.5 -7
t13.5 -21.5t7 -23.5t1 -14q-3 -1 -6 -13t-9.5 -26t-17.5 -25.5t-28 -11.5q-37 0 -53 20.5t-16 43.5q0 6 3 19t8.5 25.5t12.5 22t16 9.5z" />
    <glyph glyph-name="less" unicode="&#x3c;" horiz-adv-x="512" 
d="M34 300v83l444 215v-96l-342 -160l342 -160v-96z" />
    <glyph glyph-name="equal" unicode="=" horiz-adv-x="396" 
d="M184 426h76q38 0 60 0.5t30 1.5h18q15 0 15 -11q0 -3 -3 -21v-10q0 -27 -4.5 -31.5t-11.5 -4.5q-2 0 -11 0.5t-17 0.5q-2 0 -30 -0.5t-54 -0.5h-45.5t-70.5 2l-36 1l-48 -2l-5 1q-3 0 -11.5 -2t-13.5 -2q-8 0 -8 9l2 26l4 18q4 19 5 23.5t15 4.5q6 0 18.5 -1t25 -1.5
t21.5 -1.5t8 -1q17 1 35 1.5t36 0.5zM184 290h76q38 0 60 0.5t30 1.5h18q15 0 15 -11q0 -3 -3 -21v-10q0 -28 -4.5 -32.5t-11.5 -4.5q-3 0 -11.5 0.5t-16.5 0.5h-84q-17 0 -46.5 0.5t-69.5 1.5h-36l-42 -2l-11 1q-3 0 -11.5 -1.5t-13.5 -1.5q-8 0 -8 8l2 26l4 18q4 20 5 24
t15 4h16.5t17.5 -1q20 -1 34 -1.5t25.5 -0.5t23 0.5t27.5 0.5z" />
    <glyph glyph-name="greater" unicode="&#x3e;" horiz-adv-x="512" 
d="M376 342l-342 160v96l444 -215v-83l-444 -214v96z" />
    <glyph glyph-name="question" unicode="?" horiz-adv-x="382" 
d="M190 188q-4 -3 -8 -7.5t-6 -6.5l-12 7q-14 8 -20 11t-6 16q0 7 4 19.5t4 32.5q0 24 4.5 40.5t14 33t25 38t36.5 56.5q32 93 32 92q-5 28 -12.5 53t-23.5 25q-4 0 -11.5 -3t-10.5 -3l-18 2q-8 1 -20 -15.5t-23.5 -40.5t-20 -50t-8.5 -44q0 -4 8 -8.5t8 -7.5q0 1 -3 -5.5
t-8 -14.5t-11.5 -14.5t-13.5 -6.5q-38 0 -56 22t-18 40q0 6 5 36t14.5 63t23.5 60t33 27q8 0 18 -7l12 6l26 6q12 3 18.5 5t11.5 3.5t11.5 2.5t18.5 1q15 0 24.5 -1t18.5 -4.5t20 -9.5t31 -15q32 -14 48 -42t16 -64q0 -20 -1.5 -32t-6 -22.5t-12 -23.5t-19.5 -35l-5 -10
q-10 -19 -17 -29t-13 -16.5t-11.5 -13t-11.5 -19.5q-33 -69 -33 -92q0 -5 1 -10t1 -10q0 -4 -4 -7.5t-4 -13.5q0 -18 -10 -18q-4 0 -14.5 8.5t-15.5 15.5zM158 132l14 -2l8 1l8 -2q5 -1 11.5 2t5.5 3q5 0 14 -6.5t17 -15t14 -17.5t6 -13q0 -5 -6 -20q0 -2 -3 -13t-9.5 -23.5
t-17.5 -23t-29 -10.5q-47 0 -58 20.5t-11 49.5q0 2 4 12.5t9.5 23t12 23t10.5 11.5z" />
    <glyph glyph-name="at" unicode="@" horiz-adv-x="694" 
d="M366 232q-4 -5 -13.5 -20t-21.5 -30.5t-26.5 -27.5t-30.5 -12q-31 0 -49.5 30t-18.5 70q0 15 4.5 45t11.5 62t15 61.5t14 43.5q4 9 14 23t24.5 27.5t32 23.5t36.5 10q10 0 23.5 -15t24.5 -15q-8 -2 4.5 -3t30.5 -5t34.5 -12t16.5 -23q0 1 -11.5 -36t-22.5 -93
q-3 -16 -6 -27.5t-3 -22.5q0 -37 16.5 -55t44.5 -18q17 0 31.5 18.5t25.5 46t17 58.5t6 56q0 69 -24 106q-22 33 -49.5 63.5t-42.5 38.5q-3 2 -18 7t-33 10t-33.5 9t-19.5 4l-40 -6q-21 -3 -33 -4t-20 -2.5t-15.5 -6t-21.5 -15.5q-4 -3 -17.5 -16t-28 -28.5t-27 -29.5
t-15.5 -18q-5 -8 -12 -22.5t-13 -31t-11 -32t-6 -25.5q-2 -25 -3 -47t-1 -42q0 -18 5.5 -41t14 -45t18.5 -42t19 -32q17 -24 26 -35t19.5 -17.5t28 -14t51.5 -23.5l23 -11.5t12 -4.5t13 -0.5t26 0.5h14q4 0 17.5 3.5t39.5 8.5q22 4 31.5 6t17 6.5t17.5 14t33 29.5l40 34
q5 16 7.5 23.5t7 9.5t14 1.5t28.5 1.5l19 2q3 0 4.5 -5t1.5 -9q0 -22 -27 -52t-69 -57t-93 -45.5t-101 -18.5q-63 0 -162 41q-29 12 -52 29.5t-56 56.5q-16 19 -26 32.5t-17 26.5t-12 29.5t-11 41.5q-14 58 -14 83q0 14 3.5 36t9 45.5t12.5 44.5t13 33q28 52 54 76
q37 35 68 54.5t78 33.5q69 20 126 20q37 0 83.5 -14t77.5 -34q23 -16 38 -26.5t26 -21.5t21 -24.5t22 -34.5q19 -31 26.5 -65.5t7.5 -63.5q0 -27 -10 -62.5t-24 -57.5q-9 -15 -27.5 -34.5t-39.5 -36.5t-40 -28t-29 -9l-32 7q-26 6 -43 8.5t-29 7.5t-21 15.5t-19 31.5z
M366 484q-7 1 -15 -14q1 2 -8 -19.5t-20.5 -53t-21 -67.5t-9.5 -63q0 -22 4 -35.5t11 -13.5q4 0 11 10.5t15 26t16 33.5t13 32l3 10l3 18q1 4 2 7t1 7q0 9 3 21.5t7 25t7 23t3 16.5q0 11 -4.5 23.5t-20.5 12.5z" />
    <glyph glyph-name="A" unicode="A" horiz-adv-x="481" 
d="M360 624q24 -3 31 -14t5 -34t-7 -60t-5 -92q0 -20 1 -37t3 -33q3 -30 4.5 -56t11.5 -26l9 2l7.5 -15t7.5 -18q0 -5 -13.5 -16t-13.5 -19q0 -6 4 -29.5t10.5 -50t15 -48.5t17.5 -24q6 -1 6.5 -1.5t1.5 -8.5l6 -12q2 -3 -4.5 -7t-8.5 -4q-11 0 -26 -11.5t-26 -11.5
q-7 0 -22 5t-24 9h-9q-6 0 -18.5 12t-12.5 16l4 26q-3 -19 -4 -17.5t-1 15t-0.5 35t-3 42t-7 35t-13.5 14.5q-3 0 -16 -1.5t-28.5 -3t-29 -3t-17.5 -1.5t-14.5 2t-18.5 2q-18 0 -32 -53q-10 -38 -21.5 -58t-28.5 -42q-11 -14 -15.5 -18t-12.5 -4q-4 0 -18.5 7t-22.5 7
q-1 0 -8 -2t-9 -2q-20 0 -20 14q0 11 22 44.5t48 103.5q3 8 14.5 55t25 103t24 103t12.5 55q10 59 18 93t13 43q2 5 4.5 13.5t7 17t12 14.5t21.5 6q1 0 9.5 -5.5t12.5 -5.5q6 0 17 3.5t13 3.5q16 0 48 -14t64 -43zM236 610q-1 0 -6 -20.5t-11 -52t-13 -69t-13 -71
t-9.5 -58.5t-3.5 -31q0 -13 3 -16.5t8.5 -2.5t12 4t14.5 3l44 -1q22 0 22 20q0 11 -0.5 22t-1.5 23l-1.5 21l-0.5 7l4 69q2 20 -0.5 34.5t-2.5 21.5v17.5t1 19.5v17q0 31 -26 34q-8 2 -20 9z" />
    <glyph glyph-name="B" unicode="B" horiz-adv-x="508" 
d="M368 354q4 -3 5.5 -4.5t4.5 -3t8.5 -4.5t17.5 -8q34 -16 56 -53t22 -79q0 -10 -6.5 -36.5t-18 -54t-26.5 -49t-33 -21.5l-12 -3l-20 -14q-6 -4 -18 -8.5t-27.5 -8t-32 -5.5t-30.5 -2q-20 0 -40 11.5t-33 18.5q-6 -52 -18 -52q-4 0 -11.5 4.5t-6.5 3.5l-14 -2
q-7 -1 -14 1.5t-10 2.5q-22 0 -26.5 15.5t-4.5 26.5q0 8 -3 20.5t-3 13.5q0 2 2 12q2 8 2.5 13t0.5 12.5v19.5t1 33l6 114q3 50 3 67t-0.5 25t0.5 21t5 55q2 16 3 32t1 32q0 26 -15 26q-36 -1 -58.5 -21t-22.5 -30q-22 10 -26 12.5t-4 10.5t8 42q-14 20 -14 24
q0 16 39.5 36.5t93 38.5t108 30t85.5 12q46 0 78.5 -20t43.5 -56q30 -31 42 -56t12 -56q0 -24 -9.5 -45t-24 -38.5t-32 -31.5t-34.5 -24zM172 554q14 -4 28 -15t14 -21l-5 -8q-14 -17 -13.5 -41t-3.5 -71q-1 -13 12 -13q15 0 46 12.5t55 26.5q34 20 57.5 56t23.5 66
q0 27 -26 37.5t-50 10.5q-8 0 -24.5 -3.5t-36.5 -9.5t-41 -13t-36 -14zM185 105q1 1 5 1q2 0 20.5 -12.5t37.5 -12.5q23 0 46 13t41.5 34t30 46.5t11.5 49.5q0 38 -26.5 55.5t-66.5 17.5q-48 0 -99 -15q-1 -12 -1 -25v-27v-52q0 -20 -1 -31t-1 -13q0 -6 3 -29z" />
    <glyph glyph-name="C" unicode="C" horiz-adv-x="466" 
d="M304 612q-5 0 -14.5 6t-19.5 6q-25 0 -47 -30.5t-38.5 -76.5t-26.5 -99t-10 -98q0 -11 2.5 -31t6.5 -42.5t9.5 -44.5t11.5 -35l7 -15l13 -10q14 -11 21.5 -20.5t12.5 -12.5q23 -14 48 -14q34 0 70 30q15 12 28.5 27t23.5 28t16.5 21.5t8.5 8.5q14 0 24 -11t10 -16
q0 -17 -12 -39t-29.5 -44t-37.5 -42t-36 -32q-8 -8 -22 -13t-29 -8.5t-29 -5t-20 -1.5q-20 0 -34 2t-26 7.5t-24 14.5t-28 24q-29 28 -48.5 55t-29.5 49q-23 60 -23 142q0 132 47 247q29 69 72.5 108t93.5 39q9 0 37.5 -3.5t58.5 -12.5t53.5 -23.5t23.5 -35.5q0 -7 -1.5 -25
t-1.5 -22q0 -77 4 -94q1 -3 1 -10q0 -10 -13 -19.5t-18 -9.5q-9 0 -17 -2.5t-11 -2.5q-1 0 -9 3t-17.5 8t-17.5 9.5t-8 7.5q0 9 -3 20t-2 44l3 74q0 7 -4 20z" />
    <glyph glyph-name="D" unicode="D" horiz-adv-x="530" 
d="M188 28q-5 -16 -11.5 -26t-18.5 -10q-7 0 -21 8l-15 2l-10 6l-15 6q-1 1 -4 9t-6 18.5t-5 21.5t-2 18q0 8 3 113q1 54 1 73t0.5 30t2.5 29t7 70l2 78l6 40q1 6 -4.5 13t-8.5 7q-4 0 -9 -5q1 3 -10.5 -5.5t-26 -20.5t-27 -22.5l-12.5 -10.5q-7 0 -17.5 15.5t-10.5 25.5
q0 3 1 12.5t1 16.5q-1 11 -9 11.5t-9 14.5q0 9 13 15.5t30 16.5q136 82 252 82q131 0 196 -101q55 -85 55 -197q0 -43 -10 -89.5t-30 -98.5q-21 -55 -40 -83t-50 -55q-24 -20 -35.5 -27t-29.5 -13q-18 -8 -27 -8t-23 -3t-17 -3q-8 0 -25.5 10t-30.5 16zM186 566q4 -7 18 -13
l4 -7q5 -9 9.5 -10.5t4.5 -5.5q0 -3 -4 -10q-9 -13 -14 -48.5t-7.5 -74.5t-3 -70.5t-0.5 -35.5q-2 -42 -3 -70.5t-1 -43.5l1 -70q0 -5 5 -18t24 -13q14 0 31 11t33.5 27t30 33t20.5 29q9 15 20 39.5t20.5 51.5t15.5 54.5t4 49.5l-4 64q-2 28 -1.5 33.5t-1.5 13.5
q-19 62 -31 74q-10 15 -30 24.5t-40 9.5q-46 0 -100 -24z" />
    <glyph glyph-name="E" unicode="E" horiz-adv-x="418" 
d="M204 558q-4 -15 -7.5 -43.5t-6 -54.5t-3.5 -43t-1 -9q0 -12 16 -12q9 0 26 2t38 4t43 4t39 2q19 0 19 -25q0 -2 -4.5 -15.5t-4.5 -21.5t4.5 -22t4.5 -25q0 -15 -15 -15q-2 0 -17 5.5t-31 5.5q-18 0 -40.5 -7.5t-41.5 -5.5l-30 2q-4 0 -8 -12t-4 -25l1 -55
q0 -22 -0.5 -40.5t-0.5 -32.5q5 -1 17 -1h31q26 0 42 -3t23 -3q11 0 31 3.5t42 3.5q9 0 11 -7t1 -18t-3 -24.5t-2 -26.5q0 -1 4.5 -9t4.5 -13q0 -7 -6.5 -11.5t-15.5 -4.5q-7 0 -13.5 0.5t-12.5 0.5q-2 0 -23 -4t-35 -4q-7 0 -28.5 2.5t-45 5.5t-42 5.5t-20.5 2.5
q-34 2 -44.5 3.5t-15.5 6.5q-10 9 -10 41q0 25 1 65t3 96l4 88l4 46l1 52l4 64q2 38 -0.5 60.5t-1.5 21.5q-3 5 -11 5q-4 0 -13 -0.5t-17 -0.5q-14 0 -14 6q0 4 5 10t5 7q0 7 -9 20.5t-8 24.5l1 19q1 17 2.5 22t11.5 5q14 0 26.5 -4t28.5 -4q20 0 52 2t62 5t52.5 5t24.5 2
q3 0 16.5 -1t23.5 -1q51 0 58 -10q2 -6 2 -22q0 -2 2 -11t2 -13t-2 -10t-4 -7q-1 1 5 -7.5t6 -14.5q0 -8 -2 -11.5t-11 -11.5l-10 -8q-14 10 -18.5 12t-19.5 2q-2 0 -19 1t-33 1q-11 0 -32.5 -6t-43.5 -6z" />
    <glyph glyph-name="F" unicode="F" horiz-adv-x="376" 
d="M188 20l-4 1l-2 1q1 0 -3.5 -3.5t-10.5 -7.5t-12 -7.5t-10 -3.5q1 0 -11.5 3.5t-28.5 11t-29 18.5t-13 27l5 22q1 3 -1 10t-2 12q0 81 12 171q1 11 3 64.5t5 148.5l2 66q0 4 -5 8t-12 4h-34q-7 0 -7 4t4 9.5t4 9.5q0 1 -2.5 6.5t-5.5 12t-5.5 13t-2.5 10.5l2 15
q2 16 2.5 24t10.5 8q5 0 18 -4.5t27 -4.5q12 0 26 0.5t30 1.5q50 3 62 3q19 0 44.5 4.5t51.5 4.5q10 0 22 -1.5t16 -1.5h16q10 0 12.5 -11.5t1.5 -24.5t-3.5 -23.5t-2.5 -9.5q0 -4 6 -11.5t6 -15.5q0 -6 -2.5 -8t-13.5 -10l-6 -7q-5 7 -17.5 9.5t-48.5 2.5l-84 -17l5 -22
q1 -2 -2 -6t-3 -18q0 -3 -1.5 -18t-3.5 -33.5t-3.5 -35.5t-1.5 -23q0 -3 2 -9l-2 -7q-1 -4 20 -4q5 0 22 4l35 2l29 6l16 -2l14 2q8 2 11 -2t7 -18l2 -7l-3 -9q-1 -2 1 -5.5t2 -2.5q0 -4 -6 -15t-6 -19q0 -4 8 -15t8 -17q0 -4 -4 -8t-8 -4q-5 0 -14.5 4t-19.5 4
q-38 0 -63 -6q-15 -5 -21 -5l-32 1q-6 0 -6 -23v-38q0 -8 -0.5 -15t-0.5 -13q0 -27 1.5 -52.5t3.5 -48.5q2 -17 8 -24t6 -20q0 -12 -10 -12z" />
    <glyph glyph-name="G" unicode="G" horiz-adv-x="492" 
d="M452 248q2 -20 -4.5 -46t-18.5 -52t-27.5 -50.5t-31.5 -41.5q-20 -22 -31.5 -29.5t-32.5 -12.5l-16 -6l-18 -2l-36 -6q1 0 -14 2t-42 6q-15 2 -22 5.5t-13 9.5t-13.5 15t-23.5 22l-17 14l-11 20l-13.5 24t-7 15.5t-4.5 17.5t-7 30q-12 43 -12 77q0 164 54 288
q8 18 15.5 32t15.5 27t16.5 27t18.5 34l14 -4l14 2q16 2 41.5 8t37.5 6l37 -2q35 -2 56 -16t36 -14q4 0 12.5 -7t8.5 -11l-1 -23q0 -8 4 -25t9 -38t9 -44.5t4 -45.5q0 2 -4.5 -3t-12.5 -11t-18.5 -11t-22.5 -5q-5 0 -20 12q-28 10 -32.5 20t-7.5 16q0 3 3 10t3 12
q0 -2 -1 17.5t-5 43t-12 42.5t-22 17l-7 4l-10 -2q-23 -6 -41 -30.5t-31.5 -57.5t-21.5 -68t-12 -61q-5 -34 -7 -67t-2 -66q0 -21 3.5 -54.5t13 -64.5t26 -54t41.5 -23q19 0 36 15t30.5 36.5t23.5 46t14 44.5l6 30q1 4 -2.5 6.5t-7.5 2.5q-7 0 -18 -4.5t-26 -4.5h-22
q-5 0 -11.5 -1t-10.5 -1q-8 0 -15 12t-7 25q0 4 7 10t7 11t-3 14t-3 22q0 8 2 10t4.5 1t5 -2.5t2.5 -0.5h32l21 5l27 -1q2 0 7.5 1t12 2t11.5 2t6 1q53 0 70 -4t17 -15v-15q0 -9 5 -21.5t5 -21.5q0 -13 -1.5 -17t-10.5 -10z" />
    <glyph glyph-name="H" unicode="H" horiz-adv-x="521" 
d="M184 252q-1 -6 -3.5 -37t-5.5 -67t-6 -67t-5 -37q0 -7 -4.5 -19t-12.5 -24t-19.5 -20.5t-25.5 -8.5t-30 7t-11 27q0 7 -11.5 10.5t-11.5 14.5q0 6 14 15q6 4 9.5 16.5t5.5 27.5t3.5 30t2.5 24l3 24l3 50q1 12 2 19.5t1 9.5q0 10 -2.5 11.5t-15.5 1.5q-14 13 -13 37t1 43
q0 5 4 5l19 -1q17 -2 17 132q0 4 -0.5 10t-0.5 14v20q0 14 2.5 29t2.5 25t-6.5 8t-7.5 -2q-6 0 -6 12q0 22 21 44.5t51 25.5q3 0 10 -4l8 -4q3 -2 11.5 -5.5t17.5 -10t16 -15t7 -19.5q0 -4 -1.5 -5t-9.5 -3q-7 -2 -10 -28t-4 -59t-1 -65.5v-46.5t-2 -19.5t-2 -10.5
q0 -11 16 -11q3 0 25 5q3 1 17.5 2t30 4t28.5 9t13 17q0 27 3 47q3 19 4.5 25.5t2 11t0 11.5t-0.5 26q0 1 1 7t2.5 13t2.5 12.5t1 6.5l-2 34q-1 13 2.5 22t3.5 10q0 5 -6 9.5t-6 11.5q0 10 5 20t9 10q2 0 16 -10l12 3q20 4 33 7.5t17 5.5q16 10 24.5 7.5t13 -10t5.5 -16
t1 -9.5t-12 -20.5t-12 -45.5v-28q0 3 -3 -16.5t-7 -45t-7 -50t-3 -32.5q0 -28 6 -34q2 -2 9 -2.5t15 -1.5t14.5 -4.5t6.5 -11.5q0 -2 -2.5 -10t-2.5 -12q0 -8 9 -18t9 -24q0 -6 -4 -12t-8 -5l-15 4l-25 -1l-12 1q-5 1 -9.5 -23.5t-0.5 -47.5l3 -22q2 -15 2 -30.5t2 -28
t7.5 -20.5t19.5 -8q-1 -1 6 2t16 7.5t16.5 8l7.5 3.5q5 0 9.5 -4.5t4.5 -9.5q0 -2 -6 -14q0 -12 -0.5 -18t-3.5 -10.5t-9.5 -9.5t-18.5 -15l-20 -17l-26 -10q-10 -4 -16 -7t-10 -3q-19 0 -39.5 15t-30.5 37q-12 27 -12 131v25q0 8 0.5 14.5t0.5 11.5q0 20 -3.5 26t-15.5 6
q-5 0 -20 -2t-32.5 -4.5t-33.5 -5t-22 -4.5z" />
    <glyph glyph-name="I" unicode="I" horiz-adv-x="274" 
d="M130 683q3 0 20 -5q28 -1 37 -1t22 -15q5 -7 5.5 -9.5t0.5 -16.5l1 -18q0 -3 -9 -23q-4 -6 -7 -28.5t-5 -48t-3 -47.5t-1 -28l1 -30q1 -27 -3 -54t-5 -51q0 -4 -1.5 -29.5t-1.5 -45.5q0 -11 2.5 -30t2.5 -21l-1 -21l3 -13l-1 -23q0 -1 2.5 -19t8.5 -54l3 -16
q1 -4 -15 -18l-6 -6l-14 -4l-24 -9q-2 -1 -11 4t-15 7l-10 6q-12 8 -28 23t-16 25q0 4 4 11.5t4 9.5v13q0 1 2 9t2 11q0 11 -1 21.5t-1 32.5v22t1 36l1 60l4 40v62l6 45q3 21 2.5 43t1.5 42q2 11 3 22t1 21q0 22 -9 37t-9 26q0 7 4.5 17t12.5 19t18 14.5t21 4.5z" />
    <glyph glyph-name="J" unicode="J" horiz-adv-x="369" 
d="M-10 154q4 0 18 -11q46 -45 108 -45q33 0 49.5 25.5t23.5 88.5q1 4 2.5 31.5t4 66.5t5 83.5t4.5 83t3.5 65.5t1.5 31q0 19 -2 27t-13 33q-3 6 -3 9q0 7 6.5 15t15.5 15t17.5 11.5t13.5 4.5q12 0 24.5 -2t27.5 -2q34 0 35 -46l2 -13q0 -1 -5 -19q-5 -16 -7 -28t-3.5 -29
t-3 -43t-5.5 -70l-2 -94v-42q0 -43 1 -69.5t0 -45t-5 -32.5t-14 -31q-11 -20 -17.5 -27.5t-22.5 -18.5q-7 -2 -18 -15.5t-25.5 -29t-31 -27.5t-34.5 -10l-17 2q-33 4 -57.5 11t-43.5 23q3 -2 -6 6.5t-20.5 22t-22 27.5t-10.5 22q0 14 11 29.5t15 16.5z" />
    <glyph glyph-name="K" unicode="K" horiz-adv-x="508" 
d="M320 385v-9q7 0 13.5 -17.5t13 -44t14 -57.5t16.5 -58t20 -45t25 -18q6 0 16 8t20.5 18t20 18t13.5 8q6 0 6 -10q0 -4 -0.5 -9t-0.5 -7q0 -5 5.5 -10.5t5.5 -7.5q-3 -10 -17.5 -29.5t-34.5 -39t-43 -33.5t-43 -14q-43 0 -75 53q-14 24 -21 39.5t-11.5 32t-8.5 38.5
t-12 59q-12 52 -27 52q-9 0 -22 -16t-13 -27q0 -3 0.5 -7t1.5 -10v-118q0 -63 -3 -66q-9 -22 -16 -33.5t-13 -17t-11.5 -6.5t-12.5 -1q-3 0 -8.5 6t-12.5 13t-14.5 13t-14.5 6h-14q-9 20 -9 22q0 8 9 27.5t9 38.5v21t-1 21q-1 16 -1.5 25t-0.5 11t0.5 28t2 57t2.5 57.5
t3 29.5q3 12 3 14l-5 24l4 32l10 118l-4 27q-3 18 -7.5 32.5t-4.5 22.5q3 13 10.5 20t16 10t16.5 3.5t11 0.5q7 0 19 1t21 1q8 0 13 -2t21 -15l8 -27l-4 -11l3 -15q1 -8 -6 -30.5t-11 -83.5l-4 -51q-1 -13 -3.5 -20.5t-2.5 -10.5q0 -5 5 -15t7 -10q8 0 31.5 28.5t48 62
t43.5 61t17 25.5q15 21 26 34t18 22t10.5 16t3.5 16q0 2 -2 5t-2 5q0 5 18 8l6 2l10 -2q-1 0 7.5 4t16.5 4q17 0 25.5 -2.5t12.5 -8t5 -14.5t4 -23q1 -5 9 -14.5t8 -10.5l-1 -8l1 -11l-19 -15t-53 -55l-42 -50q-30 -35 -49 -56.5t-25 -28.5z" />
    <glyph glyph-name="L" unicode="L" horiz-adv-x="444" 
d="M182 110q27 6 40 6q2 0 18 -1t48 -4l24 -2q18 -2 34 11t29.5 29.5t24 30.5t18.5 14q4 0 10 -10t6 -17q0 -8 -8 -23t-25 -63q-6 -17 -9 -27t-7 -15.5t-12.5 -9t-24.5 -8.5q-24 -7 -51 -15t-51 -8q-15 0 -36 3t-40 6.5t-32 6.5t-12 4l-44 -22q-10 -6 -14 -6q-8 0 -23 3
t-29.5 10.5t-25.5 19.5t-11 29q0 41 25.5 49.5t63.5 8.5q16 0 26 30.5t15 79t7 108.5t2 118v45.5t1.5 34.5t5.5 31.5t12 36.5q5 14 16 27t22.5 24t21 18t11.5 7q13 4 30 4q24 0 52 -16q10 3 26 6.5t32 2t29.5 -10t20.5 -29.5l-2 -25l8 -78q2 -25 6 -39t4 -21q0 -22 -9 -36
l1 -12q0 -7 -19 -16t-31 -13q-4 0 -16.5 5.5t-19.5 5.5t-6 4l2 24q1 10 -5.5 30.5t-12.5 75.5q-3 33 -6.5 59.5t-25.5 26.5q-10 0 -17.5 -27t-12.5 -60.5t-7.5 -64.5t-2.5 -39q0 -3 1 -13t1 -26v-33q0 -8 -1 -33t-2.5 -53.5t-3 -53.5t-3.5 -33q-1 -5 -5.5 -14.5t-10 -20
t-11.5 -20.5t-9 -17z" />
    <glyph glyph-name="M" unicode="M" horiz-adv-x="702" 
d="M629 141l29 15q4 2 8 2t2 -4l-2 -19q9 -16 10 -16l14 1l2 -10q2 -8 -10.5 -22t-30 -27t-35 -22.5t-25.5 -9.5q-97 0 -97 187q0 21 3.5 54.5t8.5 69.5t10 70t8 56q-9 -20 -12 -29.5t-5 -17t-5 -16t-12 -25.5v-12q0 -9 -10.5 -37.5t-25.5 -67t-31 -81t-27 -78.5
q-14 -47 -21 -60.5t-19 -13.5q-2 0 -14 6t-26 15.5t-25 21t-11 23.5q0 4 3 15t4 27l1 39l6 45l4 60l10 77q2 13 3 30t2.5 32.5t3 26.5t3.5 12q-4 -3 -8.5 -16t-10 -30.5t-11 -37t-10.5 -34.5q-40 -116 -61 -196.5t-21 -129.5q0 -6 -10 -16l-6 -6q-14 -14 -33 -7t-37 25.5
t-31 45.5t-13 54q0 11 2 57t5 99t6 99t4 57l6.5 45.5t2.5 24.5v10t-8 8q-9 0 -10.5 6.5t0.5 15.5t5 19.5t3 18.5l-2 42q-1 19 7 29.5t11 33.5q2 11 9 10.5t33 2.5l34 4q23 -2 38.5 -16.5t15.5 -25.5l-8 -18q-13 -13 -15 -60t-9 -106q-9 -75 -18 -198q-2 -22 -3 -39t-1 -28
q11 40 16 54.5t9.5 26t11.5 31.5t23 71l34 108l22 66q7 21 12 35.5t12.5 24t20 13.5t33.5 4q5 0 12 -4q1 -1 10 -3t18.5 -6t17.5 -10.5t6 -15.5l-1 -14l5 -13q-9 -7 -10.5 -19t-7.5 -50q-2 -10 -5.5 -50.5t-8 -85.5t-9.5 -81t-9 -37q3 1 7 11t8 22t7.5 23.5t4.5 15.5
q2 6 10 29t19 54t23 65t22.5 63t17 48l6.5 19l3 16l1.5 7.5l0.5 2.5l-2 23q-1 8 4 15t22 18l25 16l9 2l21 2q9 1 20.5 -7t21.5 -19t17 -22t7 -16q0 4 -7 -20.5t-15.5 -58t-16.5 -66.5t-10 -47q1 4 -1.5 -24t-5.5 -62.5t-6 -62.5t-3 -24q0 -101 12 -111q15 -11 19 -17z" />
    <glyph glyph-name="N" unicode="N" horiz-adv-x="520" 
d="M358 530q-15 -21 -23.5 -35.5t-16.5 -34t-18.5 -49t-29.5 -79.5q-28 -75 -49.5 -150t-39.5 -148q-7 -29 -11 -35t-17 -7l-14 -2l-13 3l-12 -4q-2 -1 -10 9.5t-17 23t-16 24.5t-7 14l4 90l6 96q3 57 4 83t1.5 42.5t2.5 33.5t8 55q1 7 1.5 13t0.5 11t-1.5 8.5t-9.5 3.5
q-4 0 -12 14t-8 17q0 8 4 15q6 16 9 39t10.5 44t23 36t46.5 15q8 0 12 -4q16 -10 21 -8t10 2q11 0 19 -14.5t8 -22.5q0 -7 -2.5 -20t-8.5 -33q-14 -50 -21 -91.5t-11 -84t-6 -91.5t-6 -115q7 19 22 62.5t37 113.5q30 71 50.5 118.5t33.5 70.5q16 31 25.5 50t11.5 25
q14 35 24 46.5t28 11.5q4 0 15 -4t23.5 -9.5t22.5 -11t13 -7.5q-1 1 1.5 -7t5.5 -18t5 -18t0 -7q0 -8 -7 -8q-8 0 -16.5 -22t-15.5 -56t-13 -74.5t-10 -77t-6.5 -64t-2.5 -34.5q0 -128 34 -128q11 0 25 13t17 13q6 0 6 -7q0 -2 -1 -8t-2 -5l1 -8q1 -4 -2.5 -9.5t-3.5 -6.5
q0 -10 10 -12t10 -10q0 -6 -11 -18.5t-27.5 -25.5t-36 -22.5t-37.5 -9.5q-42 0 -64 46.5t-22 135.5q0 41 1.5 68.5t5.5 53t10.5 56t16.5 76.5q8 38 12 64z" />
    <glyph glyph-name="O" unicode="O" horiz-adv-x="487" 
d="M122 646q1 0 7 -3l10 -5l15 4l6 -1q-3 0 11 7t33.5 15.5t39 15t26.5 6.5q44 0 85 -27.5t61 -69.5q16 -34 26 -90.5t10 -111.5q0 -123 -25 -201q-8 -25 -20.5 -50t-20.5 -33q-4 -4 -16.5 -21t-31.5 -35.5t-42.5 -33.5t-49.5 -15q-28 0 -64.5 14.5t-63.5 34.5
q-16 11 -31 33t-26.5 49t-18 56t-4.5 55l4 75q2 44 8 99t23 128q7 25 7 35l-1 32q0 17 10.5 24.5t32.5 13.5zM291 611l-12 -1q-13 -2 -19.5 -1.5t-9.5 0t-4.5 -2.5t-6.5 -7q-37 -40 -49 -119q-1 -5 -1.5 -6.5t-8.5 -3.5q-6 -3 -11 -28.5t-8 -57.5t-5 -64t-2 -48
q0 -28 1.5 -55t5.5 -51q1 -8 5 -22.5t9.5 -29t12 -25t12.5 -9.5l14 2q51 8 77.5 47.5t44.5 104.5q15 54 15 142q0 79 -15 148q-3 15 -5 22.5t-5 13.5t-8 14t-14 24q-7 11 -7.5 12t-5.5 1z" />
    <glyph glyph-name="P" unicode="P" horiz-adv-x="461" 
d="M90 534q1 0 -5.5 -5t-16.5 -10.5t-20 -10.5t-16 -5q-2 0 -11 7t-19 18t-18 24.5t-8 27.5q0 9 34 26.5t81.5 35t97.5 30.5t83 13q45 0 79.5 -19.5t50.5 -53.5q5 -13 7 -15l13 -13q6 -6 12.5 -19.5t11 -29.5t7.5 -31t3 -24q0 -22 -10 -54t-25 -57q-11 -19 -32.5 -40.5
t-47.5 -40t-53.5 -30.5t-51.5 -12q-3 0 -10.5 2.5t-14.5 6l-13 6.5l-6 3q-3 0 -6 -6t-2 -12l2 -48v-41v-47.5t1.5 -27.5t5 -17t9.5 -16q2 -2 2 -7q0 -14 -15 -29.5t-29 -15.5q-13 0 -24.5 7t-17.5 18q-3 6 -11 10.5t-16.5 9t-15 10t-6.5 12.5q0 2 5.5 6t5.5 8q0 7 -1 15
t-1 14v32t2 39q5 53 6 104q2 48 4 101t6 111q1 6 1.5 12t0.5 12q0 16 -8 16zM189 564q9 -4 16 -11t7 -11q-3 9 -7 -18t-7.5 -63.5t-5.5 -68.5t-2 -34q0 -18 13 -18q16 0 42 14.5t51 36.5q38 34 55 67.5t17 73.5q0 33 -20.5 48.5t-46.5 15.5q-28 0 -112 -32z" />
    <glyph glyph-name="Q" unicode="Q" horiz-adv-x="496" 
d="M322 38q45 -2 66 -6q11 -2 21 -13.5t18 -26t13 -28.5t5 -20q0 -8 -7 -8q-8 0 -17.5 7t-16.5 7q-10 0 -33 -6q-11 -3 -34 -6.5t-61 -11.5q-45 -9 -73 -15t-42 -6q-9 0 -22.5 9.5t-26 22.5t-21.5 25t-9 18q0 4 4.5 8.5t8.5 4.5l33 -3q3 0 13.5 3t23.5 7.5t25.5 8t17.5 5.5
q-18 6 -33.5 10t-31.5 12t-33 24.5t-38 47.5q-15 23 -22 35t-10 24t-3 28.5t-1 48.5l-2 51l6 41v28q0 16 10 54q22 88 34 133.5t9 50.5l1 10q1 4 -0.5 7t-1.5 5q0 3 4.5 7.5t10 9.5t9.5 8l4 3l10 -2q8 -2 17 2l9 4q2 0 6.5 -1t6.5 -1q5 0 19 12.5t20 12.5l14 -1q10 -1 17 3
t11 4q34 0 53 -2.5t30 -8.5q19 -10 32 -18t22 -17t16 -19.5t15 -25.5q42 -80 42 -206q0 -26 -2 -58t-7 -70q-2 -15 -5 -21.5t-6.5 -13t-7 -17t-7.5 -34.5q-3 -21 -14.5 -42t-26.5 -39t-31.5 -32.5t-30.5 -22.5zM274 617q-21 1 -34.5 -18.5t-22.5 -44t-16 -46.5t-16 -26
l-3 -12q-4 -15 -6.5 -22.5t-4.5 -13t-3.5 -11.5t-3.5 -17q-15 -108 -15 -144q0 -60 9 -114q4 -26 18.5 -49.5t25.5 -23.5q6 0 15 2.5t21 2.5q22 0 44.5 30.5t38.5 82.5q7 22 12 52.5t9 63t6 64t2 55.5q0 23 -4.5 55.5t-13.5 62t-23.5 50.5t-34.5 21z" />
    <glyph glyph-name="R" unicode="R" horiz-adv-x="515" 
d="M90 536l-12 -8t-19.5 -12.5t-20 -12t-12.5 -5.5q-10 0 -16.5 11.5t-6.5 29.5q0 11 3.5 19t3.5 15q0 1 -3 8t-3 10q0 2 27 17.5t70 33.5t96 32.5t105 14.5q57 0 84 -29q2 -2 7 -8.5t12 -15.5t14 -17.5t13 -14.5q26 -28 40 -44t14 -44q0 -22 -7 -49.5t-19.5 -54t-30 -48.5
t-38.5 -34q-17 -10 -20 -12.5t-8 -11.5l-6 -8q7 -7 10 -15.5t5 -25.5q9 -50 47 -107q13 -20 22 -31t20 -11q3 0 14 4.5t17 4.5q4 0 4 -5q0 -12 2 -15.5t4.5 -4t4.5 -1.5t2 -9q0 -13 -9.5 -24t-23.5 -19.5t-29.5 -13.5t-26.5 -5q-28 0 -56.5 20t-49.5 54l-60 153
q-6 33 -14 33h-23q-11 0 -18.5 -9t-7.5 -21v-6q0 -9 0.5 -19t0.5 -20q0 -6 -0.5 -11t-0.5 -8q-3 -42 -3 -44l4 -39l-4 -23q0 -2 5 -7.5t5 -8.5v-12q0 -4 7 -10.5t7 -9.5q0 -4 -2 -6t-2 -4l6 -10l-8 -6l-14 -6q-13 -5 -23 -6t-9 -1q-1 0 -14.5 8t-29.5 19.5t-29 24t-13 21.5
q3 5 5.5 14t2.5 18l-2 51l5 101l1 58q1 23 3.5 37.5t2.5 18.5q0 2 -1 14t-2 30.5t-1 30.5q0 14 3 38t3 41q0 9 -4 18zM205 574l-12 -6q21 -8 21 -19q0 -2 -5 -6t-5 -13q0 -20 -4 -43t-4 -51q0 -50 -4 -53q-2 -5 -2 -9v-7q0 -7 6 -13.5t14 -6.5q22 0 53 19.5t59.5 48.5
t48.5 63.5t20 65.5q0 25 -16 41t-41 16q-9 0 -27 -2t-37.5 -6t-37.5 -8.5t-27 -10.5z" />
    <glyph glyph-name="S" unicode="S" horiz-adv-x="458" 
d="M250 610q-17 0 -35.5 -6t-34.5 -18.5t-26 -31t-10 -42.5q0 -26 17 -49.5t46 -46.5t67.5 -47.5t80.5 -52.5q35 -22 55 -57t20 -73q0 -12 -1.5 -19.5t-4.5 -14.5t-8.5 -16t-13.5 -24q-9 -16 -14.5 -25.5t-10.5 -16.5t-13 -13.5t-21 -16.5q-51 -39 -123 -39q-84 0 -137 50
q-21 20 -38.5 52.5t-17.5 51.5q0 6 10.5 12.5t10.5 13.5q0 1 -1 5t-1 6q0 18 16 18q4 0 15 -9t15 -23q6 -16 22 -29.5t36.5 -23.5t44 -15.5t45.5 -5.5q26 0 52 5t30 23l9 44q0 8 -17.5 23.5t-41.5 34t-49.5 35.5t-42.5 28q-86 54 -113 98q-27 42 -27 97q0 62 28 103t88 66
q14 6 22 8.5t16 3.5t20 2t34 3q32 -3 47.5 -9.5t20.5 -6.5l21 6q3 1 14 -15t22.5 -41.5t21 -56.5t9.5 -60q0 -1 -6 -7.5t-15 -13.5t-19.5 -13t-19.5 -6q-3 0 -6 0.5t-6 0.5q-10 3 -15 3t-8 2t-6.5 9.5t-10.5 25.5q-6 12 -10 31t-8.5 37.5t-9.5 32t-14 13.5z" />
    <glyph glyph-name="T" unicode="T" horiz-adv-x="346" 
d="M125 558h-31l-37 2q1 0 -9.5 -2.5t-17.5 -2.5q-9 0 -8 9v13q0 23 -9.5 38t-9.5 35q0 5 10 14.5t15 9.5l38 -3q2 0 28 4.5t48 4.5h74q19 0 34.5 1t27.5 1q33 0 47 -12.5t14 -52.5q0 -5 -2.5 -13t-6.5 -17l2 -15q0 -2 -4 -7t-6 -5l-7 2t-11 2h-10q-20 0 -34.5 -2.5
t-14.5 -21.5q0 1 -3.5 -30.5t-8 -73.5t-8 -84t-3.5 -61v-59.5t1.5 -69.5t5 -67t11.5 -52q-2 3 -1.5 -4t-3.5 -16.5t-15 -17.5t-34 -8q-6 0 -14 6.5t-18 7.5l-10 9l-15 7l-9 13q-10 16 -14 14t-4 8q0 8 5 12.5t5 27.5q0 48 2 101.5t5 112.5q2 48 3.5 81t2.5 49q1 72 6 77
q3 13 3 26q0 7 -9 9z" />
    <glyph glyph-name="U" unicode="U" horiz-adv-x="542" 
d="M340 164q-4 -15 -6 -21.5t-4 -10t-5 -7.5t-10 -15q-17 -26 -23.5 -38.5t-12 -19.5t-13 -12.5t-26.5 -17.5q-14 -9 -22 -15t-17 -6q-19 0 -46 13.5t-44 33.5q-47 53 -47 192q0 2 3 37.5t7 79.5t7 84.5t3 52.5q0 4 -3.5 11.5t-7.5 15t-7.5 14t-3.5 9.5q-4 -12 -1 8.5t10 50
t16 55.5t17 26q1 0 9 -4t13 -4q11 0 27 3t19 3q17 0 30.5 -13t13.5 -29q0 -4 -1.5 -9t-1.5 -7t3.5 -8.5t3.5 -9.5q0 11 -3 -3t-8 -44.5t-10 -73.5t-10 -89t-8 -90.5t-3 -79.5q0 -42 14.5 -72t43.5 -30q18 0 40.5 25t32.5 69q6 26 14 75t15.5 102.5t12.5 102.5t5 74
q0 14 -2 24.5t-2 19.5q-2 -2 0 2.5t4.5 11.5t5 13.5t2.5 8.5t-0.5 2t-0.5 2q-1 6 2 12.5t11 6.5q13 0 30 -10.5t24 -10.5q2 0 13 2t15 2q10 0 19.5 -10t8.5 -18l-2 -23l2 -20q1 -12 -4 -33.5t-11.5 -47.5t-12 -53t-6.5 -50q-2 -35 -3 -54.5t-5 -31.5l1 -33q1 -18 -2.5 -29
t-3.5 -15q0 -50 11 -81t29 -31q5 0 11 4t10 4t4 -4q0 -2 -2 -6.5t-2 -6.5q0 -5 12 -20l2 -9q1 -3 0.5 -5t-0.5 -3v-4q0 -4 -10.5 -12.5t-24.5 -17t-28 -14.5t-21 -6q-23 0 -37.5 9t-24 26.5t-15.5 43t-13 57.5z" />
    <glyph glyph-name="V" unicode="V" horiz-adv-x="481" 
d="M398 233l-6 1q-3 -29 -12.5 -53.5t-34.5 -64.5q-40 -66 -76 -78q-21 -8 -31.5 -22.5t-31.5 -14.5q-3 0 -15.5 5t-27.5 13t-29 16.5t-20 16.5q-25 32 -40.5 80t-15.5 94q0 14 2 64.5t9 137.5q2 32 5.5 53t3.5 34q0 7 -10 16t-10 26l3.5 11t7 25.5t6.5 28t3 19.5l-1 20
q0 3 8.5 6.5t18.5 6.5t18.5 5t7.5 3l45 -10q17 -4 24 -4.5t9.5 -3.5t3 -11.5t4.5 -28.5q-1 -26 -0.5 -32t-15.5 -14l4 -27q2 -7 -8 -24.5t-10 -44.5q0 -9 -2 -36.5t-5 -62t-5 -69t-2 -56.5q0 -92 26 -130q9 -12 24.5 -25t23.5 -13q16 0 33.5 21.5t31 52.5t22.5 66.5t9 63.5
q0 16 -3.5 38l-7 44t-7 41.5t-3.5 30.5l1 66l-5 28q-5 26 -6 32t-1 12q1 12 15 31t26 31l14 14l21 -6l14 -2l18 4q8 -2 12 -23t5.5 -48t2 -52.5t0.5 -34.5v-46q0 -12 -2 -26t-4 -30l-4 -36q-2 -14 -4.5 -20.5t-2.5 -8.5q0 -16 8 -45q1 -5 8 -9.5t7 -12.5q0 -1 -4.5 -6.5
t-10.5 -11.5t-12.5 -11t-10.5 -5h-2t-6 1z" />
    <glyph glyph-name="W" unicode="W" horiz-adv-x="692" 
d="M614 275q-4 -16 -11.5 -41.5t-18 -51t-22.5 -46.5t-24 -28q-2 0 -12 -18q-6 -12 -18 -23.5t-25.5 -21t-26 -15t-20.5 -5.5q-24 0 -42.5 13t-32 34.5t-22 48.5t-13.5 55q-9 -22 -14.5 -34.5t-11 -22.5t-13.5 -20.5t-22 -28.5q-25 -32 -39 -51.5t-32 -20.5q-3 0 -9.5 1
t-9.5 1q-6 0 -30 -7q-1 1 -6.5 3.5t-15.5 7.5t-21.5 24.5t-21.5 45.5t-16 54.5t-5 51.5l3 50q3 45 3 61.5t1 28t2.5 30t7.5 66.5q2 16 3 29t1 23v36q0 11 4 18l-10 11l-4 20q-1 4 -2.5 6t-1.5 4q0 3 2 14.5t5 26.5t7 30.5t8 25.5l-2 20q0 5 9 5q3 0 8 -0.5t9 -0.5
q3 0 10 1.5t20 3.5l14 -1q22 -2 28.5 -3t13.5 -11q15 -20 19 -29t3.5 -13.5t-4 -7t-3.5 -10.5q0 -3 0.5 -8.5t0.5 -9.5t-5 -9t-5 -13q0 -22 -5 -49t-6 -43q-2 -29 -3.5 -43t-2.5 -23l-2 -18t-3 -30l-2 -29q-3 -47 -5 -73.5t-2 -31.5q0 -38 3.5 -63.5t9.5 -40.5
q4 -9 13.5 -18t14.5 -9q8 0 17.5 10.5t18 24t15 27t9.5 19.5q6 17 12.5 55.5t13 85t11.5 95t7 84.5l2 36l-4 22l1 20l-1 11q0 7 8 14t24 7q4 0 18.5 4t23.5 4q4 0 20.5 -6.5t29.5 -13.5q-1 0 3.5 -8.5t8 -20.5t2 -25t-13.5 -22q-3 -2 -6.5 -24.5t-6.5 -50t-5 -54t-2 -35.5
q0 -5 1 -28.5t2.5 -50.5t3.5 -50.5t3 -28.5q15 -80 50 -80q16 0 31 26.5t27 61t19 67.5t7 45q0 16 -3 51.5t-6.5 75t-6.5 75t-3 51.5q-3 21 -3 33q0 6 7.5 17.5t18 23t23 20.5t21.5 9q28 0 39.5 -24t19.5 -50q0 -8 -6 -39t-13.5 -67.5t-13.5 -70.5t-6 -46q0 -15 4 -31t8 -29
t8 -20t4 -5q0 -1 -14 -12.5t-22 -11.5q-4 0 -6 1z" />
    <glyph glyph-name="X" unicode="X" horiz-adv-x="492" 
d="M298 351q4 -16 13.5 -40t19.5 -47t18 -39.5t9 -17.5q8 -9 15 -22.5t15.5 -26t18.5 -21.5t23 -9q3 0 11.5 4t17.5 9t17 9t10 4q1 0 4 -2.5t3 -3.5l-4 -16l5 -7.5t5 -9.5l-4 -15t-17 -32.5t-36 -32.5t-62 -15q-13 0 -29 9t-31.5 21.5t-28.5 27t-19 24.5q-2 2 -7.5 16
t-14 32t-18.5 37.5t-19 33.5q-25 -31 -43 -67.5t-40 -105.5q-8 -25 -22 -35.5t-30 -10.5q-4 0 -8 5.5t-7 12.5t-7 12.5t-8 5.5t-11 -2t-11 -2q-11 0 -11 14q0 18 11 38l42 59l45 67q24 36 39.5 59t21.5 33q-4 11 -9.5 22.5t-10.5 23.5t-13 34t-18 47t-22 48.5t-24 38.5
l-8 -8q-1 -1 -4 -7.5t-6.5 -14t-7 -13.5t-5.5 -6q-3 0 -11.5 4.5t-17.5 12.5t-16.5 19t-7.5 25q0 4 19 29.5t31 63.5q6 21 22 34.5t33.5 19.5t32.5 5t19 -10q0 -1 6 -6t12.5 -11t10.5 -12t1 -9l-8 -28q1 3 13.5 -31t37.5 -85q1 -1 5.5 -13t10 -25.5t11 -24.5t8.5 -11
q-4 -1 20 29.5t72 125.5l26 53q6 12 17.5 31.5t38.5 19.5q10 0 18.5 2t9.5 1h14q8 0 9 -1.5t1 -16.5q0 -14 15 -38q-16 -7 -26 -17t-21.5 -28t-27 -44.5t-43.5 -66.5q-31 -44 -52.5 -73t-30.5 -42z" />
    <glyph glyph-name="Y" unicode="Y" horiz-adv-x="470" 
d="M254 412l12 -22q8 14 27 47.5t38.5 70.5t35.5 70.5t18 47.5q5 29 30 41.5t63 12.5q9 0 10.5 -3.5t1.5 -20.5q0 -2 6.5 -11.5t6.5 -14.5q-1 -2 -9.5 -14.5t-22 -34t-25.5 -39.5q-18 -28 -43 -82q0 -4 -11 -22t-26.5 -42t-32.5 -51t-29 -49q-6 -11 -7 -35.5t1 -75.5l4 -80
q2 -33 6.5 -48t4.5 -25q0 -9 -25 -18q-4 -1 -14 -8t-12 -6l-26 8q-9 3 -20.5 11t-22 17.5t-17.5 18t-7 11.5q0 10 3.5 17t7.5 17.5t7 28t1 47.5l-2 40q-1 17 1.5 28t2.5 15v13l-12 20l-33 66q-13 26 -22 43.5t-14 28.5q-7 18 -11.5 30t-8.5 21t-10 17t-17 17l-8 -9
q-10 -10 -11.5 -25.5t-10.5 -15.5q-11 0 -24 13q-13 9 -25.5 21.5t-4.5 29.5q0 -11 8 13.5t22 57t35 60.5t46 24l21 -3q2 -1 13.5 -6t25 -14.5t13.5 -18.5l-6 -30q15 -19 27 -64q5 -21 24 -50.5t47 -85.5z" />
    <glyph glyph-name="Z" unicode="Z" horiz-adv-x="423" 
d="M213 234l-53 -94l-14 -22q10 -2 16.5 -2h9.5q-1 0 23.5 1t52.5 1q9 0 33 -4t58 -4q10 0 23.5 3.5t21.5 3.5q10 0 16 -19t6 -34q0 -3 -4.5 -11.5t-4.5 -18.5q0 -2 4.5 -6t4.5 -9q0 -15 -20 -15q-4 0 -12 0.5t-12 0.5t-25.5 -4t-59.5 -4q-25 0 -73 10.5t-102 10.5
q-6 0 -24.5 -8t-39.5 -8q-15 0 -28.5 9t-13.5 19q0 5 5 14t3 8q0 3 -6 13.5t-6 18.5q0 12 7 24t31 41q15 18 21.5 29.5t13 25t17 32.5t32.5 53l40 61l45 84q15 28 26.5 49.5t18.5 36.5q8 20 16 28t8 14q0 3 -4 5.5t-9 1.5l-169 -15q-4 0 -6.5 1t-3.5 1l-37 -4q-2 0 -6.5 6
t-4.5 10l3.5 6.5t3.5 13.5q0 8 -4.5 23.5t-4.5 21.5q0 11 3 17l-3 16q-2 6 12 6q13 0 25.5 -3.5t26.5 -3.5q8 0 44 3.5t71 4.5q11 0 36 2t64 6q23 -2 37 -3.5t18 -1.5t13 1t15 1q12 0 12 -11q0 -5 -5 -12t-5 -9q0 -4 7 -12t7 -12t-1.5 -8t-1.5 -8q0 -3 3.5 -10t3.5 -10
q0 -6 -7.5 -20t-18.5 -32t-24 -38.5t-23 -39.5q-22 -43 -33.5 -65.5t-18 -34t-10 -17.5t-9.5 -16.5t-17.5 -30t-33.5 -58.5z" />
    <glyph glyph-name="bracketleft" unicode="[" horiz-adv-x="274" 
d="M269 13l-3 -19v-16l2 -10q0 -2 -8 -5.5t-16 -3.5q-3 0 -9 7l-7 2q-14 4 -15 7t-13 3q-10 0 -14.5 -3t-30.5 -9l-25 -6q-20 -5 -23 -6l-13 4q-18 4 -18 6l2 15q0 -1 -5 5.5t-11.5 15.5t-12 19.5t-5.5 17.5q0 -2 0.5 8t1 25.5t1.5 33.5t1 32l3 126l3 37l-4 138
q-1 38 -1.5 62.5t-0.5 34.5q-1 4 -2.5 27t-1.5 51v52q0 17 19 26.5t44 9.5q4 0 8 -1t10 -1h75q7 0 13.5 -0.5t14.5 -1.5h20l6 -3q16 -7 14 -10t-2 -25l2 -20q0 -5 -9.5 -17.5t-13.5 -12.5q-12 0 -27.5 2t-23.5 2q-6 0 -17.5 -1t-16.5 -1q-8 0 -14 1.5t-6 -11.5q0 -6 2 -16.5
t2 -17.5l-1 -126q0 -39 1 -59t1 -21l-2 -299q0 -3 -1.5 -4.5t-1.5 -2.5q0 -10 12 -10q4 0 14 3t14 3h26q2 0 8 -2t10 -2q3 0 11.5 1t9.5 1q4 0 8.5 -6.5t8 -13.5t5.5 -12.5t2 -2.5z" />
    <glyph glyph-name="backslash" unicode="\" horiz-adv-x="409" 
d="M48 682q25 0 28 -16q-5 6 -0.5 -7.5t15.5 -38.5t26.5 -58.5t31.5 -68t30.5 -67t23.5 -54.5t25.5 -59t43.5 -90q27 -54 43 -86.5t20 -44.5q10 -24 15 -35.5t9 -20t9.5 -18.5t17.5 -30q4 -9 4 -16q0 -8 -6 -15t-13 -11.5t-14 -7t-8 -2.5q-8 0 -18.5 23.5t-25 60t-33 82
t-42.5 89.5q-21 37 -30 68q-2 8 -10 24l-20 40q-11 21 -24 48.5t-25.5 55.5t-23.5 52.5t-19 41.5l-38 81q-20 42 -20 46q0 34 28 34z" />
    <glyph glyph-name="bracketright" unicode="]" horiz-adv-x="274" 
d="M120 -30h-51q-5 0 -10.5 -0.5t-12.5 -0.5l-12 -1q-7 0 -12 -2t-10 -2q-6 0 -6 4q0 -1 1 3.5t1 7.5v12v13.5t-2 9.5q0 7 9 20.5t14 13.5q8 0 22 -2t17 -2l45 2q8 0 14 -2t6 12q0 6 -2 16.5t-2 16.5l2 125q1 40 -1 60t-1 20l2 300q0 2 1.5 4t1.5 3q0 11 -10 10l-33 -7
l-13 1l-10 -1q-2 0 -9 3t-9 3t-10.5 -1t-10.5 -1q-12 0 -18 11.5t-6 12.5q0 8 2 21t-1 33q0 1 6 5.5t17 4.5l2.5 -0.5l7.5 -1.5l7 -1q15 -3 38 -3q3 0 11.5 1.5t22.5 3.5l26 3q10 1 14.5 1t9.5 1l11 -4q9 -3 13.5 -3t4.5 -3l-2 -14l5.5 -5.5t12 -14.5t12 -19.5t5.5 -18.5
q0 -5 -1 -17t-2 -47l-3 -116l-2 -45q-1 -19 -1.5 -30.5t-0.5 -14.5q0 -8 0.5 -23.5t1.5 -38.5q0 -9 0.5 -26t1.5 -42q1 -40 1.5 -64t0.5 -33l1 -21q1 -52 3 -57v-31q0 -26 -11.5 -42t-51.5 -16q-9 0 -23 7.5t-24 8.5z" />
    <glyph glyph-name="asciicircum" unicode="^" horiz-adv-x="512" 
d="M372 365l-116 230l-116 -230h-120l162 321h148l162 -321h-120z" />
    <glyph glyph-name="underscore" unicode="_" horiz-adv-x="512" 
d="M512 -126h-512v74h512v-74z" />
    <glyph glyph-name="grave" unicode="`" horiz-adv-x="512" 
 />
    <glyph glyph-name="a" unicode="a" horiz-adv-x="368" 
d="M194 100q-4 -6 -13.5 -23t-22 -35t-28.5 -32t-32 -14q-40 0 -63 40t-23 91q0 31 6 73t16 94q3 15 16.5 49t36 61t53 34.5t68.5 -30.5q5 -5 9 -5q3 0 18.5 -2t33 -7.5t31.5 -14.5t14 -23q0 -2 -4 -9.5t-4 -9.5v-19q0 -20 -13 -59t-13 -85q0 -20 7.5 -42.5t20.5 -22.5
q9 0 21 13t22.5 28.5t18 28.5t8.5 13q4 0 4 -6q0 -4 -1 -11.5t-1 -14.5q0 -5 0.5 -11.5t0.5 -8.5q0 -5 -8 -21.5t-23.5 -34.5t-37.5 -32t-50 -14q-14 3 -33.5 15t-34.5 47zM176 376q-4 0 -14.5 -22.5t-22 -56.5t-20.5 -75t-9 -77q0 -19 5.5 -42t16.5 -23l8.5 11t18 27.5
t17.5 36.5t8 38l4 12l1 20q1 15 7.5 40.5t9 50t-2.5 42.5t-27 18z" />
    <glyph glyph-name="b" unicode="b" horiz-adv-x="312" 
d="M198 108q-4 -8 -13 -24t-20.5 -32t-25.5 -28t-29 -12q-16 0 -34 7.5t-32.5 22.5t-24 38.5t-9.5 55.5v16t2 16q2 21 2 33.5v15.5v53q0 10 4.5 53t10 92t10.5 90t6 47q1 1 1 14q0 4 -3.5 18.5t-3.5 29.5q0 4 3.5 13t11.5 18.5t23 16.5t37 7q4 0 13 -3.5t17.5 -8.5t14 -11
t3.5 -11v-15q0 -2 3 -6t3 -5l-1 -7l1 -8q0 -2 -10 -13q-3 -1 -6.5 -21.5t-8.5 -56t-13 -84t-18 -106.5q-4 -23 -7 -36t-3 -17q0 -6 0.5 -25t1.5 -40.5t2.5 -40t2.5 -24.5q6 -34 27 -34q4 0 10 8t12 19.5t10 25t4 23.5q0 11 -2.5 26t-2.5 44q0 66 -12 86q-7 14 -12 21t-5 9
t6.5 10t15.5 16t19.5 14.5t17.5 6.5l11 -1l8 1q4 0 12.5 -8t16 -19t13.5 -21t6 -13l-4 -18v-12q0 -20 -0.5 -30.5t-2 -17.5t-3.5 -12.5t-6 -14.5q-2 -2 -6 -16.5t-8 -30.5t-7 -29t-3 -12q0 -6 5 -12.5t18 -6.5l21 -4q11 -1 54 54q4 0 4 -8q0 -7 -1 -14.5t-1 -15.5v-21
q0 -6 -8 -14.5t-19.5 -16t-23 -12.5t-19.5 -5q-11 0 -19.5 5.5t-36.5 27.5z" />
    <glyph glyph-name="c" unicode="c" horiz-adv-x="282" 
d="M230 239q-12 0 -24 -4.5t-14 -4.5q-30 0 -30 89v15.5t1 13.5q1 9 1 16.5v11.5q0 10 -9 10q-8 0 -16 -25t-14.5 -59.5t-10.5 -72t-4 -62.5q0 -33 15 -62t43 -29q3 0 36 11l12 11l14 10l25 25q10 10 21.5 24t13.5 14q6 0 6 -41q0 -19 -12 -36.5t-27 -31t-30 -22.5t-21 -12
q-7 -2 -19 -7t-24.5 -10.5t-23 -9.5t-13.5 -4q-25 0 -45.5 11.5t-35.5 30t-23 41t-8 44.5q0 57 3 98.5t11 69.5q2 8 6 28t10.5 40.5t15 36.5t19.5 16q13 0 32 10.5t67 10.5q13 0 22 -6.5t20 -10.5l5 -3q6 -4 10 -6t7 -8t4.5 -20t1.5 -41q0 -28 3 -50t3 -39q0 -16 -11 -13.5
t-13 2.5z" />
    <glyph glyph-name="d" unicode="d" horiz-adv-x="378" 
d="M206 104q-12 -12 -24.5 -28.5t-25.5 -32t-27 -26t-29 -10.5t-31 13t-28.5 32t-20.5 41.5t-8 40.5q0 28 1 48t4 38t8 38t13 48q6 21 14.5 43.5t20 41t26 30.5t32.5 11l27 -1l12 1q6 0 17 -11q19 -24 21 -2.5t6 65.5l6 56v54q0 12 -8 19t-8 9q0 6 7 15t17.5 17t22 14
t20.5 5l21 -2l22 1q10 0 19 -15.5t9 -25.5q0 -9 -0.5 -16.5t-0.5 -13.5t-6.5 -12.5t-6.5 -8.5v-8q0 -2 -2 -15t-6 -37q-4 -27 -9.5 -71t-10 -91t-7.5 -91t-3 -71q0 -10 3 -22.5t8.5 -24t12 -19.5t13.5 -8q5 0 23 20l17 16q14 14 15.5 21.5t5.5 7.5q5 0 5 -11
q0 -5 -1.5 -11.5t-1.5 -12.5q0 -5 1.5 -10t0.5 -8q0 -13 -14 -29t-33.5 -30.5t-40.5 -24.5t-35 -10q-21 0 -40 21t-23 43zM181 374q-12 3 -23.5 -16.5t-20.5 -50t-14.5 -67t-6.5 -68.5t3.5 -53t16.5 -21q3 0 9 2h6q7 0 13.5 18.5t13 46t12 60t9 60.5t6 46.5l2.5 18.5
q0 7 -9.5 15t-16.5 9z" />
    <glyph glyph-name="e" unicode="e" horiz-adv-x="300" 
d="M58 413q13 1 38.5 11t63.5 13l32 3q13 2 27 -10t26 -31t19.5 -43t7.5 -46q0 -28 -9.5 -56t-24.5 -44q-29 -32 -39.5 -41t-22.5 -9q-5 0 -10 -2.5t-9 -2.5q-2 0 -15.5 2.5t-21.5 2.5q-9 0 -9 -12q0 -29 16.5 -50.5t38.5 -21.5q49 0 92 49q0 -1 13 14t24 29t13 16q4 0 4 -5
v-9v-26q0 -3 0.5 -7t0.5 -9q0 -14 -17 -37t-43.5 -44.5t-59 -37t-63.5 -15.5q-16 0 -31 8t-33 24q-29 26 -40.5 49t-11.5 64q0 33 1.5 58.5t4.5 49.5t8.5 50.5t13.5 60.5q4 16 8 30t8 25zM168 394l-8 4q-5 3 -13 -24.5t-15.5 -62t-13.5 -65.5t-6 -36q0 -4 9.5 -9t16.5 -5
q14 0 23.5 17.5t15.5 40.5t8.5 45.5t2.5 32.5q0 22 -6 45q-2 8 -4 10.5t-10 6.5z" />
    <glyph glyph-name="f" unicode="f" horiz-adv-x="256" 
d="M186 288q9 -22 12.5 -31.5t5.5 -18.5t4.5 -24.5t9.5 -49.5l2 -11l-2 -19v-40q0 -11 -2.5 -26t-6 -30t-7 -27t-6.5 -17q-9 -19 -14 -29t-9.5 -17t-11 -13.5t-19.5 -16.5q-7 -5 -13.5 -13.5t-20.5 -8.5q-24 0 -42.5 16t-30.5 40.5t-18.5 53.5t-6.5 54v44.5t1 71.5t4 70.5
t9 41.5q4 4 4 8q0 5 -7.5 16t-7.5 36q0 16 3.5 22.5t7.5 8.5t7.5 3t3.5 8q0 4 1.5 21t3.5 47l4 66l4 48q1 8 -6.5 16t-7.5 16q0 5 3 14q7 21 8 30.5t2.5 13.5t7.5 5t23 6l22 6l32 2l10 2q2 0 10 -11l9 -12q17 -21 14 -29.5t-11 -22.5q-7 -9 -14.5 -39.5t-14 -66.5t-10.5 -68
t-4 -43q0 -8 7 -7l12 3q15 4 23 4h17q12 0 21 -7.5t9 -18.5l-1.5 -5.5t-1.5 -7.5q0 -11 3 -16t6.5 -8.5l6.5 -6.5t3 -11q0 -20 -11 -20q-1 0 -6.5 0.5t-4.5 0.5q-8 0 -18 -3zM126 292q-4 0 -8 -12t-4 -28q0 -9 -1.5 -29.5t-3.5 -45.5t-3.5 -51t-1.5 -47q0 -26 1 -48.5
t3 -42.5q1 -12 6 -21.5t10 -9.5q21 0 29.5 32t10.5 70.5t0 71.5t-2 35l-4 23l-10 33q-10 32 -11 47.5t-11 22.5z" />
    <glyph glyph-name="g" unicode="g" horiz-adv-x="340" 
d="M186 84v10v8q-51 -67 -91 -67q-13 0 -27.5 7.5t-26.5 21t-20 31t-8 37.5q0 47 0.5 75.5t4.5 52t13 50t27 68.5q8 20 30 38t36 18q4 0 12 -3t16.5 -7t15.5 -8t8 -6l2 -2l8 9q4 5 11.5 6t5.5 1q1 0 6.5 -2t8.5 -2q4 0 14.5 5t15.5 5q-1 0 7 -3t18 -8t18.5 -12t8.5 -15
q0 -14 -7.5 -30t-7.5 -54q0 -17 -3.5 -31t-3.5 -23l4 -18l-1 -84q0 -5 1 -16t2.5 -24t2.5 -26t1 -22q0 -70 -22 -124q-3 -8 -18 -24t-34.5 -32.5t-38.5 -29t-31 -12.5q-39 0 -65.5 28.5t-23.5 86.5q0 7 2 9t12 4l19 11q3 1 6.5 -11t12 -27t25 -28t44.5 -13q14 0 15.5 23.5
t1.5 54.5q0 -1 -1 10t-2.5 27t-2.5 34t-1 33zM178 366h-9l-7 2q-6 -8 -15.5 -31.5t-18.5 -53t-15.5 -61t-6.5 -56.5q0 -22 6.5 -46t22.5 -24q16 19 26 49t16 63t9 65.5t5 57.5l3 13q2 5 -5.5 13.5t-10.5 8.5z" />
    <glyph glyph-name="h" unicode="h" horiz-adv-x="333" 
d="M100 196v-12v-8q0 5 10.5 26.5t19.5 53.5l18 57q6 18 10.5 28.5t7.5 18.5t4.5 15t1.5 16q0 2 -2 7.5t-2 7.5q0 8 21 17t37 9q2 0 11.5 -2t16.5 -2l6 -1t13.5 -4.5t14 -11.5t6.5 -22l-2 -11q-3 -16 -12 -50t-17 -72t-10.5 -71t8.5 -48q2 -3 10.5 -9t10.5 -6q6 0 12.5 11
t14.5 24t16 24t17 11q5 0 5 -6q0 -5 -0.5 -11.5t-0.5 -11.5v-29q0 -13 -13.5 -28.5t-32 -28.5t-37.5 -22t-29 -9q-32 0 -53 29.5t-21 74.5q0 10 6 34t6 59l-1 5l-9 -8l-16 -52l-22 -59l-8 -34l-6 -21q-5 -17 -4.5 -29t0.5 -20t-2 -12t-12 -5q-5 0 -14 -4.5t-10 -4.5
q-4 0 -24 17q-26 14 -29 45.5t-3 74.5q0 12 1 29t2 32.5t2 27l1 11.5l-4 65l0.5 4.5t1.5 12.5q2 6 5 46.5t6 88t5 88.5t2 47q0 4 -3 11t-3 8l2 11l-2 8l1.5 3t0.5 4l-3 26q0 2 7.5 5.5t19.5 7t26.5 6t26.5 2.5q6 0 14 -7.5t14.5 -17.5t11.5 -20.5t5 -16.5v-8q0 -3 -2 -6.5
t-2 -10.5q0 -6 -6 -15q-4 0 -8.5 -20t-8 -48.5t-6.5 -58.5t-4 -50l-5 -65q-1 -10 -2.5 -31.5t-3 -44.5t-3 -42t-1.5 -22z" />
    <glyph glyph-name="i" unicode="i" horiz-adv-x="191" 
d="M112 49l-14 1l-15 -2q-12 -2 -25 10t-23 29.5t-16.5 37t-6.5 33.5q0 10 1 26.5t2 32.5t2 29.5t1 17.5q0 18 5 38t8.5 38.5t3 35t-12.5 26.5l2 5v7q0 3 5.5 7.5t8.5 3.5l12 -1q8 5 18 8.5t28 3.5q1 0 9.5 -5t18 -12t17 -15t7.5 -14q0 -4 -5.5 -22t-12.5 -45t-12.5 -61
t-5.5 -70q0 -68 27 -68q15 1 26.5 17.5t20 30.5t13 15.5t4.5 -28.5l1 -27q0 -2 -8 -16l-4 -8l-14 -15l-9 -7l-19 -18l-10 -6q-19 -13 -28 -13zM108 498h-10l-17 -2q-7 -1 -16.5 5t-18 15.5t-14 19.5t-5.5 18q0 47 53 65l15 -3q29 -5 40 -21.5t11 -42.5q0 -11 -6 -20.5
t-13.5 -17t-13 -12z" />
    <glyph glyph-name="j" unicode="j" horiz-adv-x="191" 
d="M120 94q2 -15 2 -39.5v-59.5q0 -14 -7.5 -39.5t-16.5 -37.5q-41 -52 -65.5 -70.5t-51.5 -18.5q-23 0 -37.5 22.5t-14.5 56.5q0 27 18 63.5t59 96.5q3 6 5 11t3 11l-2 10v42l-2 76l5 76q2 38 2.5 57t0.5 21q0 5 -4.5 13.5t-4.5 19.5q0 6 8.5 11t19 9t20 6.5t11.5 2.5
l10 -2t22 -6t22 -10t10 -14q0 3 -3 -24.5t-7 -64t-7 -72t-3 -48.5q0 -31 12 -36.5t40 15.5l18 6q9 4 16 4q6 0 6 -10v-18q0 -11 -9 -17.5t-22 -12.5t-27.5 -12.5t-25.5 -17.5zM29 16q-3 -3 -10 -12.5t-15 -21.5t-14.5 -24t-8.5 -20q-6 -24 -8.5 -37.5t-2.5 -14.5q0 -6 6 -12
t12 -6q20 0 32.5 32.5t12.5 81.5q0 13 -4 34zM82 614q9 0 18 -5.5t16.5 -13.5t12.5 -16.5t5 -14.5q0 -11 -5 -25t-12 -26t-16.5 -19.5t-18.5 -6.5l-17 3q-23 4 -40.5 15t-17.5 34q0 30 21.5 52.5t53.5 22.5z" />
    <glyph glyph-name="k" unicode="k" horiz-adv-x="354" 
d="M226 218q8 -40 20 -66t40 -26q8 0 11.5 0.5t7 3.5t8.5 8.5l15 16.5l16 17q9 10 11 15.5t5 5.5q7 0 7 -15v-11t-1 -25q0 -7 -2 -9t-11 -15q-25 -35 -56 -53t-59 -18q-16 0 -25 3.5t-29 17.5q-19 14 -27 36t-12.5 42.5t-8 33t-13.5 6.5l-7 -1q-14 -4 -13.5 -18t-0.5 -45
l-1 -54q0 -15 6 -21.5t6 -28.5q0 -1 -16 -12t-25 -11l-9.5 4t-20 11t-19.5 16.5t-9 19.5q0 2 1 7t1 7q0 5 -2 15.5t-2 18.5l1 46q1 54 2 98.5t3 86.5t5 85t7 94q2 16 2 33.5v36.5q0 26 -2 35t-12 17l2 11q7 39 54 47h10l10 2q2 0 7 -1t10 -1q9 0 21 -8.5t12 -30.5l-4 -18
q0 1 3 -4.5l3 -5.5q0 -5 -5 -19t-9 -42q-7 -54 -12 -104t-8 -96q14 14 25 28.5t24 26t30.5 19t44.5 7.5q38 0 53.5 -22.5t15.5 -56.5v-14q0 -47 -25.5 -79.5t-53.5 -46.5zM189 366q-14 3 -31.5 -18t-30.5 -47.5t-17 -49t10 -22.5q17 0 32.5 11t27 28t18.5 36.5t7 35.5
q0 23 -16 26z" />
    <glyph glyph-name="l" unicode="l" horiz-adv-x="252" 
d="M105 193q-1 -7 -1 -13v-10q0 -24 12.5 -51t35.5 -27q7 0 12.5 4t13.5 4q7 0 21.5 19.5t29.5 39.5t26 31.5t11 -5.5l-0.5 -2.5l-1.5 -7.5l2 -25q0 -34 -17 -51t-30 -33q-11 -14 -17 -22.5t-12 -13.5t-13.5 -8t-21.5 -6l-41 -8q-6 -1 -17 4t-22.5 12t-21.5 14.5t-13 11.5
q-10 13 -19 39.5t-11 48.5q-1 8 -1.5 63t-0.5 155q0 10 3.5 44t8 73t9 73t7.5 44q9 30 9 42l-1 16q0 7 10.5 13.5t23.5 11t24.5 7l11.5 2.5q6 0 26.5 -5t41.5 -13q11 -5 20.5 -23t16 -41t10 -48t3.5 -44q0 -148 -127 -315zM104 274q63 96 63 219q0 8 -1 28t-4 53
q-4 46 -18 46q-6 0 -11.5 -23.5t-10 -59.5t-8 -79t-6 -81.5t-3.5 -67t-1 -35.5z" />
    <glyph glyph-name="m" unicode="m" horiz-adv-x="499" 
d="M178 256q-5 -15 -12 -25l-21 -71q-13 -48 -27.5 -76t-14.5 -60q0 -2 1 -9t1 -9q0 -14 -8 -17t-23 -3t-20 2.5t-13 17.5h-11q-9 0 -14.5 17t-5.5 45q0 58 1 95t3 52q4 33 6 50.5t2 20.5l-2 54q-1 12 1 18t2 8q0 4 -3.5 11.5t-3.5 6.5q0 17 13 22.5t24 5.5l7 2l8 -4l18 1
q1 0 8 -3t15 -8t14.5 -11.5t6.5 -12.5q-4 -5 -9 -19t-6 -36l-5 -71q-3 -40 -7 -66t-5 -36q6 15 16 42.5t20.5 55.5t19 52t10.5 33q8 33 12 39.5t21 9.5q1 0 12.5 6t18.5 6l16 -10q23 -14 23.5 -15.5t0.5 -12.5q0 -1 3.5 -7.5t3.5 -12.5t-1 -8q-9 -46 -14 -87t-5 -77
q7 16 30 86q13 38 20.5 59t12 35t7 25.5t5.5 28.5q3 16 6.5 21t3.5 19q0 4 1 4l17 -4q6 4 14.5 5.5t41.5 6.5q6 -1 9 -4t17 -21l8 -10l3 -9q2 -8 5 -11t3 -5q0 -11 -13 -24q0 4 -5 -18t-11 -52.5t-10.5 -60t-4.5 -40.5q0 -35 10 -58t27 -23q5 0 12.5 8t15.5 17.5t15.5 17.5
t12.5 8t5 -5l-1 -13q-1 -14 -1 -21v-10.5t-1 -5.5t-4 -7q-2 -2 -12 -13.5t-26 -24.5t-35 -23t-38 -10t-32.5 12.5t-22.5 31.5t-13 41t-4 41q0 10 2 24.5t4 28t3.5 24t1.5 12.5q0 1 -0.5 5.5t-1.5 11.5q-12 -24 -18 -37t-10 -25.5t-8.5 -29.5t-14.5 -50q-8 -27 -13 -43.5
t-5 -24.5l1 -31l-7 -13v-6q0 -7 -7 -7q8 0 -4 2t-29.5 9.5t-33.5 22t-16 39.5q0 22 2 50t4 53.5t4 45t2 23.5v6t-1 10z" />
    <glyph glyph-name="n" unicode="n" horiz-adv-x="351" 
d="M96 115q8 19 15.5 39t14.5 40q5 15 14 39.5t18.5 52t17.5 53.5t12 43q2 15 5 23.5t10 14.5t18.5 10.5t30.5 11.5l4 -2l9 -2l14 -14q16 -16 23.5 -17.5t7.5 -11.5l-8 -13l-4 -20q-8 -37 -12.5 -53t-8 -26t-6 -23t-4.5 -44q0 -3 -0.5 -5.5t-0.5 -4.5q-1 -14 -1.5 -25.5
t-0.5 -20.5q0 -21 10 -35.5t24 -14.5q10 0 22 11.5t22 22t16.5 15t6.5 -8.5l-1 -12v-22q-11 -25 -12.5 -30.5t-15.5 -13.5q-9 -5 -18.5 -13.5t-19 -16.5t-20 -14t-22.5 -6q-36 0 -54 20q-17 19 -22 47.5t-4 56t5 49t4 25.5q0 10 -6 10q-6 -3 -16 -31.5t-21 -62.5t-20.5 -63
t-13.5 -35q-3 -7 -3 -9t1 -3t2.5 -3.5t1.5 -10.5q0 -4 -9.5 -14t-12.5 -10h-14q-19 0 -21.5 9t-7.5 9h-13q-15 0 -18 20.5t-3 54.5l-1 49l2 42q2 24 5 57.5t3 45.5l-2 53q0 22 10 32l-8 18l5 15q3 9 13 12.5t8 3.5q1 0 7.5 -3.5t14.5 -3.5q7 0 16 4t14 4q8 0 22 -17t14 -27
q0 -14 -8.5 -31.5t-9.5 -51.5q0 -7 -3 -29t-6.5 -47.5t-6.5 -51t-4 -40.5z" />
    <glyph glyph-name="o" unicode="o" horiz-adv-x="326" 
d="M228 92q-7 -13 -17.5 -29.5t-23 -31.5t-26 -25t-26.5 -8l-32 4h-15q-16 0 -30 12.5t-23.5 32t-15 44t-5.5 47.5q0 17 1.5 42.5t4.5 52.5t7 52t9 41t9 33t8 29.5t8.5 20t10.5 5.5h10l8 1l11 -5l8 3t17 3h14q8 0 15 7t21 7q19 0 41 -7q11 -3 21 -18t17 -34t11 -39t4 -34
q0 -32 -16 -102q-5 -26 -7.5 -48t21.5 -26l21 -4q6 -1 9.5 6t7.5 15.5t10.5 16t17.5 7.5q5 -3 5 -15l-1 -15q-2 -33 -21 -47t-43 -14q-17 0 -46 20zM194 122q-5 4 -12.5 24t-15 46.5t-13 53.5t-5.5 44q0 14 3 27.5t3 24.5q0 17 -7 17q-12 0 -18.5 -29.5t-10.5 -67t-5 -72.5
t-1 -45q0 -35 9 -61t23 -26q21 0 28.5 18.5t21.5 45.5zM210 187q5 13 7.5 19t3.5 10.5t1 11v20.5v18q0 16 -6 42t-12 36q-4 -17 -4 -37v-19t2 -46q3 -36 8 -55z" />
    <glyph glyph-name="p" unicode="p" horiz-adv-x="328" 
d="M114 340q5 11 11 23.5t16.5 23t27 17t41.5 6.5q15 0 21 -9t30 -21q26 -50 26 -140q0 -26 -1 -41.5t-4 -29t-9.5 -28.5t-16.5 -41l-4 -12l-22 -22l-11 -14l-13 -8q-4 -3 -15 -11.5t-12 -8.5l-19 2q-1 0 -6.5 -1t-9.5 -1q-12 0 -20 4t-14 4q-2 0 -6 -3t-3 -5l6 -16l-5 -32
l2 -19v-39q0 -10 2 -21t2 -21q0 -4 4.5 -18t3.5 -13q0 -3 -8.5 -8t-15.5 -8t-8 -4q-14 0 -19 9t-23 18q-11 5 -16 14t-7.5 23.5t-4 36t-4.5 52.5l2 54l-1 114l5 136v62q4 27 5.5 42.5t1.5 18.5q0 5 -1 15.5t-1 15.5t1.5 12t1.5 12q0 4 -5 7t-5 7q0 3 8 7.5t17 8.5t16.5 7
l7.5 3q8 -3 37 -3q7 0 13.5 -5t11 -11.5t7 -12t2.5 -6.5l-3.5 -9t-7.5 -24t-7.5 -34t-3.5 -39q0 -2 0.5 -6t1.5 -10zM106 92q10 -4 13.5 -7t6.5 -5l10 3l8 -3q10 0 17.5 23t12.5 59l4 33l2 97q0 11 -7 20.5t-14 9.5t-15 -11t-14.5 -26t-11 -30t-4.5 -23q0 -22 -3.5 -59
t-4.5 -81z" />
    <glyph glyph-name="q" unicode="q" horiz-adv-x="338" 
d="M176 -13l3 71l-2 20q-6 -6 -14 -16q-12 -13 -29.5 -23.5t-24.5 -10.5q-15 0 -31.5 7t-31 19t-23.5 29.5t-9 38.5v45t1 33t3.5 30t7.5 37q6 24 10 38.5t5 20.5q1 13 2 17t2.5 7t5 8t11.5 20q7 14 10.5 22t8.5 12.5t13.5 7t23.5 4.5l14 2l20 -6q13 -4 22.5 -11t13.5 -7
q8 0 10.5 5t4 11t3.5 11t8 5q2 0 6.5 -3t5.5 -3l32 5q-1 0 5.5 -3t15 -9.5t16 -17t9.5 -25.5v-5q0 1 -3 -3t-3 -5l4 -39q0 -2 -2 -8t-8 -16q-6 -11 -10 -48.5t-6.5 -82.5t-3.5 -89t-1 -68q2 -34 2.5 -58t1 -41t3.5 -30t10 -27q8 -14 8 -20q0 -10 -14 -10q-6 0 -14 -1t-21 -1
q-14 0 -21 8.5t-11.5 19t-9.5 20.5t-15 14q-2 1 -4.5 10.5t-5 24t-4 31.5t-0.5 33zM172 367q-9 0 -19.5 -25.5t-20 -60.5t-16 -71.5t-6.5 -59.5q0 -1 0.5 -10t3 -19t7 -18.5t13.5 -8.5q16 0 27.5 33.5t18.5 74t10.5 75t3.5 35.5q2 25 0 34t-22 21z" />
    <glyph glyph-name="r" unicode="r" horiz-adv-x="286" 
d="M80 300q-3 -8 -9.5 -40.5t-16.5 -68.5t-21.5 -64.5t-24.5 -28.5q-4 0 -4 7q0 3 1 10.5t1 14.5v32q0 11 4 26q3 9 6 27t5 35.5t3.5 29t1.5 8.5q0 3 -3 10.5t-6 16.5t-6 17.5t-3 11.5l3 58l3 37l-1 10q0 3 1.5 4.5t9.5 6.5l12 11q7 6 14.5 8.5t5.5 2.5q20 0 28.5 -9
t8.5 -19q0 -9 -4.5 -18t-4.5 -39v-7q0 -5 10 -5q16 0 32.5 8t25.5 19q6 9 12 9.5t14 -3.5t19 -10.5t27 -11.5q12 -4 13 -17t-3.5 -30t-11 -35t-9.5 -31v-14q0 -25 -6.5 -53t-6.5 -54q0 -33 7 -43.5t33 -12.5l10 -2q4 0 10 9t13 20.5t13 20.5t10 9t4 -10v-23
q0 -24 -1.5 -29.5t-9.5 -15.5q-25 -29 -53.5 -51t-41.5 -22q-26 0 -47.5 16t-33.5 36q-15 26 -15 44q0 38 2 59t6 44l12 63q2 8 3 12.5t1 5.5q0 4 -4.5 10t-8.5 6t-11.5 -4t-17.5 -4z" />
    <glyph glyph-name="s" unicode="s" horiz-adv-x="273" 
d="M18 103q-5 -7 -11 -9l-11 -14q-16 -21 -23.5 -21.5t-7.5 7.5v34q0 12 20 32q15 15 26.5 50t20 70.5t12.5 61t4 21.5v31q0 3 3 11.5t3 9.5l-4 27q0 -3 8 1t18 10t19.5 11.5t13.5 5.5l9 -1l22 1l10 -1q18 -3 23.5 -8.5t5.5 -18.5l-1 -36q0 -4 3.5 -15.5t8 -24.5t8.5 -24.5
t4 -15.5q4 -22 22 -51t19 -75q0 -58 -22 -95q-10 -16 -18 -25t-17 -15.5t-21.5 -12.5t-31.5 -16l-26 -16t-21 -8t-26 12t-25 22t-12.5 28.5t-5.5 33.5q0 4 0.5 10t0.5 13zM41 146q7 4 20.5 13.5t18.5 9.5q3 0 3 -10l3 -8l-2 -11q-4 -19 -7 -27.5t-3 -10.5q0 -5 4.5 -12.5
t10.5 -14.5t13 -12t12 -5q21 0 29.5 13.5t8.5 33t-5 39.5t-11 34l-16 40l-8 32l-6 19q-7 20 -4 31.5t-3 11.5q-3 0 -3.5 -9t-5.5 -25l-12 -38q-9 -28 -18.5 -51t-18.5 -43z" />
    <glyph glyph-name="t" unicode="t" horiz-adv-x="226" 
d="M126 294q-7 -50 -10.5 -82.5t-3.5 -47.5q0 -34 10 -57.5t24 -23.5q9 0 25 16t31 33t26.5 28t11.5 0l-1 -6v-18l-1 -13l2 -19q0 -4 -18 -21l-18 -25q-7 -10 -19.5 -20t-26.5 -18.5t-27.5 -14t-22.5 -5.5q-18 0 -35.5 10t-31.5 24.5t-22.5 31.5t-8.5 32q0 17 0.5 40.5
t1.5 48t3.5 47t6.5 36.5q6 18 6 30q0 7 -7 11.5t-7 16.5q0 4 3 12t3 10q0 8 -3 15.5t-3 18.5q0 14 4 17t9 4.5t9.5 6t7.5 21.5l8 51q4 28 5 44t1 17q0 6 -6 8.5t-6 7.5t9 13.5t20 17.5t21 15.5t12 6.5l4 -2q-2 1 8 -1.5t23.5 -8t25 -13t11.5 -16.5q0 1 -7 -17t-15 -44
t-15 -55t-7 -50q0 -3 4 -4t24 -3q19 -2 25.5 -17.5t6.5 -21.5q0 -1 -8 -8t-8 -13q0 -8 9 -15.5t9 -15.5q0 -17 -12 -17q-6 0 -15 3t-14 3t-13 -1t-18 -3z" />
    <glyph glyph-name="u" unicode="u" horiz-adv-x="356" 
d="M196 102q-36 -65 -56 -83q-9 -10 -24.5 -16.5t-25.5 -6.5t-24 8t-26 23.5t-20 38t-8 52.5q0 37 2 63t5 42q3 18 3 19v46q0 12 6 23.5t6 16.5l-6 19l1 17v36q0 8 11 19t20 11q2 0 8.5 -1.5t9.5 -1.5q10 0 24 11l11 -6l5 -1q11 -2 16.5 -10t8 -15.5t2.5 -11.5v0
q0 -4 -3.5 -12t-3.5 -12l1 -13q0 2 -5 -14t-10.5 -45t-10.5 -68.5t-5 -84.5q0 -22 5 -43.5t17 -21.5t21.5 19t17 47t12.5 61.5t8.5 62t5 48.5t1.5 21t-1 7t-2 6l1 12q0 4 -3 8t-3 6q0 9 6 18.5t10 9.5l12 -2q11 -2 24 -4t18 -2l8 1t17 1q7 0 7 -4l-1 -15q0 -1 7 -10.5
t7 -16.5q0 -3 -8 -14q1 1 -2 -15t-6.5 -38.5t-7.5 -47t-5 -39.5l-3 -44q-1 -18 11 -37.5t22 -19.5q22 0 53 64q4 10 7 10q7 0 6.5 -13.5t-0.5 -51.5q0 -2 -9.5 -15t-24 -28t-32.5 -27t-36 -12q-26 0 -43 18t-29 58z" />
    <glyph glyph-name="v" unicode="v" horiz-adv-x="317" 
d="M224 104q-14 -20 -22 -32.5t-13 -21t-10 -14.5t-13 -12q-38 -28 -62 -28q-13 0 -29 10t-30 28.5t-23.5 44t-9.5 55.5q0 4 2 42t10 108l6 52q1 8 -2.5 13.5t-6.5 10t-3.5 8.5t5.5 8l-1 29q0 8 10 14t19 6q7 0 15 4.5t13 4.5q-5 0 4 -6t22.5 -15.5t25.5 -21.5t12 -23
q0 1 -5 -16l-6 -26q-8 -34 -14 -78t-6 -100q0 -12 2 -26t5.5 -26.5t9 -21t13.5 -8.5q11 0 21 14t17.5 33.5t12 40.5t4.5 35q0 20 -4.5 42.5t-4.5 42.5q0 7 1 18t1.5 21t1.5 17t1 6l-1 51q4 19 13.5 38t24.5 14l16 -7q22 -10 29 -17t7 -21v-10l-4 -59q-4 -51 -10 -83t-8 -39
q-13 -33 -13 -37q0 -3 -0.5 -7t-1.5 -9q-1 -2 7 -11.5t10 -9.5l14 1l8 -2q5 -1 8.5 4.5t7.5 12.5t9 13t14 6q8 0 8 -25q0 -60 -59 -60q-10 0 -22 7.5t-26 17.5z" />
    <glyph glyph-name="w" unicode="w" horiz-adv-x="470" 
d="M201 106q-32 -63 -53 -84q-10 -10 -27 -20t-25 -10q-20 0 -36 15t-26.5 35t-16 41t-5.5 34q0 105 15 225q1 2 1 10q0 2 -6 20v7l3 20q0 2 -2 8.5t-2 10.5q0 14 5 12l22 -2q20 16 34 16q9 0 20.5 -8t21 -18t16 -19.5t6.5 -13.5l-2.5 -5.5t-5 -14t-5 -18t-2.5 -15.5
q0 -10 -5.5 -37t-5.5 -56q0 -25 -1.5 -41t-3.5 -27.5t-3.5 -21t-1.5 -23.5q0 -3 2 -10.5t5 -15.5t7 -14t8 -6q12 0 23.5 28t20 65t14 75t5.5 57q0 26 -0.5 33.5t-4.5 15.5q-2 6 -2 8q0 14 17.5 27t40.5 13q10 0 21 -12l8 -2l9 -8q13 -11 18.5 -16.5t5.5 -16.5q0 -5 -6 -6
t-6 -11q0 -2 -3 -25t-6 -51t-6 -53t-3 -31q0 -12 2 -27t5.5 -28t9.5 -22t14 -9q11 0 19.5 12t14 30t8 39t2.5 39q0 17 -3.5 32.5t-3.5 25.5q-1 -2 0.5 6t1.5 14q0 2 -3 38q0 1 4.5 17.5t9.5 36t9 35t2 13.5q11 11 29 8.5t32 -30.5l9 -18l-4 -16l-4 -42l-24 -132
q-12 -26 -12 -34q0 -11 12 -21.5t26 -10.5q7 0 15.5 7.5t16 15t12.5 10t5 -8.5q0 -4 -0.5 -9t-0.5 -9t0.5 -12t0.5 -14q0 -5 -5 -10t-10.5 -9t-10 -6.5t-3.5 -2.5h-9l-15 -2q-2 0 -9.5 2.5t-15.5 7l-16 9t-11 7.5q-6 -10 -14.5 -25t-21 -29t-29.5 -24.5t-40 -10.5
q-30 0 -45.5 20t-26.5 73z" />
    <glyph glyph-name="x" unicode="x" horiz-adv-x="306" 
d="M132 340l12 -40l5 -11q5 10 16.5 27.5t23.5 36t21.5 34.5t9.5 23q0 9 4 11.5t4 3.5l12 -4l22 1q10 0 22 -15.5t12 -22.5q0 2 -18.5 -17t-40 -45t-40 -52.5t-18.5 -41.5q0 -2 5.5 -15t12 -28t12.5 -27.5t7 -13.5q9 -15 32 -24q16 -7 25.5 0.5t15.5 18.5t11.5 21.5
t14.5 10.5q5 0 5 -7l-1 -7.5t-1 -14.5q0 -3 -3.5 -20.5t-13 -36.5t-26.5 -35t-43 -16l-18 -5q-28 0 -56 27.5t-38 71.5q-5 21 -16.5 5.5t-24 -43.5t-24 -56.5t-16.5 -33.5l-7 -7q-1 -1 -7 3.5t-11 4.5q-8 0 -8 7l2 24q0 2 -5 11t-5 10q0 7 12 24q-1 -1 9.5 13.5t23 34.5
t23 40.5t10.5 30.5l-6 18t-13.5 39.5t-14 40t-8.5 18.5q-3 0 -5.5 -5l-5.5 -11t-6.5 -11t-8.5 -5q-9 0 -14.5 13.5t-5.5 18.5q0 21 7 43.5t17.5 42t24 32t27.5 12.5q19 0 29.5 -8t17 -22t10.5 -32.5t11 -39.5z" />
    <glyph glyph-name="y" unicode="y" horiz-adv-x="334" 
d="M185 73l-1 11q-48 -64 -90 -64q-40 0 -62 25t-22 65q0 41 7 92.5t7 113.5q0 3 -3.5 8.5t-3.5 9.5l4 16q5 21 1 24.5t-4 10.5q0 8 6 10.5t30 6.5l24 4q-1 0 10.5 -6t25 -15.5t24 -20.5t6.5 -21l-2 -6l-10 1q-1 0 -5.5 -22.5t-9.5 -53.5t-9 -63.5t-4 -52.5q0 -15 9 -35.5
t20 -20.5q3 0 34 40q3 3 6 28t5.5 56.5t5.5 63t6 48.5q3 16 7 31.5t4 28.5q0 4 -1.5 12t-1.5 14q0 7 2 7l18 -5l4.5 3t11 7t13 7t9.5 3q11 0 27 -13t16 -23q0 -3 -1 -4q-2 -10 -1 -16.5t1 -10.5q0 -13 -7.5 -40.5t-10.5 -96.5l-5 -128l4 -108q0 -2 -3 -13.5t-6.5 -25.5
t-6.5 -25.5t-4 -13.5q-7 -15 -22.5 -26.5t-34.5 -31.5q-24 -25 -34 -31t-21 -6q-13 0 -31 9.5t-34 23.5t-27 30t-11 28q0 3 2.5 10.5t6.5 15.5t9 14t10 6q1 0 9 -12.5t19.5 -26.5t24.5 -23t23 -3q16 0 27.5 30.5t11.5 70.5q0 7 -0.5 22t-0.5 40l-0.5 4.5t-0.5 12.5z" />
    <glyph glyph-name="z" unicode="z" horiz-adv-x="312" 
d="M262 8l-28 2q-2 0 -11 -2t-13 -2q-26 0 -63 6.5t-59 6.5q-9 0 -25.5 -4.5t-32.5 -4.5q-11 0 -19.5 5t-8.5 13q0 5 6 10.5t6 13.5q0 5 -7.5 16t-7.5 18q0 14 12 24t31 31q44 47 72 84t42 63q6 11 13.5 19.5t7.5 13.5q0 4 -5.5 7.5t-12.5 3.5q-15 0 -33.5 -2.5t-36 -5.5
t-32 -5.5t-21.5 -2.5q-9 0 -9 8q0 3 10 20q0 3 -5 7t-5 7l1 17q0 1 -2.5 8t-2.5 13q0 19 20 19q3 0 9.5 -0.5t11.5 -0.5q2 0 21 2t42 4t44 4t28 2l49 -3l32 1q16 0 16 -16q0 -4 -3 -11t-3 -9t1 -7t1 -6t-2 -5.5t-2 -6.5q0 -11 3 -11.5t3 -2.5t-7.5 -11.5t-28.5 -38.5
l-48 -66q-21 -29 -42.5 -57t-43.5 -57q-6 -6 -6 -9t7 -6.5t17 -3.5l24 1q14 0 34.5 -2t31.5 -2q9 0 19.5 3t19.5 3q15 0 16 -4t-3.5 -11t-11 -14.5t-6.5 -15.5q0 -4 6 -12t6 -10t-3 -5t-3 -5l1 -8q0 -2 -4.5 -6t-6.5 -4z" />
    <glyph glyph-name="braceleft" unicode="{" horiz-adv-x="274" 
d="M252 718q24 0 24 -25l-0.5 -3t-0.5 -8v-2q0 -6 6.5 -14t6.5 -16q0 -16 -27 -22q-33 -8 -48.5 -18t-20.5 -28q-4 -16 -5 -25t-1.5 -17t-0.5 -18t-3 -28l-4 -28q-3 -24 -5 -39.5t-7 -26.5t-14.5 -21.5t-27.5 -24.5q-13 -10 -8.5 -14t30.5 -12q6 -2 14.5 -15t15.5 -33
t12 -43.5t5 -46.5v-12q0 -8 -0.5 -16t-0.5 -16q0 -13 9 -46q2 -42 7.5 -53t29.5 -17q5 -1 10.5 -6.5t10 -12.5t7 -12.5l2.5 -5.5l-15 -25q-12 -22 -16.5 -27t-12.5 -5q-5 0 -18 6t-28.5 18t-30.5 30.5t-24 43.5q-12 33 -22.5 67.5t-10.5 65.5v42q0 52 -7 65q-5 10 -17.5 15
t-25 9.5t-22.5 11.5t-10 23q0 26 6 44q2 6 4.5 7t15.5 2q20 0 29 8.5t13 22t5.5 30t5.5 31.5l6 24l3 62q15 39 18 54q12 40 28 50q26 20 55 35t55 15z" />
    <glyph glyph-name="bar" unicode="|" horiz-adv-x="512" 
 />
    <glyph glyph-name="braceright" unicode="}" horiz-adv-x="274" 
d="M22 718q8 0 21.5 -4t30 -11t33 -16.5t29.5 -20.5q15 -13 21.5 -39.5t20.5 -62.5l4 -62l5 -24q4 -20 5 -31.5t2.5 -19t6.5 -13.5t17 -17q14 -11 22 -11q21 -2 23.5 -17.5t2.5 -35.5q0 -19 -13.5 -27t-30.5 -10q-24 -4 -31 -20.5t-7 -65.5v-43q0 -9 -6.5 -46.5t-21.5 -78.5
t-41 -73.5t-65 -32.5q-10 0 -12 5.5t-16 26.5l-16 25q-3 6 2 12.5t13 13t17.5 11t13.5 5.5t9.5 13.5t10 29t7.5 34.5t3 32l-1 48q0 29 9 54.5t14 55.5q3 16 15.5 22.5t24 9.5t16 6.5t-9.5 13.5q-18 13 -27.5 23.5t-14 22.5t-7 27.5t-5.5 38.5l-4 28q-3 19 -3.5 30.5
t-1.5 20.5l-2 18t-5 23q-3 9 -18 17.5t-32 16t-30.5 15t-13.5 15.5t6.5 16t6.5 16q0 21 4.5 28t18.5 8z" />
    <glyph glyph-name="asciitilde" unicode="~" horiz-adv-x="682" 
d="M162 573l-66 55q22 49 42 76q44 56 106 56q11 0 40 -10t61 -22t60.5 -22t39.5 -10q41 0 78 67l67 -55q-22 -49 -46 -80q-44 -54 -103 -54q-4 0 -33 10.5t-64 23t-66 22.5t-39 10q-22 0 -39.5 -15t-37.5 -52z" />
    <glyph glyph-name="currency" unicode="&#xa4;" horiz-adv-x="749" 
d="M704 -180h-659v1080h659v-1080zM659 228l-99 100q34 57 34 114q0 62 -34 115l99 101l-67 68l-99 -100q-47 34 -117 34q-69 0 -120 -34l-99 100l-67 -68l99 -101q-33 -53 -33 -113q0 -65 33 -116l-99 -100l67 -70l99 101q56 -35 120 -35t117 35l99 -101zM497 442
q0 -48 -36.5 -85t-84.5 -37q-50 0 -87 36t-37 86t37 86t87 36t85.5 -36t35.5 -86z" />
    <glyph glyph-name="brokenbar" unicode="&#xa6;" horiz-adv-x="340" 
d="M295 -180h-250v1080h250v-1080zM250 388v392h-160v-392h160zM250 -59v392h-160v-392h160zM219 418h-98v331h98v-331zM219 -28h-98v331h98v-331z" />
    <glyph glyph-name="section" unicode="&#xa7;" horiz-adv-x="620" 
d="M575 -180h-530v1080h530v-1080zM530 60q0 60 -29 91q29 45 29 135v103q0 97 -24 135q-23 35 -81 41q-15 2 -145 2v30h234v210h-321q-103 0 -103 -107v-79q0 -49 31 -87q-31 -48 -31 -145v-103q0 -92 25 -127.5t82 -41.5q16 -2 139 -2v-30h-227v-211h319q49 0 75.5 29
t26.5 78v79zM500 -19q0 -76 -72 -76h-288v149h227v92h-149q-30 0 -48 5q-50 14 -50 131v112q0 122 48 142q-48 18 -48 85v79q0 41 16.5 58.5t56.5 17.5h290v-148h-234v-92h153q31 0 50 -5q33 -9 43 -58q5 -23 5 -80v-111q0 -92 -27 -120q-9 -9 -21 -16q48 -13 48 -86v-79z
M367 286v103h-118v-103h118zM336 317h-56v41h56v-41z" />
    <glyph glyph-name="copyright" unicode="&#xa9;" horiz-adv-x="763" 
d="M379 696q153 0 261 -112q96 -100 96 -237q0 -84 -54 -191q-15 -29 -27.5 -47.5t-28.5 -32t-37 -25t-53 -24.5q-96 -42 -184 -42q-143 0 -233 117q-38 49 -64 116q-29 78 -29 134q0 88 46 176q6 12 11.5 19.5t12.5 13.5t16.5 13t23.5 18q36 28 63 47.5t53 31.5t56 18t71 7
zM392 630q-120 0 -200 -77q-50 -50 -74 -111q-20 -52 -20 -102t18.5 -100t51.5 -88q36 -43 92 -71q55 -28 122 -28q105 0 194 80q51 47 70 97q18 45 18 112q0 126 -60 197q-76 88 -212 91zM420 495q-4 0 -10 3.5t-14 3.5q-16 0 -30.5 -21t-25.5 -49.5t-17.5 -58t-6.5 -45.5
t5.5 -44t15.5 -44l5 -8l8 -6q20 -15 27 -20.5t28 -5.5q23 0 49 17.5t44 45.5q5 5 9 5q6 0 15.5 -7t9.5 -12q0 -14 -11.5 -30.5t-27.5 -31.5t-33 -26.5t-28 -14.5q-17 -5 -29 -8t-22 -3q-32 0 -56 12.5t-56 47.5q-37 40 -37 117q0 34 8.5 75.5t27 77t46.5 59.5t67 24
q11 0 31 -3t40 -9t35 -15t15 -21q0 -8 -1 -19t-1 -19q0 -18 2 -30t2 -23q0 -5 -8 -12t-14 -7q-4 0 -11.5 -2t-9.5 -2q-7 0 -14 5t-13 5q-12 0 -13 16t-1 38v5q1 13 1.5 20t0.5 9q0 -1 -0.5 2z" />
    <glyph glyph-name="guillemotleft" unicode="&#xab;" horiz-adv-x="409" 
d="M334 408q7 0 14 -7.5t13 -15.5t10 -13.5t4 -1.5l-10.5 -12t-23 -27t-23 -28t-10.5 -15l-5 -8q-2 -4 -7 -11t-10 -14.5t-8.5 -13t-3.5 -7.5q0 -9 17.5 -36.5t50.5 -77.5q20 -29 20 -37q0 4 -7 -3.5t-17.5 -17.5t-23 -19t-24.5 -9q-7 0 -7 4t-15 24l-19 25q-16 21 -25 40
t-18 31q-27 33 -27 52q0 15 10.5 26t30.5 36l50 62q14 16 22.5 26t11.5 14q2 3 13.5 18t16.5 16zM190 408q2 0 16 -14q1 -1 13.5 -9.5t12.5 -11.5q0 -4 -24 -31l-16 -20l-14 -20q-22 -32 -35 -45.5t-13 -24.5q0 -18 13.5 -40t29 -43t29 -38t13.5 -26q0 -1 -9 -9.5
t-20.5 -17.5t-23 -16.5t-17.5 -7.5q-5 0 -9 4l-10 19l-40 66q-24 40 -38 58.5t-14 28.5q0 9 20 37t44 57.5t44 51.5t18 20q1 1 5.5 6t10 11t10 10.5z" />
    <glyph glyph-name="logicalnot" unicode="&#xac;" horiz-adv-x="512" 
d="M478 294v-294h-131v176h-313v118h444z" />
    <glyph glyph-name="registered" unicode="&#xae;" horiz-adv-x="763" 
d="M379 696q153 0 261 -112q96 -100 96 -237q0 -84 -54 -191q-15 -29 -27.5 -47.5t-28.5 -32t-37 -25t-53 -24.5q-96 -42 -184 -42q-143 0 -233 117q-38 49 -64 116q-29 78 -29 134q0 88 46 176q6 12 11.5 19.5t12.5 13.5t16.5 13t23.5 18q36 28 63 47.5t53 31.5t56 18t71 7
zM392 630q-120 0 -200 -77q-50 -50 -74 -111q-20 -52 -20 -102t18.5 -100t51.5 -88q36 -43 92 -71q55 -28 122 -28q105 0 194 80q51 47 70 97q18 45 18 112q0 126 -60 197q-76 88 -212 91zM266 452l-6 -4q-8 -5 -20 -12t-17 -7q-18 0 -18 29q0 9 2.5 13t2.5 7q-1 0 -3 4
t-2 6q0 6 16 12l12 8q9 6 29 13t46 13.5t54 11t52 4.5q19 0 30 -3t19.5 -9.5t17.5 -16t25 -23.5q22 -19 29 -29.5t7 -24.5q0 -19 -7.5 -38t-19.5 -35t-26.5 -28.5t-27.5 -18.5q-5 -2 -5 -6l5.5 -17.5t14.5 -38t21 -37.5t25 -17q3 0 9.5 3t11.5 3q7 0 7 -6l-0.5 -2.5
l-1.5 -7.5h4q6 0 6 -9q0 -14 -20.5 -27.5t-42.5 -13.5q-21 0 -41 11.5t-34 34.5q-6 10 -14 28t-15 35.5t-13 30.5t-8 13l-6 -1l-9 1q-16 1 -16 -17q0 -32 -0.5 -51t-0.5 -25q-1 -5 -1.5 -8.5t-0.5 -5.5t4 -6t4 -8v-7q0 -5 4 -5t4 -13l3 -8q1 -4 -14.5 -9.5t-24.5 -5.5
q-8 0 -21.5 10t-10.5 14h-8q-4 0 -13 9t-9 13t2.5 11.5t2.5 11.5l-1 27l4 60v34q0 14 2 22t2 11v7l-1.5 22.5l-0.5 7.5q2 22 3 36t1 18t-2 6zM348 474q7 -6 7 -12q0 -2 -3.5 -5t-3.5 -7q-2 -9 -3.5 -24t-3 -29t-2.5 -25.5t-1 -13.5q0 -14 21 -7.5t46 24.5t46 41.5t21 43.5
q0 12 -10 21t-23 9q-25 0 -51.5 -4.5t-39.5 -11.5z" />
    <glyph glyph-name="degree" unicode="&#xb0;" horiz-adv-x="512" 
d="M254 687q70 0 118 -51q44 -47 44 -106q0 -38 -24 -86q-18 -36 -63 -57t-87 -21q-65 0 -104 54q-18 25 -30 55t-12 57q0 17 5 38.5t15 40.5q6 11 22 24.5t36.5 24.5t41.5 19t38 8zM260 622q-40 0 -66 -24q-32 -30 -32 -71q0 -39 28 -67t66 -28q36 0 64 26q30 28 30 64
q0 44 -22 72t-68 28z" />
    <glyph glyph-name="plusminus" unicode="&#xb1;" horiz-adv-x="396" 
d="M161 358v21q0 38 -0.5 60.5t-0.5 29.5q-1 5 -1 9.5v7.5q0 19 14 17l18 -1l10 1l12 -1l14 1q11 0 11 -12q0 -2 -1 -11.5t-1 -15.5v-12q1 -12 1 -22.5v-19.5q0 -8 -1.5 -17.5t-0.5 -17t6 -12.5t19 -5q38 1 60 1t30 1h16q17 0 17 -12q0 -2 -3 -20v-10q0 -17 -4.5 -24.5
t-11 -10t-14 -1.5t-14.5 1h-15t-37 -1h-17t-31 1q0 -7 -1.5 -20t-0.5 -31l2 -58q0 -2 1.5 -11t1.5 -14q0 -6 -3.5 -7.5t-18.5 -1.5l-13 -1l-18 2q-19 2 -23.5 2.5t-4.5 14.5q0 8 2.5 26t3.5 46q1 17 -0.5 30.5t-1.5 23.5l-104 -1l-11 1q-3 0 -11.5 -2t-13.5 -2q-8 0 -8 9
l2 26l4 18q4 19 5 23.5t15 4.5q8 0 25.5 -1.5t45.5 -3.5q1 0 19.5 1t30.5 1zM184 78h76q38 0 60 0.5t30 1.5h18q15 0 15 -10q0 -4 -3 -22v-10q0 -27 -4.5 -31.5t-11.5 -4.5q-3 0 -11.5 0.5t-16.5 0.5h-11q-15 -1 -26 -1h-17h-30q-17 0 -46.5 0.5t-69.5 1.5l-36 1l-42 -2
l-11 1q-3 0 -11.5 -2t-13.5 -2q-8 0 -8 9l2 26l4 18q4 19 5 23.5t15 4.5q6 0 18.5 -1t25.5 -1.5t21.5 -1.5t7.5 -1q18 1 36 1.5t35 0.5z" />
    <glyph glyph-name="mu" unicode="&#xb5;" horiz-adv-x="512" 
d="M501 397l-58 -397h-134l7 48q-26 -50 -69 -50q-46 0 -64 46l-26 -198h-151l77 551h154l-31 -225q-2 -15 -2 -19q0 -48 46 -48q57 0 68 77l30 215h153z" />
    <glyph glyph-name="mu" unicode="&#x3bc;" horiz-adv-x="512" 
d="M501 397l-58 -397h-134l7 48q-26 -50 -69 -50q-46 0 -64 46l-26 -198h-151l77 551h154l-31 -225q-2 -15 -2 -19q0 -48 46 -48q57 0 68 77l30 215h153z" />
    <glyph glyph-name="paragraph" unicode="&#xb6;" horiz-adv-x="512" 
d="M507 668h-51v-668h-100v668h-70v-668h-102v392q-78 4 -127 49q-52 47 -52 124q0 82 57 130q54 45 138 45h307v-72z" />
    <glyph glyph-name="periodcentered" unicode="&#xb7;" horiz-adv-x="363" 
d="M318 -180h-273v1080h273v-1080zM273 360q0 40 -26.5 73.5t-65.5 33.5q-37 0 -64 -34.5t-27 -72.5q0 -40 26 -74t65 -34t67 35q25 33 25 73zM248 360q0 -32 -17 -56q-20 -27 -50 -27q-31 0 -49 27q-17 24 -17 56q0 30 18.5 56t47.5 26q31 0 49 -25t18 -57z" />
    <glyph glyph-name="periodcentered" unicode="&#x2219;" horiz-adv-x="363" 
d="M318 -180h-273v1080h273v-1080zM273 360q0 40 -26.5 73.5t-65.5 33.5q-37 0 -64 -34.5t-27 -72.5q0 -40 26 -74t65 -34t67 35q25 33 25 73zM248 360q0 -32 -17 -56q-20 -27 -50 -27q-31 0 -49 27q-17 24 -17 56q0 30 18.5 56t47.5 26q31 0 49 -25t18 -57z" />
    <glyph glyph-name="guillemotright" unicode="&#xbb;" horiz-adv-x="409" 
d="M264 408q7 -1 7.5 -4.5t15.5 -23.5l18 -24q11 -16 23.5 -34t23 -35.5t17 -32t6.5 -21.5q0 -16 -10.5 -26.5t-30.5 -36.5l-50 -62q-8 -10 -17 -22.5t-17.5 -24t-16 -19.5t-13.5 -8q-7 0 -14 7.5t-13 15.5t-10 13.5t-4 1.5q0 9 16 23.5t34.5 33t34.5 39t16 40.5
q0 15 -67 115q-20 29 -20 36q0 -7 9 1.5t20.5 21.5t23.5 22.5t18 3.5zM120 408q7 0 10 -4l9 -18l41 -66q24 -38 38 -58t14 -30q0 -9 -20 -37t-44 -57t-44 -51t-18 -20q-1 -1 -5.5 -6.5t-10 -11.5t-10 -10.5l-4.5 -4.5q-2 0 -16 14q-1 1 -13.5 9.5t-12.5 12.5q0 1 5.5 9.5
t17.5 21.5l17 19l14 20q22 32 35 46t13 24q0 18 -13.5 40t-29.5 43t-29.5 38.5t-13.5 26.5q0 2 9 10t21 17t23.5 16t16.5 7z" />
    <glyph glyph-name="afii10023" unicode="&#x401;" horiz-adv-x="418" 
d="M204 558q-4 -15 -7.5 -43.5t-6 -54.5t-3.5 -43t-1 -9q0 -12 16 -12q9 0 26 2t38 4t43 4t39 2q19 0 19 -25q0 -2 -4.5 -15.5t-4.5 -21.5t4.5 -22t4.5 -25q0 -15 -15 -15q-2 0 -17 5.5t-31 5.5q-18 0 -40.5 -7.5t-41.5 -5.5l-30 2q-4 0 -8 -12t-4 -25l1 -55
q0 -22 -0.5 -40.5t-0.5 -32.5q5 -1 17 -1h31q26 0 42 -3t23 -3q11 0 31 3.5t42 3.5q9 0 11 -7t1 -18t-3 -24.5t-2 -26.5q0 -1 4.5 -9t4.5 -13q0 -7 -6.5 -11.5t-15.5 -4.5q-7 0 -13.5 0.5t-12.5 0.5q-2 0 -23 -4t-35 -4q-7 0 -28.5 2.5t-45 5.5t-42 5.5t-20.5 2.5
q-34 2 -44.5 3.5t-15.5 6.5q-10 9 -10 41q0 25 1 65t3 96l4 88l4 46l1 52l4 64q2 38 -0.5 60.5t-1.5 21.5q-3 5 -11 5q-4 0 -13 -0.5t-17 -0.5q-14 0 -14 6q0 4 5 10t5 7q0 7 -9 20.5t-8 24.5l1 19q1 17 2.5 22t11.5 5q14 0 26.5 -4t28.5 -4q20 0 52 2t62 5t52.5 5t24.5 2
q3 0 16.5 -1t23.5 -1q51 0 58 -10q2 -6 2 -22q0 -2 2 -11t2 -13t-2 -10t-4 -7q-1 1 5 -7.5t6 -14.5q0 -8 -2 -11.5t-11 -11.5l-10 -8q-14 10 -18.5 12t-19.5 2q-2 0 -19 1t-33 1q-11 0 -32.5 -6t-43.5 -6zM298 863q28 0 47 -13t19 -47q0 -16 -17 -34.5t-38 -18.5
q-20 0 -39.5 17t-19.5 36q0 20 13.5 40t34.5 20zM124 864q29 0 47.5 -13t18.5 -47q0 -5 -3.5 -14t-9.5 -18t-15.5 -15.5t-21.5 -6.5q-17 0 -22.5 2t-17.5 13t-17.5 27.5t-2.5 32t13.5 27t30.5 12.5z" />
    <glyph glyph-name="afii10017" unicode="&#x410;" horiz-adv-x="481" 
d="M360 624q24 -3 31 -14t5 -34t-7 -60t-5 -92q0 -20 1 -37t3 -33q3 -30 4.5 -56t11.5 -26l9 2l7.5 -15t7.5 -18q0 -5 -13.5 -16t-13.5 -19q0 -6 4 -29.5t10.5 -50t15 -48.5t17.5 -24q6 -1 6.5 -1.5t1.5 -8.5l6 -12q2 -3 -4.5 -7t-8.5 -4q-11 0 -26 -11.5t-26 -11.5
q-7 0 -22 5t-24 9h-9q-6 0 -18.5 12t-12.5 16l4 26q-3 -19 -4 -17.5t-1 15t-0.5 35t-3 42t-7 35t-13.5 14.5q-3 0 -16 -1.5t-28.5 -3t-29 -3t-17.5 -1.5t-14.5 2t-18.5 2q-18 0 -32 -53q-10 -38 -21.5 -58t-28.5 -42q-11 -14 -15.5 -18t-12.5 -4q-4 0 -18.5 7t-22.5 7
q-1 0 -8 -2t-9 -2q-20 0 -20 14q0 11 22 44.5t48 103.5q3 8 14.5 55t25 103t24 103t12.5 55q10 59 18 93t13 43q2 5 4.5 13.5t7 17t12 14.5t21.5 6q1 0 9.5 -5.5t12.5 -5.5q6 0 17 3.5t13 3.5q16 0 48 -14t64 -43zM236 610q-1 0 -6 -20.5t-11 -52t-13 -69t-13 -71
t-9.5 -58.5t-3.5 -31q0 -13 3 -16.5t8.5 -2.5t12 4t14.5 3l44 -1q22 0 22 20q0 11 -0.5 22t-1.5 23l-1.5 21l-0.5 7l4 69q2 20 -0.5 34.5t-2.5 21.5v17.5t1 19.5v17q0 31 -26 34q-8 2 -20 9z" />
    <glyph glyph-name="afii10018" unicode="&#x411;" horiz-adv-x="508" 
d="M172 554q14 -4 28 -15t14 -21l-5 -8q-7 -9 -8.5 -15.5t-1 -16.5t1.5 -24t-1 -38q0 -7 -1.5 -19.5t5.5 -11.5q49 4 78.5 0t50 -12t35.5 -18.5t36 -20.5q34 -16 56 -53t22 -79q0 -10 -1 -28t-7 -40t-19.5 -45t-38.5 -44l-30 -7l-20 -14q-6 -4 -18 -8.5t-27.5 -8t-32 -5.5
t-30.5 -2q-20 0 -40 11.5t-33 18.5q-6 -52 -18 -52q-4 0 -11.5 4.5t-6.5 3.5l-14 -2q-7 -1 -14 1.5t-10 2.5q-22 0 -30.5 12.5t-8.5 23.5q0 8 1 23.5t1 16.5q0 2 2 12q2 8 2.5 13t1 12.5t0.5 19.5v33l2 93q0 11 -0.5 26t-0.5 37t1.5 53t6.5 73q1 16 5 32t4 32q0 26 -15 26
q-36 -1 -58.5 -21t-22.5 -30q-22 10 -26 12.5t-4 10.5t8 42q-14 20 -14 24q0 16 39.5 36.5t93 38.5t108 30t85.5 12q46 0 71 -6.5t14 -33.5q7 -11 0 -20.5t0 -11.5t9 -17t-3 -19q-5 -3 -15 -3t-22 2l-24 4t-21 2q-7 0 -22.5 -1t-34 -4t-38 -7.5t-34.5 -11.5zM185 105
q1 1 5 1q2 0 20.5 -12.5t37.5 -12.5q23 0 46 13t41.5 34t30 46.5t11.5 49.5q0 38 -26.5 55.5t-66.5 17.5q-48 0 -99 -15q-1 -12 -1 -25v-27v-52q0 -20 -1 -31t-1 -13q0 -6 3 -29z" />
    <glyph glyph-name="afii10019" unicode="&#x412;" horiz-adv-x="508" 
d="M368 354q4 -3 5.5 -4.5t4.5 -3t8.5 -4.5t17.5 -8q34 -16 56 -53t22 -79q0 -10 -6.5 -36.5t-18 -54t-26.5 -49t-33 -21.5l-12 -3l-20 -14q-6 -4 -18 -8.5t-27.5 -8t-32 -5.5t-30.5 -2q-20 0 -40 11.5t-33 18.5q-6 -52 -18 -52q-4 0 -11.5 4.5t-6.5 3.5l-14 -2
q-7 -1 -14 1.5t-10 2.5q-22 0 -26.5 15.5t-4.5 26.5q0 8 -3 20.5t-3 13.5q0 2 2 12q2 8 2.5 13t0.5 12.5v19.5t1 33l6 114q3 50 3 67t-0.5 25t0.5 21t5 55q2 16 3 32t1 32q0 26 -15 26q-36 -1 -58.5 -21t-22.5 -30q-22 10 -26 12.5t-4 10.5t8 42q-14 20 -14 24
q0 16 39.5 36.5t93 38.5t108 30t85.5 12q46 0 78.5 -20t43.5 -56q30 -31 42 -56t12 -56q0 -24 -9.5 -45t-24 -38.5t-32 -31.5t-34.5 -24zM172 554q14 -4 28 -15t14 -21l-5 -8q-14 -17 -13.5 -41t-3.5 -71q-1 -13 12 -13q15 0 46 12.5t55 26.5q34 20 57.5 56t23.5 66
q0 27 -26 37.5t-50 10.5q-8 0 -24.5 -3.5t-36.5 -9.5t-41 -13t-36 -14zM185 105q1 1 5 1q2 0 20.5 -12.5t37.5 -12.5q23 0 46 13t41.5 34t30 46.5t11.5 49.5q0 38 -26.5 55.5t-66.5 17.5q-48 0 -99 -15q-1 -12 -1 -25v-27v-52q0 -20 -1 -31t-1 -13q0 -6 3 -29z" />
    <glyph glyph-name="afii10020" unicode="&#x413;" horiz-adv-x="346" 
d="M182 558q-4 -15 -7.5 -36t-5.5 -42.5t-3.5 -40.5t-1.5 -31q0 -34 -3.5 -71t-2.5 -90l1 -55q0 -11 1.5 -27t4 -32.5t4.5 -32t4 -25.5q6 -27 1.5 -40t-13.5 -17.5t-21 -4t-22 0.5q-34 2 -44.5 3.5t-15.5 6.5q-10 9 -10 41q0 25 1 65t3 96l4 88l4 46l1 52l4 64
q2 38 -0.5 60.5t-1.5 21.5q-3 5 -11 5q-4 0 -13 -0.5t-17 -0.5q-14 0 -14 6q0 4 2.5 11.5t2.5 11.5q0 7 -6.5 17.5t-5.5 21.5l1 19q1 17 2.5 22t11.5 5q14 0 26.5 -4t28.5 -4q20 0 52 2t62 5t52.5 5t24.5 2q3 0 16.5 -1t23.5 -1q51 0 58 -10q2 -6 2 -22q0 -2 2 -11t2 -13
t-2 -10t-4 -7q-1 1 5 -7.5t6 -14.5q0 -8 -2 -11.5t-11 -11.5l-10 -8q-14 10 -18.5 12t-19.5 2q-2 0 -19 1t-33 1q-11 0 -32.5 -6t-43.5 -6z" />
    <glyph glyph-name="afii10021" unicode="&#x414;" horiz-adv-x="523" 
d="M391 633q24 -3 32 -15t8.5 -36.5t-3.5 -62.5t-4 -93q0 -10 0.5 -37.5t1 -57.5t1.5 -56t2 -34q1 -15 -1 -30t-1 -26.5t9.5 -18.5t32.5 -6q21 0 31 -8.5t13.5 -20.5t3.5 -25v-23q0 -6 -3.5 -31t-5.5 -53t-1 -51.5t10 -25.5q6 -1 6.5 -1.5t1.5 -8.5l6 -12q2 -3 -4.5 -7
t-8.5 -4q-11 0 -26 -11.5t-26 -11.5q-7 0 -22 5t-24 9h-9l-24 46q-1 18 1 31t5 26t5 27t0 34q-3 0 -24 -4t-49.5 -8t-58 -7t-50.5 -2q-11 1 -29.5 6.5t-48.5 2.5q-16 -2 -20 -18.5t-11 -42.5q-10 -38 -16.5 -60.5t-23.5 -44.5l-48 -6q-1 0 -8 -2t-9 -2q-20 0 -20 14
q0 11 11.5 41.5t14.5 104.5q0 22 8 50t11 51q1 9 8.5 12.5t17 5.5t18.5 6t14 15q17 39 26.5 83.5t15 88t8 81t4.5 62.5q1 15 5 41.5t8 52.5t8 46.5t6 25.5t4.5 13.5t8 17t16.5 13.5t31 4q1 0 9.5 -5.5t12.5 -5.5q6 0 17 3t13 4q16 4 48.5 -7.5t64.5 -40.5zM273 603l-15 12
q-14 -28 -17.5 -80.5t-5 -114.5t-6 -125t-21.5 -113q-4 -13 -0.5 -20t10.5 -10.5t16.5 -4.5t16.5 -1l44 -1q22 0 22 20q0 53 5 120t8 127.5t0.5 104.5t-16.5 50q-15 7 -25 19.5t-16 16.5z" />
    <glyph glyph-name="afii10022" unicode="&#x415;" horiz-adv-x="418" 
d="M204 558q-4 -15 -7.5 -43.5t-6 -54.5t-3.5 -43t-1 -9q0 -12 16 -12q9 0 26 2t38 4t43 4t39 2q19 0 19 -25q0 -2 -4.5 -15.5t-4.5 -21.5t4.5 -22t4.5 -25q0 -15 -15 -15q-2 0 -17 5.5t-31 5.5q-18 0 -40.5 -7.5t-41.5 -5.5l-30 2q-4 0 -8 -12t-4 -25l1 -55
q0 -22 -0.5 -40.5t-0.5 -32.5q5 -1 17 -1h31q26 0 42 -3t23 -3q11 0 31 3.5t42 3.5q9 0 11 -7t1 -18t-3 -24.5t-2 -26.5q0 -1 4.5 -9t4.5 -13q0 -7 -6.5 -11.5t-15.5 -4.5q-7 0 -13.5 0.5t-12.5 0.5q-2 0 -23 -4t-35 -4q-7 0 -28.5 2.5t-45 5.5t-42 5.5t-20.5 2.5
q-34 2 -44.5 3.5t-15.5 6.5q-10 9 -10 41q0 25 1 65t3 96l4 88l4 46l1 52l4 64q2 38 -0.5 60.5t-1.5 21.5q-3 5 -11 5q-4 0 -13 -0.5t-17 -0.5q-14 0 -14 6q0 4 5 10t5 7q0 7 -9 20.5t-8 24.5l1 19q1 17 2.5 22t11.5 5q14 0 26.5 -4t28.5 -4q20 0 52 2t62 5t52.5 5t24.5 2
q3 0 16.5 -1t23.5 -1q51 0 58 -10q2 -6 2 -22q0 -2 2 -11t2 -13t-2 -10t-4 -7q-1 1 5 -7.5t6 -14.5q0 -8 -2 -11.5t-11 -11.5l-10 -8q-14 10 -18.5 12t-19.5 2q-2 0 -19 1t-33 1q-11 0 -32.5 -6t-43.5 -6z" />
    <glyph glyph-name="afii10024" unicode="&#x416;" horiz-adv-x="746" 
d="M167 318v9q-7 0 -14.5 18t-15.5 45t-17 59t-19 58.5t-21.5 43.5t-25.5 14q-12 -2 -21 -10t-16 -17t-12.5 -16t-9.5 -7q-1 0 -6.5 -0.5t-10 2.5t-5.5 12.5t6 29.5q3 10 17.5 29.5t34.5 39t43 33.5t43 14q43 0 75 -53q14 -24 21 -39.5t11.5 -32t8.5 -38.5t12 -59
q12 -52 27 -52q4 0 17.5 12t26.5 31v2l10 118l-4 27q-3 18 -7.5 32.5t-4.5 22.5q3 13 10.5 20t16 10t16.5 3.5t11 0.5q7 0 19 1t21 1q8 0 13 -2t21 -15l8 -27l-4 -11l3 -15q1 -8 -6 -30.5t-11 -83.5l-4 -51q-1 -13 -3.5 -20.5t-2.5 -10.5q0 -5 5 -14.5t7 -10.5
q13 -3 31.5 11.5t39 38.5t41 53.5t37 55.5t26 45t9.5 23q-3 21 3.5 33.5t6.5 14.5q0 5 18 8l6 2l10 -2q-1 0 7.5 4t16.5 4q17 0 25.5 -2.5t12.5 -8t5 -14.5t4 -23q1 -5 9 -14.5t8 -10.5l-1 -8l1 -11l-21 -13t-51 -57l-37 -55q-25 -38 -49 -55.5t-30 -24.5l-5 -21
q21 -14 32.5 -51.5t21.5 -76.5t21 -69.5t32 -30.5q6 0 16 8t20.5 18t20 18t13.5 8q6 0 6 -10q0 -4 -0.5 -9t-0.5 -7q0 -5 5.5 -10.5t5.5 -7.5q-3 -10 -17.5 -29.5t-34.5 -39t-43 -33.5t-43 -14q-43 0 -75 53q-14 24 -21 39.5t-11.5 32t-8.5 38.5t-12 59q-12 52 -27 52
q-9 0 -22 -16t-13 -27q0 -3 0.5 -7t1.5 -10v-118q0 -63 -3 -66q-9 -22 -16 -33.5t-13 -17t-11.5 -6.5t-12.5 -1q-3 0 -8.5 6t-12.5 13t-14.5 13t-14.5 6h-14q-9 20 -9 22q0 8 9 27.5t9 38.5v21t-1 21q-1 16 -1.5 25t-0.5 11t0.5 25.5t1.5 52.5q0 2 -0.5 3t-0.5 2
q-1 5 -5.5 15t-6.5 10q-19 0 -43.5 -28.5t-46.5 -62t-36.5 -61t-13.5 -25.5q-15 -21 -26 -34t-18 -22t-10.5 -16t-3.5 -16l-26 -29q-4 -4 -15.5 -5.5t-19.5 -1.5q-17 0 -24.5 4t-10 11.5t-2.5 18t-3 24.5q-1 5 -9 14.5t-8 10.5l1 8l-1 11l18.5 14.5t53.5 55.5l42 50
q30 35 49 56.5t25 28.5z" />
    <glyph glyph-name="afii10025" unicode="&#x417;" 
d="M91 227l26 -1q2 0 7 2t8 2q8 0 8 -8q0 -1 -1.5 -5.5t-1.5 -5.5t3 -10t3 -18q0 -13 3.5 -32t10.5 -37t17.5 -31t23.5 -13q9 0 16.5 17t12.5 41t8 50t3 44q0 44 -4 56q-6 27 -15 26l-53 -4q-4 0 -16 11t-10 15l4 16q2 8 1.5 12t2.5 4l13 -1q31 -2 48 46.5t17 115.5
q0 37 -5 51t-23 21l-10 5q-5 2 -14 -19.5t-18 -49t-15.5 -51.5t-6.5 -28q0 -10 1 -16.5t1 -7.5q0 -11 -12 -11q-4 0 -12 2.5t-10 2.5q-6 0 -16 -4t-14 -4q-10 0 -20 13t-10 25q0 10 14 62l15 58q6 22 11 34t6 16q3 25 15 25q4 0 7.5 -4t5.5 -7q14 3 22 5.5t17 5t20.5 4
t31.5 1.5q26 0 49.5 -9.5t41.5 -26t29 -39.5t11 -49q0 -7 -2 -16.5t-2 -11.5v-17q0 -17 -9.5 -37.5t-20.5 -39t-19.5 -32t-6.5 -17.5q1 -4 19 -13q14 -7 24.5 -24.5t17.5 -39t10 -43.5t3 -37q0 -5 -3 -20.5t-11 -35.5t-21 -41t-34 -38l-12 -11q-11 -10 -21 -14.5t-11 -5.5
q-23 -3 -41.5 -12.5t-37.5 -11t-40 11.5t-49 54q-11 17 -11 20l-12 42l-4 30q-3 19 4.5 34.5t42.5 28.5z" />
    <glyph glyph-name="afii10026" unicode="&#x418;" horiz-adv-x="520" 
d="M358 530q-15 -21 -23.5 -35.5t-16.5 -34t-18.5 -49t-29.5 -79.5q-28 -75 -49.5 -150t-39.5 -148q-7 -29 -11 -35t-17 -7l-14 -2l-13 3l-12 -4q-2 -1 -10 9.5t-17 23t-16 24.5t-7 14l4 90l6 96q3 57 4 83t1.5 42.5t2.5 33.5t8 55q1 7 1.5 13t0.5 11t-1.5 8.5t-9.5 3.5
q-4 0 -12 14t-8 17q0 8 4 15q6 16 9 39t10.5 44t23 36t46.5 15q8 0 12 -4q16 -10 21 -8t10 2q11 0 19 -14.5t8 -22.5q0 -7 -2.5 -20t-8.5 -33q-14 -50 -21 -91.5t-11 -84t-6 -91.5t-6 -115q7 19 22 62.5t37 113.5q30 71 50.5 118.5t33.5 70.5q16 31 25.5 50t11.5 25
q14 35 24 46.5t28 11.5q4 0 15 -4t23.5 -9.5t22.5 -11t13 -7.5q-1 1 1.5 -7t5.5 -18t5 -18t0 -7q0 -8 -7 -8q-8 0 -16.5 -22t-15.5 -56t-13 -74.5t-10 -77t-6.5 -64t-2.5 -34.5q0 -128 34 -128q11 0 25 13t17 13q6 0 6 -7q0 -2 -1 -8t-2 -5l1 -8q1 -4 -2.5 -9.5t-3.5 -6.5
q0 -10 10 -12t10 -10q0 -6 -11 -18.5t-27.5 -25.5t-36 -22.5t-37.5 -9.5q-42 0 -64 46.5t-22 135.5q0 41 1.5 68.5t5.5 53t10.5 56t16.5 76.5q8 38 12 64z" />
    <glyph glyph-name="afii10027" unicode="&#x419;" horiz-adv-x="520" 
d="M358 530q-15 -21 -23.5 -35.5t-16.5 -34t-18.5 -49t-29.5 -79.5q-28 -75 -49.5 -150t-39.5 -148q-7 -29 -11 -35t-17 -7l-14 -2l-13 3l-12 -4q-2 -1 -10 9.5t-17 23t-16 24.5t-7 14l4 90l6 96q3 57 4 83t1.5 42.5t2.5 33.5t8 55q1 7 1.5 13t0.5 11t-4.5 8t-15.5 -4
q-3 -2 -11.5 11.5t-8.5 16.5q0 9 4 16q16 22 22 47t12.5 46.5t19.5 36t44 14.5q8 0 12 -4q16 -10 21 -8t10 2q11 0 19 -14.5t8 -22.5q0 -7 -2.5 -20t-8.5 -33q-14 -50 -21 -91.5t-11 -84t-6 -91.5t-6 -115q7 19 22 62.5t37 113.5q30 71 50.5 118.5t33.5 70.5q16 31 25.5 50
t11.5 25q14 35 24 46.5t28 11.5q4 0 15 -4t23.5 -9.5t22.5 -11t13 -7.5q-1 1 1.5 -7t5.5 -18t5 -18t0 -7q0 -8 -7 -8q-8 0 -16.5 -22t-15.5 -56t-13 -74.5t-10 -77t-6.5 -64t-2.5 -34.5q0 -128 34 -128q11 0 25 13t17 13q6 0 6 -7q0 -2 -1 -8t-2 -5l1 -8q1 -4 -2.5 -9.5
t-3.5 -6.5q0 -10 10 -12t10 -10q0 -6 -11 -18.5t-27.5 -25.5t-36 -22.5t-37.5 -9.5q-42 0 -64 46.5t-22 135.5q0 41 1.5 68.5t5.5 53t10.5 56t16.5 76.5q8 38 12 64zM190 877l14 -2l19 2q12 1 15.5 -11t7.5 -26t11 -26t26 -12q20 0 29.5 12t15.5 27t13.5 27t22.5 12
q2 0 12 -2t12 -2q11 0 20.5 0.5t11.5 0.5q8 0 16.5 -7.5t8.5 -13.5q0 -22 -12 -41.5t-31 -34t-43 -23t-47 -8.5q-63 0 -100 36q-15 14 -25.5 35t-10.5 38q0 16 14 19z" />
    <glyph glyph-name="afii10028" unicode="&#x41a;" horiz-adv-x="508" 
d="M320 385v-9q7 0 13.5 -17.5t13 -44t14 -57.5t16.5 -58t20 -45t25 -18q6 0 16 8t20.5 18t20 18t13.5 8q6 0 6 -10q0 -4 -0.5 -9t-0.5 -7q0 -5 5.5 -10.5t5.5 -7.5q-3 -10 -17.5 -29.5t-34.5 -39t-43 -33.5t-43 -14q-43 0 -75 53q-14 24 -21 39.5t-11.5 32t-8.5 38.5
t-12 59q-12 52 -27 52q-9 0 -22 -16t-13 -27q0 -3 0.5 -7t1.5 -10v-118q0 -63 -3 -66q-9 -22 -16 -33.5t-13 -17t-11.5 -6.5t-12.5 -1q-3 0 -8.5 6t-12.5 13t-14.5 13t-14.5 6h-14q-9 20 -9 22q0 8 9 27.5t9 38.5v21t-1 21q-1 16 -1.5 25t-0.5 11t0.5 28t2 57t2.5 57.5
t3 29.5q3 12 3 14l-5 24l4 32l10 118l-4 27q-3 18 -7.5 32.5t-4.5 22.5q3 13 10.5 20t16 10t16.5 3.5t11 0.5q7 0 19 1t21 1q8 0 13 -2t21 -15l8 -27l-4 -11l3 -15q1 -8 -6 -30.5t-11 -83.5l-4 -51q-1 -13 -3.5 -20.5t-2.5 -10.5q0 -5 5 -15t7 -10q8 0 28 25.5t41 56t36 55
t14 22.5q15 21 28.5 34t24 23.5t17.5 21.5t9 27q0 2 -2 5t-2 5q0 5 18 8l6 2l10 -2q-1 0 7.5 4t16.5 4q17 0 25.5 -2.5t12.5 -8t5 -14.5t4 -23q1 -5 9 -14.5t8 -10.5l-1 -8l1 -11l-16.5 -17t-55.5 -53l-50 -46q-34 -32 -47 -57t-19 -32z" />
    <glyph glyph-name="afii10029" unicode="&#x41b;" horiz-adv-x="481" 
d="M421 141l34 27q10 -6 14.5 -5t8.5 -3q7 -23 12.5 -27.5t18.5 -8.5l4 -32q1 -8 -8.5 -21t-24.5 -26.5t-32.5 -23.5t-30.5 -12q-23 -3 -44.5 11.5t-39.5 42.5t-32 67t-23 84q-4 21 -6.5 56.5t-4 73.5t-3 74t-2.5 59q-9 -47 -23 -105.5t-32 -119t-39.5 -120t-45.5 -107.5
q-4 -11 -24 -20t-43 -13.5t-45 -4t-31 8.5q-13 11 -15.5 17t0 10.5t7 9t4.5 12.5q-1 6 -8.5 12.5t-15 13.5t-11.5 15t4 17q21 -2 44 0.5t45.5 13t42.5 31t35 53.5q12 22 31.5 74t38.5 112.5t33 119.5t14 95v16v11l-6 22q-2 8 2.5 15.5t18.5 21.5l22 20l9 4l20 6q9 3 22.5 -3
t26.5 -15t23 -18.5t11 -13.5q-1 4 -4 -21.5t-6.5 -60.5t-6 -69t-2.5 -48q0 -41 3.5 -97.5t11.5 -108t19.5 -87.5t28.5 -35z" />
    <glyph glyph-name="afii10030" unicode="&#x41c;" horiz-adv-x="636" 
d="M563 141l29 15q4 2 8 2t2 -4l-2 -19q9 -16 10 -16l14 1l2 -10q2 -8 -10.5 -21.5t-30 -26t-35 -22.5t-25.5 -11q-53 -8 -75 43.5t-22 143.5q0 21 3.5 54.5t8.5 69.5t10 70t8 56q-9 -20 -12 -29.5t-5 -17t-5 -16t-12 -25.5v-12q0 -9 -9.5 -38t-23 -67.5t-28 -81.5
t-25.5 -79q-14 -47 -25 -58.5t-23 -13.5q-9 -1 -26 6t-32 18.5t-23 24.5t2 25q-1 4 -1 15.5t-1 26.5l-11 89q-2 26 -11 52.5t-19 49t-19 38t-12 20.5l2 -166q-2 -52 -9.5 -106.5t2.5 -106.5q0 -6 -10 -16l-6 -6q-14 -14 -33 -7t-37 25.5t-31 45.5t-13 54q0 11 2.5 54t6 93
t6.5 93t4 54q4 28 5.5 54.5t1.5 33.5v10t-8 8q-9 0 -10.5 6.5t0.5 15.5t5 19.5t3 18.5l-2 42q-1 19 7 29.5t11 33.5q2 11 9 10.5t33 2.5l34 4q23 -2 38.5 -16.5t15.5 -25.5q0 -1 3.5 -11t3.5 -26q19 -46 39.5 -111.5t39.5 -124.5t34.5 -98t23.5 -32q3 1 9.5 11t13 22t12 23
t6.5 15q2 6 10 29t19 54t23 65t22.5 63t17 48l6.5 19l3 16l1.5 7.5l0.5 2.5l-2 23q-1 8 4 15t22 18l25 16l9 2l21 2q9 1 20.5 -7t21.5 -19t17 -22t7 -16q0 4 -5 -19.5t-11 -56t-12 -64.5t-8 -46q0 4 -4.5 -25t-10 -64.5t-10 -64.5t-4.5 -25q0 -101 12 -111q15 -11 19 -17z
" />
    <glyph glyph-name="afii10031" unicode="&#x41d;" horiz-adv-x="521" 
d="M184 252q-1 -6 -3.5 -37t-5.5 -67t-6 -67t-5 -37q0 -7 -4.5 -19t-12.5 -24t-19.5 -20.5t-25.5 -8.5t-30 7t-11 27q0 7 -11.5 10.5t-11.5 14.5q0 6 14 15q6 4 9.5 16.5t5.5 27.5t3.5 30t2.5 24l3 24l3 50q1 12 2 19.5t1 9.5q0 10 -2.5 11.5t-15.5 1.5q-14 13 -13 37t1 43
q0 5 4 5l19 -1q17 -2 17 132q0 4 -0.5 10t-0.5 14v20q0 14 2.5 29t2.5 25t-6.5 8t-7.5 -2q-6 0 -6 12q0 22 21 44.5t51 25.5q3 0 10 -4l8 -4q3 -2 11.5 -5.5t17.5 -10t16 -15t7 -19.5q0 -4 -1.5 -5t-9.5 -3q-7 -2 -10 -28t-4 -59t-1 -65.5v-46.5t-2 -19.5t-2 -10.5
q0 -11 16 -11q3 0 25 5q3 1 17.5 2t30 4t28.5 9t13 17q0 27 3 47q3 19 4.5 25.5t2 11t0 11.5t-0.5 26q0 1 1 7t2.5 13t2.5 12.5t1 6.5l-2 34q-1 13 2.5 22t3.5 10q0 5 -6 9.5t-6 11.5q0 10 5 20t9 10q2 0 16 -10l12 3q20 4 33 7.5t17 5.5q16 10 24.5 7.5t13 -10t5.5 -16
t1 -9.5t-12 -20.5t-12 -45.5v-28q0 3 -3 -16.5t-7 -45t-7 -50t-3 -32.5q0 -28 6 -34q2 -2 9 -2.5t15 -1.5t14.5 -4.5t6.5 -11.5q0 -2 -2.5 -10t-2.5 -12q0 -8 9 -18t9 -24q0 -6 -4 -12t-8 -5l-15 4l-25 -1l-12 1q-5 1 -9.5 -23.5t-0.5 -47.5l3 -22q2 -15 2 -30.5t2 -28
t7.5 -20.5t19.5 -8q-1 -1 6 2t16 7.5t16.5 8l7.5 3.5q5 0 9.5 -4.5t4.5 -9.5q0 -2 -6 -14q0 -12 -0.5 -18t-3.5 -10.5t-9.5 -9.5t-18.5 -15l-20 -17l-26 -10q-10 -4 -16 -7t-10 -3q-19 0 -39.5 15t-30.5 37q-12 27 -12 131v25q0 8 0.5 14.5t0.5 11.5q0 20 -3.5 26t-15.5 6
q-5 0 -20 -2t-32.5 -4.5t-33.5 -5t-22 -4.5z" />
    <glyph glyph-name="afii10032" unicode="&#x41e;" horiz-adv-x="487" 
d="M122 646q1 0 7 -3l10 -5l15 4l6 -1q-3 0 11 7t33.5 15.5t39 15t26.5 6.5q44 0 85 -27.5t61 -69.5q16 -34 26 -90.5t10 -111.5q0 -123 -25 -201q-8 -25 -20.5 -50t-20.5 -33q-4 -4 -16.5 -21t-31.5 -35.5t-42.5 -33.5t-49.5 -15q-28 0 -64.5 14.5t-63.5 34.5
q-16 11 -31 33t-26.5 49t-18 56t-4.5 55l4 75q2 44 8 99t23 128q7 25 7 35l-1 32q0 17 10.5 24.5t32.5 13.5zM291 611l-12 -1q-13 -2 -19.5 -1.5t-9.5 0t-4.5 -2.5t-6.5 -7q-37 -40 -49 -119q-1 -5 -1.5 -6.5t-8.5 -3.5q-6 -3 -11 -28.5t-8 -57.5t-5 -64t-2 -48
q0 -28 1.5 -55t5.5 -51q1 -8 5 -22.5t9.5 -29t12 -25t12.5 -9.5l14 2q51 8 77.5 47.5t44.5 104.5q15 54 15 142q0 79 -15 148q-3 15 -5 22.5t-5 13.5t-8 14t-14 24q-7 11 -7.5 12t-5.5 1z" />
    <glyph glyph-name="afii10033" unicode="&#x41f;" horiz-adv-x="447" 
d="M360 679q3 0 20 -5q28 -1 37 -1t22 -15q5 -7 5.5 -9.5t0.5 -16.5l1 -18q0 -3 -9 -23q-4 -6 -7 -28.5t-5 -48t-3 -47.5t-1 -28l1 -30q1 -27 -3 -54t-5 -51q0 -4 -1.5 -29.5t-1.5 -45.5q0 -11 2.5 -30t2.5 -21l-1 -21l3 -13l-1 -23q0 -1 2.5 -19t8.5 -54l3 -16
q1 -4 -15 -18l-6 -6l-14 -4l-24 -9q-2 -1 -11 4t-15 7l-10 6q-12 8 -28 23t-16 25q0 4 4 11.5t4 9.5v13q0 1 2 9t2 11q0 11 -1 21.5t-1 32.5v22t1 36l1 60l4 40v62l6 45q3 21 2.5 43t1.5 42q2 11 3 22t1 21v4q-5 3 -22 3q-2 0 -19 1t-33 1q-11 0 -32.5 -6t-43.5 -6
q-4 -15 -7.5 -36t-5.5 -42.5t-3.5 -40.5t-1.5 -31q0 -34 -3.5 -71t-2.5 -90l1 -55q0 -11 1.5 -27t4 -32.5t4.5 -32t4 -25.5q6 -27 1.5 -40t-13.5 -17.5t-21 -4t-22 0.5q-34 2 -44.5 3.5t-15.5 6.5q-10 9 -10 41q0 25 1 65t3 96l4 88l4 46l1 52l4 64q2 38 -0.5 60.5
t-1.5 21.5q-3 5 -11 5q-4 0 -13 -0.5t-17 -0.5q-14 0 -14 6q0 4 2.5 11.5t2.5 11.5q0 7 -6.5 17.5t-5.5 21.5l1 19q1 17 2.5 22t11.5 5q14 0 26.5 -4t28.5 -4q20 0 52 2t62 5t52.5 5t24.5 2q3 0 16.5 -1t23.5 -1q36 0 49 -4q9 5 19 3z" />
    <glyph glyph-name="afii10034" unicode="&#x420;" horiz-adv-x="461" 
d="M90 534q1 0 -5.5 -5t-16.5 -10.5t-20 -10.5t-16 -5q-2 0 -11 7t-19 18t-18 24.5t-8 27.5q0 9 34 26.5t81.5 35t97.5 30.5t83 13q45 0 79.5 -19.5t50.5 -53.5q5 -13 7 -15l13 -13q6 -6 12.5 -19.5t11 -29.5t7.5 -31t3 -24q0 -22 -10 -54t-25 -57q-11 -19 -32.5 -40.5
t-47.5 -40t-53.5 -30.5t-51.5 -12q-3 0 -10.5 2.5t-14.5 6l-13 6.5l-6 3q-3 0 -6 -6t-2 -12l2 -48v-41v-47.5t1.5 -27.5t5 -17t9.5 -16q2 -2 2 -7q0 -14 -15 -29.5t-29 -15.5q-13 0 -24.5 7t-17.5 18q-3 6 -11 10.5t-16.5 9t-15 10t-6.5 12.5q0 2 5.5 6t5.5 8q0 7 -1 15
t-1 14v32t2 39q5 53 6 104q2 48 4 101t6 111q1 6 1.5 12t0.5 12q0 16 -8 16zM189 564q9 -4 16 -11t7 -11q-3 9 -7 -18t-7.5 -63.5t-5.5 -68.5t-2 -34q0 -18 13 -18q16 0 42 14.5t51 36.5q38 34 55 67.5t17 73.5q0 33 -20.5 48.5t-46.5 15.5q-28 0 -112 -32z" />
    <glyph glyph-name="afii10035" unicode="&#x421;" horiz-adv-x="466" 
d="M304 612q-5 0 -14.5 6t-19.5 6q-25 0 -47 -30.5t-38.5 -76.5t-26.5 -99t-10 -98q0 -11 2.5 -31t6.5 -42.5t9.5 -44.5t11.5 -35l7 -15l13 -10q14 -11 21.5 -20.5t12.5 -12.5q23 -14 48 -14q34 0 70 30q15 12 28.5 27t23.5 28t16.5 21.5t8.5 8.5q14 0 24 -11t10 -16
q0 -17 -12 -39t-29.5 -44t-37.5 -42t-36 -32q-8 -8 -22 -13t-29 -8.5t-29 -5t-20 -1.5q-20 0 -34 2t-26 7.5t-24 14.5t-28 24q-29 28 -48.5 55t-29.5 49q-23 60 -23 142q0 132 47 247q29 69 72.5 108t93.5 39q9 0 37.5 -3.5t58.5 -12.5t53.5 -23.5t23.5 -35.5q0 -7 -1.5 -25
t-1.5 -22q0 -77 4 -94q1 -3 1 -10q0 -10 -13 -19.5t-18 -9.5q-9 0 -17 -2.5t-11 -2.5q-1 0 -9 3t-17.5 8t-17.5 9.5t-8 7.5q0 9 -3 20t-2 44l3 74q0 7 -4 20z" />
    <glyph glyph-name="afii10036" unicode="&#x422;" horiz-adv-x="346" 
d="M125 558h-31l-37 2q1 0 -9.5 -2.5t-17.5 -2.5q-9 0 -8 9v13q0 23 -9.5 38t-9.5 35q0 5 10 14.5t15 9.5l38 -3q2 0 28 4.5t48 4.5h74q19 0 34.5 1t27.5 1q33 0 47 -12.5t14 -52.5q0 -5 -2.5 -13t-6.5 -17l2 -15q0 -2 -4 -7t-6 -5l-7 2t-11 2h-10q-20 0 -34.5 -2.5
t-14.5 -21.5q0 1 -3.5 -30.5t-8 -73.5t-8 -84t-3.5 -61v-59.5t1.5 -69.5t5 -67t11.5 -52q-2 3 -1.5 -4t-3.5 -16.5t-15 -17.5t-34 -8q-6 0 -14 6.5t-18 7.5l-10 9l-15 7l-9 13q-10 16 -14 14t-4 8q0 8 5 12.5t5 27.5q0 48 2 101.5t5 112.5q2 48 3.5 81t2.5 49q1 72 6 77
q3 13 3 26q0 7 -9 9z" />
    <glyph glyph-name="afii10037" unicode="&#x423;" horiz-adv-x="470" 
d="M254 412l12 -22q10 13 29 46t38.5 70.5t34.5 71.5t17 48q5 29 30 41.5t63 12.5q9 0 10 -3.5t2 -20.5q0 -9 5.5 -13t11.5 -8t10 -11t1 -22q-39 -35 -65 -91.5t-62 -132t-93.5 -168.5t-158.5 -201q-6 -6 -31 -1q-3 2 -15.5 1.5t-13.5 1.5l-17 21q-6 7 -12 21t-10.5 29
t-7 27t-0.5 15q6 8 25 18t42.5 26.5t46 42t35.5 66.5l-36 81q-12 27 -21.5 44t-14.5 28q-7 18 -11.5 30t-8.5 21t-10 17t-17 17l-8 -9q-10 -10 -11.5 -25.5t-10.5 -15.5q-11 0 -24 13q-13 9 -25.5 21.5t-4.5 29.5q0 -11 8 13.5t22 57t35 60.5t46 24l21 -3q2 -1 13.5 -6
t25 -14.5t13.5 -18.5l-6 -30q15 -19 27 -64q5 -21 24 -50.5t47 -85.5z" />
    <glyph glyph-name="afii10038" unicode="&#x424;" horiz-adv-x="639" 
d="M243 228q1 2 8 4.5t14 4.5q4 47 7.5 89.5t3.5 55.5q0 16 -8 16q-11 -9 -22.5 -10.5t-27.5 -17.5q-9 -7 -16 -4t-12.5 11.5t-10.5 20t-10 22.5q-4 -3 -7 -5.5t-7 -5.5q-38 -34 -55 -67.5t-17 -73.5q0 -34 20 -48.5t46 -14.5q6 0 21 3t30.5 6.5t28 7.5t14.5 6zM256 112v12
q-22 -3 -46 -6t-33 -3q-45 0 -78.5 20t-49.5 54q-6 12 -15 26.5t-17.5 31t-15 35t-6.5 37.5q0 22 7.5 46.5t19.5 48t28 43.5t33 33q41 31 62.5 42t41.5 13q6 0 13 4t15 4q21 1 25 -5t5.5 -13t7 -11t28.5 2q3 27 3 40q0 21 -9 36.5t-9 25.5q0 13 7 23.5t16.5 17.5t19 10.5
t13.5 3.5q3 0 20 -5q28 -1 37 -0.5t21 -15.5q5 -7 5.5 -9.5t1.5 -16.5l1 -18q0 -8 -8.5 -28t-10.5 -48q36 6 63 6q45 0 78.5 -20t49.5 -54q6 -12 15 -26.5t17.5 -31t15 -34.5t6.5 -38q0 -22 -7.5 -46.5t-19.5 -48t-28 -43.5t-33 -33q-41 -31 -62.5 -42t-41.5 -13
q-6 0 -13 -4t-15 -4q-9 -1 -17.5 4t-16 9t-12 4.5t-4.5 -9.5l4 -22l4 -34q10 -16 10 -20q0 -14 -15 -29.5t-29 -15.5q-13 0 -24.5 7t-17.5 18q-3 6 -11 10.5t-16.5 9t-15 10t-6.5 12.5q0 2 5.5 6t5.5 8q0 8 -1 17t-1 17zM386 435q-6 -5 -6 -6l3 -41q-8 -21 -11.5 -58
t-3.5 -106q0 -20 13 -20q16 0 42 14t51 36q38 34 55 67.5t17 73.5q0 34 -20 48.5t-46 14.5q-6 0 -21 -3t-30.5 -6.5t-28 -7.5t-14.5 -6z" />
    <glyph glyph-name="afii10039" unicode="&#x425;" horiz-adv-x="492" 
d="M298 351q4 -16 13.5 -40t19.5 -47t18 -39.5t9 -17.5q8 -9 15 -22.5t15.5 -26t18.5 -21.5t23 -9q3 0 11.5 4t17.5 9t17 9t10 4q1 0 4 -2.5t3 -3.5l-4 -16l5 -7.5t5 -9.5l-4 -15t-17 -32.5t-36 -32.5t-62 -15q-13 0 -29 9t-31.5 21.5t-28.5 27t-19 24.5q-2 2 -7.5 16
t-14 32t-18.5 37.5t-19 33.5q-25 -31 -43 -67.5t-40 -105.5q-8 -25 -22 -35.5t-30 -10.5q-4 0 -8 5.5t-7 12.5t-7 12.5t-8 5.5t-11 -2t-11 -2q-11 0 -11 14q0 18 11 38l42 59l45 67q24 36 39.5 59t21.5 33q-4 11 -9.5 22.5t-10.5 23.5t-13 34t-18 47t-22 48.5t-24 38.5
l-8 -8q-1 -1 -4 -7.5t-6.5 -14t-7 -13.5t-5.5 -6q-3 0 -11.5 4.5t-17.5 12.5t-16.5 19t-7.5 25q0 4 19 29.5t31 63.5q6 21 22 34.5t33.5 19.5t32.5 5t19 -10q0 -1 6 -6t12.5 -11t10.5 -12t1 -9l-8 -28q1 3 13.5 -31t37.5 -85q1 -1 5.5 -13t10 -25.5t11 -24.5t8.5 -11
q-4 -1 20 29.5t72 125.5l26 53q6 12 17.5 31.5t38.5 19.5q10 0 18.5 2t9.5 1h14q8 0 9 -1.5t1 -16.5q0 -14 15 -38q-16 -7 -26 -17t-21.5 -28t-27 -44.5t-43.5 -66.5q-31 -44 -52.5 -73t-30.5 -42z" />
    <glyph glyph-name="afii10040" unicode="&#x426;" horiz-adv-x="585" 
d="M34 167l-2 103q2 22 5.5 56.5t6.5 68.5t5 62t1 37q-2 22 -9.5 25t-17 -1.5l-19 -9t-15.5 2.5q-3 9 1.5 35.5t15 55.5t27 53.5t37.5 28.5q1 0 9 -4t13 -4q11 0 27 3t19 3q17 0 30.5 -13t13.5 -29q0 -4 -1.5 -9t-1.5 -7t2.5 -6t3.5 -8q-2 -3 -9 -45.5t-14 -102t-12.5 -124
t-5.5 -112.5q0 -42 14.5 -72t43.5 -30q18 0 40.5 25t32.5 69q6 26 14 75t15.5 102.5t12.5 102.5t5 74q0 14 -2 24.5t-2 19.5q-2 -2 0 2.5t4.5 11.5t5 13.5t2.5 8.5t-0.5 2t-0.5 2q-1 6 2 12.5t11 6.5q13 0 30 -10.5t24 -10.5q2 0 13 2t15 2q10 0 19.5 -10t8.5 -18l-2 -23
l9 -45q2 -12 -3.5 -29.5t-14 -39t-15.5 -44.5t-8 -46q-2 -35 -3 -54.5t-5 -31.5l1 -33q1 -18 -2.5 -29t-3.5 -15q0 -11 1.5 -26.5t7 -31t16 -28t28.5 -18.5q11 -3 22.5 0.5t24.5 6.5t28 3t33 -11q21 -13 25 -52.5t-4.5 -85t-27 -88.5t-41.5 -62q-9 -7 -28 -7.5t-21 -2.5
q-6 -6 -12.5 4t-9.5 9q-8 -1 -11 -0.5t-5 2t-5 4t-11 4.5l-8 8q-4 3 2.5 17.5t19 34.5t27 43t25 44t14 36t-6.5 20q-9 4 -20 -1.5t-23 -13.5t-24.5 -15t-24.5 -5q-23 0 -37.5 9t-24 26.5t-15.5 43t-13 57.5q-4 -15 -7 -21t-5.5 -9.5t-5 -7.5t-7.5 -16q-6 -17 -9.5 -28.5
t-9.5 -21t-17 -18t-32 -18.5q-15 -8 -26 -15.5t-20 -7.5q-19 0 -46 13.5t-44 33.5q-34 39 -43 119zM186 607q0 1 -0.5 1.5t-0.5 1.5t0.5 0t0.5 -3z" />
    <glyph glyph-name="afii10041" unicode="&#x427;" horiz-adv-x="542" 
d="M329 135l20 172q-28 -68 -89 -106q-14 -9 -22 -15t-17 -6q-19 0 -46 13.5t-44 33.5q-47 53 -47 192v75q0 4 -3.5 11.5t-7.5 15t-7.5 14t-3.5 9.5q-4 -12 -1 8.5t10 50t16 55.5t17 26q1 0 9 -4t13 -4q11 0 27 3t19 3q17 0 30.5 -13t13.5 -29q0 -4 -1.5 -9t-1.5 -7
t3.5 -8.5t3.5 -9.5q0 17 -3 4.5t-7 -45t-7 -79.5t-3 -99q0 -42 14.5 -72t43.5 -30q18 0 40.5 25t32.5 69q11 52 18 97.5t7 95.5q0 14 -2 24.5t-2 19.5q-2 -2 0 2.5t4.5 11.5t5 13.5t2.5 8.5t-0.5 2t-0.5 2q-1 6 2 12.5t11 6.5q13 0 30 -10.5t24 -10.5q2 0 13 2t15 2
q10 0 19.5 -10t8.5 -18l-2 -23l2 -20q1 -12 -4 -33.5t-11.5 -47.5t-12 -53t-6.5 -50q-2 -35 -3 -54.5t-5 -31.5l1 -33q1 -18 -2.5 -29t-3.5 -15q0 -50 11 -81t29 -31q5 0 11 4t10 4t4 -4q0 -2 -2 -6.5t-2 -6.5q0 -5 12 -20l2 -9q1 -3 0.5 -5t-0.5 -3v-4q0 -4 -11 -15.5
t-26 -23t-30 -20.5t-22 -9q-23 0 -37.5 7.5t-24.5 23.5t-17.5 39.5t-16.5 54.5z" />
    <glyph glyph-name="afii10042" unicode="&#x428;" horiz-adv-x="769" 
d="M291 156q-4 -15 -6 -21.5t-4 -10t-5 -7.5t-10 -15q-17 -26 -20.5 -39t-4.5 -21t-5 -14.5t-23 -18.5q-14 -9 -33 -12.5t-28 -3.5q-19 0 -46 13.5t-44 33.5q-47 53 -47 192q0 2 3 37.5t7 79.5t7 84.5t3 52.5q0 21 -8 21.5t-18.5 -5.5t-21 -12.5t-15.5 0.5q-6 10 3.5 40.5
t24.5 62.5t31.5 57.5t23.5 25.5q1 0 9 -4t13 -4q11 0 27 3t19 3q17 0 30.5 -13t13.5 -29q0 -4 -1.5 -9t-1.5 -7t2 -6l4 -8q-2 -3 -9 -45.5t-14 -102t-12.5 -124t-5.5 -112.5q0 -42 14.5 -72t43.5 -30q18 0 44.5 28t36.5 72l25 54q2 22 5 56.5t6 68.5t5 62t2 37
q0 4 -3.5 11.5t-7.5 15t-7.5 14t-3.5 9.5q-5 -12 -1.5 8.5t10.5 50t16.5 55.5t16.5 26q1 0 9 -4t13 -4q11 0 27 3t19 3q17 0 30.5 -13t13.5 -29q0 -4 -1.5 -9t-1.5 -7t2 -6l4 -8q-2 -3 -9 -45.5t-14 -102t-12.5 -124t-5.5 -112.5q0 -42 14.5 -72t43.5 -30q18 0 40.5 25
t32.5 69q6 26 14 75t15.5 102.5t12.5 102.5t5 74q0 14 -2 24.5t-2 19.5q-1 -2 0.5 2.5t4 11.5t5 13.5t2.5 8.5t-0.5 2t-0.5 2q-1 6 2 12.5t11 6.5q13 0 30 -10.5t24 -10.5q2 0 13 2t15 2q10 0 19.5 -10t8.5 -18l-2 -23l2 -20q1 -12 -4 -33.5t-11.5 -47.5t-12 -53t-6.5 -50
q-1 -35 -2.5 -54.5t-5.5 -31.5l1 -33q1 -18 -2.5 -29t-3.5 -15q0 -50 11 -81t29 -31q5 0 11 4t10 4t4 -4q0 -2 -2 -6.5t-2 -6.5q0 -5 12 -20l2 -9q1 -3 0.5 -5t-0.5 -3v-4q0 -4 -10.5 -12.5t-24.5 -17t-28 -14.5t-21 -6q-23 0 -37.5 9t-24 26.5t-15.5 43t-13 57.5
q-4 -15 -6 -21.5t-4 -10t-5 -7.5t-10 -15q-17 -26 -23.5 -38.5t-12 -19.5t-13 -12.5t-26.5 -17.5q-14 -9 -22 -15t-17 -6q-19 0 -46 13.5t-44 33.5q-34 39 -43 119zM447 607q0 1 -0.5 1.5t-0.5 1.5t0.5 0t0.5 -3zM171 599q0 1 -0.5 1.5t-0.5 1.5t0.5 0t0.5 -3z" />
    <glyph glyph-name="afii10043" unicode="&#x429;" horiz-adv-x="846" 
d="M291 156q-4 -15 -6 -21.5t-4 -10t-5 -7.5t-10 -15q-17 -26 -20.5 -39t-4.5 -21t-5 -14.5t-23 -18.5q-14 -9 -33 -12.5t-28 -3.5q-19 0 -46 13.5t-44 33.5q-47 53 -47 192q0 2 3 37.5t7 79.5t7 84.5t3 52.5q0 21 -8 21.5t-18.5 -5.5t-21 -12.5t-15.5 0.5q-6 10 3.5 40.5
t24.5 62.5t31.5 57.5t23.5 25.5q1 0 9 -4t13 -4q11 0 27 3t19 3q17 0 30.5 -13t13.5 -29q0 -4 -1.5 -9t-1.5 -7t2 -6l4 -8q-2 -3 -9 -45.5t-14 -102t-12.5 -124t-5.5 -112.5q0 -42 14.5 -72t43.5 -30q18 0 44.5 28t36.5 72l25 54q2 22 5 56.5t6 68.5t5 62t2 37
q0 4 -3.5 11.5t-7.5 15t-7.5 14t-3.5 9.5q-5 -12 -1.5 8.5t10.5 50t16.5 55.5t16.5 26q1 0 9 -4t13 -4q11 0 27 3t19 3q17 0 30.5 -13t13.5 -29q0 -4 -1.5 -9t-1.5 -7t2 -6l4 -8q-2 -3 -9 -45.5t-14 -102t-12.5 -124t-5.5 -112.5q0 -42 14.5 -72t43.5 -30q18 0 40.5 25
t32.5 69q6 26 14 75t15.5 102.5t12.5 102.5t5 74q0 14 -2 24.5t-2 19.5q-1 -2 0.5 2.5t4 11.5t5 13.5t2.5 8.5t-0.5 2t-0.5 2q-1 6 2 12.5t11 6.5q13 0 30 -10.5t24 -10.5q2 0 13 2t15 2q10 0 19.5 -10t8.5 -18l-2 -23l2 -20q1 -12 -4 -33.5t-11.5 -47.5t-12 -53t-6.5 -50
q-1 -35 -2.5 -54.5t-5.5 -31.5l1 -33q1 -18 -2.5 -29t-3.5 -15q0 -11 1.5 -26.5t7 -31t16 -28t28.5 -18.5q11 -3 24.5 -2t28 2.5t28.5 2t27 -3.5q24 -7 28 -46t-5 -86t-28.5 -92t-42.5 -64q-9 -7 -28 -7.5t-21 -2.5q-6 -6 -12.5 4t-9.5 9q-8 -1 -11 -0.5t-5 2t-5 4t-11 4.5
l-8 8q-4 3 3 18t19.5 36t27.5 44.5t26 43.5t15.5 33.5t-3.5 14.5q-9 1 -24.5 -3.5t-31 -10.5t-28 -11t-15.5 -5q-23 0 -37.5 9t-24 26.5t-15.5 43t-13 57.5q-4 -15 -6 -21.5t-4 -10t-5 -7.5t-10 -15q-17 -26 -23.5 -38.5t-12 -19.5t-13 -12.5t-26.5 -17.5q-14 -9 -22 -15
t-17 -6q-19 0 -46 13.5t-44 33.5q-34 39 -43 119zM447 607q0 1 -0.5 1.5t-0.5 1.5t0.5 0t0.5 -3zM171 599q0 1 -0.5 1.5t-0.5 1.5t0.5 0t0.5 -3z" />
    <glyph glyph-name="afii10044" unicode="&#x42a;" horiz-adv-x="508" 
d="M203 578l4 -19q14 -4 10.5 -17.5t-3.5 -23.5l-5 -8q-14 -17 -13.5 -41t-3.5 -71q-1 -13 12 -13q44 0 75 -5.5t53.5 -13t39.5 -16.5t32 -16q34 -16 56 -53t22 -79q0 -10 -6.5 -36.5t-18 -54t-26.5 -49t-33 -21.5l-12 -3l-20 -14q-6 -4 -18 -8.5t-27.5 -8t-32 -5.5
t-30.5 -2q-20 0 -40 11.5t-33 18.5q-6 -52 -18 -52q-4 0 -11.5 4.5t-6.5 3.5l-14 -2q-7 -1 -14 1.5t-10 2.5q-22 0 -26.5 15.5t-4.5 26.5q0 8 -3 20.5t-3 13.5q0 2 2 12q2 8 2.5 13t0.5 12.5v19.5t1 33l6 114q3 50 3 67t-0.5 25t0.5 21t5 55q2 16 3 32t1 32q0 26 -15 26
q-36 -1 -58.5 -21t-22.5 -30q-22 10 -26 12.5t-4 10.5t8 42q-14 20 -14 24q0 11 20 24.5t49 25.5t62.5 19.5t59.5 5.5t40.5 -16t5.5 -45zM185 105q1 1 5 1q2 0 20.5 -12.5t37.5 -12.5q23 0 46 13t41.5 34t30 46.5t11.5 49.5q0 38 -26.5 55.5t-66.5 17.5q-48 0 -99 -15
q-1 -12 -1 -25v-27v-52q0 -20 -1 -31t-1 -13q0 -6 3 -29z" />
    <glyph glyph-name="afii10045" unicode="&#x42b;" horiz-adv-x="650" 
d="M110 611q40 9 47 -21q5 -22 3.5 -41t-5.5 -40.5t-10 -48t-10 -62.5q-2 -15 12 -13q47 3 75.5 -3t47.5 -16t32 -21.5t28 -18.5q34 -16 64.5 -49t30.5 -75q0 -10 -6.5 -36.5t-18 -54t-26.5 -49t-33 -21.5l-12 -3l-20 -14q-6 -4 -18 -8.5t-27.5 -8t-32 -5.5t-30.5 -2
q-20 0 -40 11.5t-33 18.5q-6 -52 -18 -52q-4 0 -11.5 4.5t-6.5 3.5l-14 -2q-7 -1 -14 1.5t-10 2.5q-22 0 -26.5 15.5t-4.5 26.5q0 8 -3 20.5t-3 13.5q0 2 2 12q2 8 2.5 13t0.5 12.5v19.5t1 33l6 114q3 50 3 67t-0.5 25t0 21t5.5 55q1 16 2.5 32t1.5 32q0 13 -5.5 23.5
t-12.5 10.5q-7 25 4 40.5t28 26.5q15 10 30.5 16t24.5 -6zM128 105q1 1 5 1q2 0 20.5 -12.5t37.5 -12.5q23 0 46 13t41.5 34t30 46.5t11.5 49.5q0 38 -26.5 55.5t-66.5 17.5q-48 0 -99 -15q-1 -12 -1 -25v-27v-52q0 -20 -1 -31t-1 -13q0 -6 3 -29zM549 626q3 0 21 -5
q28 -1 38 -1t23 -14q5 -7 5.5 -9.5t0.5 -16.5l1 -17q0 -3 -9 -23q-5 -6 -8 -28t-5 -46.5t-3 -46t-1 -26.5l1 -30q1 -26 -3 -52.5t-5 -49.5q0 -4 -1.5 -28.5t-1.5 -44.5q0 -10 2.5 -28.5t2.5 -20.5l-1 -21l3 -12l-1 -23q0 -1 4 -23t26 -50l10 -13q8 -10 -3 -14.5t-22 -6.5
l-22 -3l-15 -3l-24 -9q-2 -1 -11.5 4t-15.5 6l-11 6q-12 8 -28.5 22.5t-16.5 24.5q0 4 4 11t4 9v13q0 1 2 9t2 10q0 11 -1 21.5t-1 31.5v21.5t1 34.5l1 59l5 39v60l6 44q3 20 2.5 41.5t1.5 40.5q2 11 3 22t1 20q0 21 -9.5 36t-9.5 26q0 7 5 16.5t13 18t18.5 14.5t21.5 4z
" />
    <glyph glyph-name="afii10046" unicode="&#x42c;" horiz-adv-x="432" 
d="M91 611q40 9 47 -21q5 -22 3.5 -41t-5.5 -40.5t-10 -48t-10 -62.5q-2 -15 12 -13q47 3 75.5 -3t47.5 -16t32 -21.5t28 -18.5q34 -16 64.5 -49t30.5 -75q0 -10 -6.5 -36.5t-18 -54t-26.5 -49t-33 -21.5l-12 -3l-20 -14q-6 -4 -18 -8.5t-27.5 -8t-32 -5.5t-30.5 -2
q-20 0 -40 11.5t-33 18.5q-6 -52 -18 -52q-4 0 -11.5 4.5t-6.5 3.5l-14 -2q-7 -1 -14 1.5t-10 2.5q-22 0 -26.5 15.5t-4.5 26.5q0 8 -3 20.5t-3 13.5q0 2 2 12q2 8 2.5 13t0.5 12.5v19.5t1 33l6 114q3 50 3 67t-0.5 25t0.5 21t5 55q2 16 3 32t1 32q0 13 -5 23.5t-13 10.5
q-8 25 3.5 40.5t28.5 26.5q15 10 30.5 16t24.5 -6zM109 105q1 1 5 1q2 0 20.5 -12.5t37.5 -12.5q23 0 46 13t41.5 34t30 46.5t11.5 49.5q0 38 -26.5 55.5t-66.5 17.5q-48 0 -99 -15q-1 -12 -1 -25v-27v-52q0 -20 -1 -31t-1 -13q0 -6 3 -29z" />
    <glyph glyph-name="afii10047" unicode="&#x42d;" horiz-adv-x="471" 
d="M248 623q-8 -12 -8 -19l-14 -72q-7 -33 -12 -43t-8 -18q-1 -3 -9.5 -6t-19 -5.5t-19 -3.5l-8.5 -1q-3 0 -10.5 4.5t-15.5 6.5q-5 1 -15.5 13t-9.5 22q1 2 2 4.5t2 4.5q8 18 25 91q1 4 3.5 22t4.5 25q4 21 30.5 29.5t57.5 10.5t59.5 -1t37.5 -5q49 -11 82.5 -59t46.5 -122
q10 -60 8 -123t-18 -128q-18 -80 -54 -133q-29 -42 -99 -84q-37 -21 -60 -25.5t-60 4.5q-6 2 -19 6t-27 11t-26.5 15t-18.5 17q-13 16 -28.5 39.5t-27.5 49t-18.5 50t-2.5 40.5q1 5 13 13t26 6q2 0 6.5 -10.5t11 -25.5t16.5 -32.5t22 -32.5q29 -38 62 -44q24 -6 49 2
q6 2 15.5 10t25.5 15l15 7l10 13q9 12 19 31.5t19 40.5t16 40t9 30q1 3 -22 8t-53 5q-22 -1 -38.5 -8t-30.5 -13t-28 -7t-32 10q-2 2 -7.5 7t5.5 11q4 2 2 11t3 10q16 6 28 16t23 20t23 19t27 13q18 5 37.5 1t35.5 -8.5t27 -6.5t12 7q5 39 2.5 78t-10.5 71.5t-22 54
t-32 25.5q-10 2 -20.5 -1.5t-15.5 -2.5z" />
    <glyph glyph-name="afii10048" unicode="&#x42e;" horiz-adv-x="690" 
d="M344 645q1 0 7 -3l10 -5l15 4l6 -1q-3 0 11 7t33.5 15.5t39 15t26.5 6.5q44 0 90.5 -25.5t66.5 -67.5q16 -34 25 -81t9 -102q0 -61 -10.5 -122.5t-23.5 -101.5q-8 -25 -20.5 -50t-20.5 -33q-4 -4 -16.5 -21t-31.5 -35.5t-42.5 -33.5t-49.5 -15q-28 0 -64.5 15t-63.5 34
q-16 11 -31 33t-26.5 49t-18 56t-4.5 55v20t-3 21t-10 15.5t-22 3.5q-24 -5 -40 -16.5t-33 -18.5q-11 -16 -11 -30q0 -11 2.5 -30t2.5 -21l-1 -21l3 -13l-1 -23q0 -1 -2 -20.5t13 -52.5l8 -18q4 -8 -4 -8.5t-16 -7.5l-6 -6l-14 -4l-24 -9q-2 -1 -11 4t-15 7l-10 6
q-12 8 -28 23t-16 25q0 4 4 11.5t4 9.5v13q0 1 2 9t2 11q0 11 -1 21.5t-1 32.5q0 4 3 11t5.5 15t1.5 16t-9 16l-18 17l23 83v62l6 45q3 21 2.5 43t1.5 42q2 11 3 22t1 21q0 22 -9 37t-9 26q0 7 4.5 17t12.5 19t18 14.5t21 4.5q3 0 20 -5q28 -1 37 -1t22 -15q5 -7 5.5 -9.5
t0.5 -16.5l1 -18q0 -3 -9 -23q-4 -6 -7 -28.5t-5 -48t-3 -47.5t-1 -28l1 -30q0 -11 -0.5 -21t-1.5 -21q10 3 23 5.5t26 7.5q27 10 51 28t26 27q5 22 8.5 47.5t10.5 53.5q7 25 7 35l-1 32q0 17 10.5 24.5t32.5 13.5zM513 610l-12 -1q-13 -1 -19.5 -1t-9.5 -0.5t-4.5 -2.5
t-6.5 -7q-37 -40 -49 -119q-1 -5 -1.5 -6.5t-8.5 -3.5q-6 -3 -11 -28.5t-8 -58t-5 -64t-2 -47.5q0 -28 1.5 -55t5.5 -51q1 -8 5 -22.5t9.5 -29t12 -25t12.5 -9.5l14 2q51 8 72.5 51.5t39.5 108.5q8 27 16.5 58.5t8.5 75.5q0 40 -4.5 65.5t-11.5 60.5q-3 15 -5 26t-4.5 21
t-7.5 21.5t-14 27.5q-7 11 -7.5 12t-5.5 1z" />
    <glyph glyph-name="afii10049" unicode="&#x42f;" horiz-adv-x="515" 
d="M436 535q-2 -5 -4 -9.5t-2 -8.5q-1 -17 0.5 -41t-0.5 -38q0 -12 -2.5 -31t-4.5 -31t-2 -14q0 -4 1.5 -18.5t0.5 -37.5l-4 -58l-1 -101l-6 -51q-1 -19 6 -32q-1 -9 -15 -21.5t-31 -24t-31 -19.5t-15 -8q1 0 -9 1t-22 7l-14 6l-7 6l6 10q1 2 -1 4t-2 6q0 3 8 9.5t7 10.5
l2 12q0 3 5.5 8t5.5 7l-3 24l7 38v12.5t1 32.5q0 3 -0.5 8t0.5 11l2 20t1 19l2 6q1 12 -6.5 21t-18.5 10h-23q-8 -2 -15 -33l-72 -153q-24 -34 -53 -54t-57 -20q-11 0 -26.5 5.5t-29 14t-22.5 19.5t-8 24q1 7 3 8.5t4.5 2t5 4t3.5 15.5q0 5 4 5q6 1 17 -4t14 -5q11 0 21 11
t23 31q21 28 35 54.5t20 52.5q4 17 7.5 25.5t11.5 15.5l-6 8q-5 9 -7 11t-19 13q-20 12 -36 34.5t-26.5 49t-15.5 54t-3 50.5q2 28 17 44t44 44q6 6 13.5 14.5l15 17t13 15t7.5 8.5q29 29 86 29q51 -1 103 -16t93.5 -33.5t67 -34t25.5 -17.5q0 -3 -3.5 -10.5t-3.5 -8.5
q0 -7 3 -14.5t2 -18.5q-1 -19 -8.5 -30t-17.5 -12q-3 0 -12 6t-19 13t-18.5 13t-11.5 7zM323 575q-9 6 -26 11t-36 8.5t-37 6t-27 2.5q-25 0 -42 -16.5t-18 -41.5q-3 -30 14.5 -65t43.5 -64.5t55.5 -49.5t51.5 -20q8 1 14.5 7t6.5 13q3 7 0 16q-4 3 -1 53q3 29 0.5 52
t-0.5 44q1 9 -4 12.5t-5 5.5q0 13 23 19z" />
    <glyph glyph-name="afii10065" unicode="&#x430;" horiz-adv-x="368" 
d="M194 100q-4 -6 -13.5 -23t-22 -35t-28.5 -32t-32 -14q-40 0 -63 40t-23 91q0 31 6 73t16 94q3 15 16.5 49t36 61t53 34.5t68.5 -30.5q5 -5 9 -5q3 0 18.5 -2t33 -7.5t31.5 -14.5t14 -23q0 -2 -4 -9.5t-4 -9.5v-19q0 -20 -13 -59t-13 -85q0 -20 7.5 -42.5t20.5 -22.5
q9 0 21 13t22.5 28.5t18 28.5t8.5 13q4 0 4 -6q0 -4 -1 -11.5t-1 -14.5q0 -5 0.5 -11.5t0.5 -8.5q0 -5 -8 -21.5t-23.5 -34.5t-37.5 -32t-50 -14q-14 3 -33.5 15t-34.5 47zM176 376q-8 -1 -19 -23.5t-21.5 -56.5t-18 -74.5t-7.5 -76.5q0 -19 5.5 -42t16.5 -23l8.5 11
t18 27.5t17.5 36.5t8 38l4 12l1 20q1 15 7.5 40.5t9 50t-2.5 42.5t-27 18z" />
    <glyph glyph-name="afii10066" unicode="&#x431;" horiz-adv-x="312" 
d="M198 108q-4 -8 -13 -24t-20.5 -32t-25.5 -28t-29 -12q-16 0 -34 7.5t-32.5 22.5t-24 38.5t-9.5 55.5v16t2 16q2 21 2 33.5v15.5q0 60 11.5 102.5t28.5 73.5t37 54t38 44t31 43t15 50q1 1 1 14q0 4 -3.5 18.5t-3.5 29.5q0 4 3.5 13t11.5 18.5t23 16.5t37 7q4 0 13 -3.5
t17.5 -8.5t14 -11t3.5 -11v-15q0 -2 4.5 -7.5t4.5 -6.5q2 -38 0.5 -66t-11.5 -50.5t-30 -41t-55 -36.5q-46 -24 -67 -48t-30 -75q-4 -23 -5 -40t-1 -21q0 -6 0.5 -25t1.5 -40.5t2.5 -40t2.5 -24.5q6 -34 27 -34q4 0 10 8t12 19.5t10 25t4 23.5q0 11 -2.5 26t-2.5 44
q0 66 -12 86q-7 14 -12 21t-5 9t6.5 10t15.5 16t19.5 14.5t17.5 6.5l11 -1l8 1q4 0 12.5 -8t16 -19t13.5 -21t6 -13l-4 -18v-12q0 -20 -0.5 -30.5t-2 -17.5t-3.5 -12.5t-6 -14.5q-2 -2 -6 -16.5t-8 -30.5t-7 -29t-3 -12q0 -6 5 -12.5t18 -6.5l21 -4q11 -1 54 54q4 0 4 -8
q0 -7 -1 -14.5t-1 -15.5v-21q0 -6 -8 -14.5t-19.5 -16t-23 -12.5t-19.5 -5q-11 0 -19.5 5.5t-36.5 27.5z" />
    <glyph glyph-name="afii10067" unicode="&#x432;" horiz-adv-x="296" 
d="M105 193q-1 -7 -1 -13v-10q0 -24 12.5 -51t35.5 -27q7 0 12.5 4t13.5 4q7 0 15.5 23.5t22.5 43.5q8 10 8 30.5t-3 43.5t-8 44t-9 32q12 21 26.5 10t27 -36.5t21 -56.5t8.5 -48l-20 -60q0 -34 -12.5 -50t-25.5 -32q-11 -14 -19 -19t-15 -6t-16.5 -0.5t-23.5 -2.5l-41 -8
q-6 -1 -17 2.5t-23 9.5t-22.5 12t-13.5 10q-10 13 -22.5 40t-15.5 49q-3 18 -2 36.5t3.5 44t4.5 60t2 84.5q0 10 3.5 44t8 73t9 73t7.5 44q9 30 9 42l-1 16q0 7 10.5 13.5t23.5 11t24.5 7l11.5 2.5q6 0 26.5 -5t41.5 -13q11 -5 20.5 -23t16 -41t10 -48t3.5 -44
q0 -148 -127 -315zM104 274q63 96 63 219q0 8 -1 28t-4 53q-4 46 -18 46q-6 0 -11.5 -23.5t-10 -59.5t-8 -79t-6 -81.5t-3.5 -67t-1 -35.5z" />
    <glyph glyph-name="afii10068" unicode="&#x433;" horiz-adv-x="300" 
d="M168 394l-8 4q-5 3 -9.5 -13.5t-9.5 -36.5t-9.5 -37.5t-9.5 -17.5q-16 -1 -36 -11.5t-34 -10.5t-16.5 19t6.5 68q3 16 7.5 30t8.5 25q22 5 43 13t59 11l32 3q13 2 27 -10t26 -31t19.5 -43t7.5 -46q0 -28 -9.5 -56t-24.5 -44q-29 -32 -39.5 -36.5t-22.5 -4.5
q-5 0 -10 -2.5t-9 -2.5q-2 0 -15.5 2.5t-21.5 2.5q-9 0 -9 -12q0 -29 16.5 -55t38.5 -26q49 0 92 49q0 -1 13 14t24 29t13 16q4 0 4 -5v-9v-26q0 -3 0.5 -7t0.5 -9q0 -14 -17 -37t-43.5 -44.5t-59 -37t-63.5 -15.5q-16 0 -31 8t-33 24q-29 26 -40.5 49t-11.5 64
q0 30 16.5 45t38 22t43 7.5t30.5 0.5q14 0 23 14.5t14 34t7 39.5t2 30q0 22 -6 45q-2 8 -4 10.5t-10 6.5z" />
    <glyph glyph-name="afii10069" unicode="&#x434;" horiz-adv-x="340" 
d="M186 84v10v8q-51 -67 -91 -67q-13 0 -27.5 7.5t-26.5 21t-20 31t-8 37.5q0 47 0.5 75.5t4.5 52t13 50t27 68.5q8 20 30 38t36 18q4 0 12 -3t16.5 -7t15.5 -8t8 -6l2 -2l8 9q4 5 11.5 6t5.5 1q1 0 6.5 -2t8.5 -2q4 0 14.5 5t15.5 5q-1 0 7 -3t18 -8t18.5 -12t8.5 -15
q0 -14 -7.5 -30t-7.5 -54q0 -17 -3.5 -31t-3.5 -23l4 -18l-1 -84q0 -5 1 -16t2.5 -24t2.5 -26t1 -22q0 -70 -22 -124q-3 -8 -18 -24t-34.5 -32.5t-38.5 -29t-31 -12.5q-39 0 -65.5 28.5t-23.5 86.5q0 7 2 9t12 4l19 11q3 1 6.5 -11t12 -27t25 -28t44.5 -13q14 0 15.5 23.5
t1.5 54.5q0 -1 -1 10t-2.5 27t-2.5 34t-1 33zM178 366h-9l-7 2q-6 -8 -15.5 -31.5t-18.5 -53t-15.5 -61t-6.5 -56.5q0 -22 6.5 -46t22.5 -24q16 19 26 49t16 63t9 65.5t5 57.5l3 13q2 5 -5.5 13.5t-10.5 8.5z" />
    <glyph glyph-name="afii10070" unicode="&#x435;" horiz-adv-x="300" 
d="M58 413q13 1 38.5 11t63.5 13l32 3q13 2 27 -10t26 -31t19.5 -43t7.5 -46q0 -28 -9.5 -56t-24.5 -44q-29 -32 -39.5 -41t-22.5 -9q-5 0 -10 -2.5t-9 -2.5q-2 0 -15.5 2.5t-21.5 2.5q-9 0 -9 -12q0 -29 16.5 -50.5t38.5 -21.5q49 0 92 49q0 -1 13 14t24 29t13 16q4 0 4 -5
v-9v-26q0 -3 0.5 -7t0.5 -9q0 -14 -17 -37t-43.5 -44.5t-59 -37t-63.5 -15.5q-16 0 -31 8t-33 24q-29 26 -40.5 49t-11.5 64q0 33 1.5 58.5t4.5 49.5t8.5 50.5t13.5 60.5q4 16 8 30t8 25zM168 394l-8 4q-5 3 -13 -24.5t-15.5 -62t-13.5 -65.5t-6 -36q0 -4 9.5 -9t16.5 -5
q14 0 23.5 17.5t15.5 40.5t8.5 45.5t2.5 32.5q0 22 -6 45q-2 8 -4 10.5t-10 6.5z" />
    <glyph glyph-name="afii10072" unicode="&#x436;" horiz-adv-x="633" 
d="M505 218q8 -40 20 -66t40 -26q8 0 11.5 0.5t7 3.5t8.5 8.5l15 16.5l16 17q9 10 11 15.5t5 5.5q7 0 7 -15v-11t-1 -25q0 -7 -2 -9t-11 -15q-25 -35 -56 -53t-59 -18q-16 0 -26.5 -1.5t-31.5 12.5q-9 12 -14.5 30t-12.5 31.5t-18.5 17t-32.5 -14.5l-1 -54q0 -15 6 -21.5
t6 -28.5q0 -1 -16 -12t-25 -11l-9.5 4t-20 11t-19.5 16.5t-9 19.5q0 2 1 7t1 7q0 5 -2 15.5t-2 18.5l1 46q1 29 0.5 52.5t-4.5 35t-12 8t-23 -27.5l-20 -36q-9 -16 -14.5 -38t-12 -44t-18 -41.5t-32.5 -31.5q-19 -8 -40.5 -6.5t-28.5 1.5q-9 0 -23.5 1.5t-28 6.5t-23 14
t-9.5 23q1 11 11 11t25 0.5t32.5 7.5t32.5 32q11 18 14 54t-1 75.5t-15 75.5t-28 54q-2 3 -10.5 9t-10.5 6q-6 0 -12.5 -11t-14.5 -24t-16 -24t-17 -11q-5 0 -5 6q0 5 0.5 11.5t0.5 11.5v29q0 13 13.5 28.5t32 28.5t37 22t29.5 9q32 0 56 -24t37 -67q2 -7 5 -24.5t5.5 -38.5
t4.5 -43t2 -40l1 -5l9 8q31 41 49.5 92.5t15.5 104.5q0 4 -0.5 7t-0.5 7l2 11q7 39 54 47h10l10 2q2 0 7 -1t10 -1q9 0 21 -8.5t12 -30.5q-4 1 -10 -20t-11.5 -52.5t-10 -68t-6 -67.5t0.5 -51t10 -18q22 6 42 27.5t36 48t26.5 53.5t14.5 45q3 16 3.5 36.5t3 38t10 29
t25.5 9.5q38 -4 58 -33t13 -62q-14 -68 -45.5 -100.5t-65.5 -50.5z" />
    <glyph glyph-name="afii10073" unicode="&#x437;" horiz-adv-x="355" 
d="M71 25l26 -1q2 0 7 2t8 2q8 0 8 -8q0 -1 -1.5 -5.5t-1.5 -5.5t3 -10t3 -18q0 -13 3.5 -32t10.5 -37t17.5 -31t23.5 -13q9 0 16.5 17t12.5 41t8 50t3 44q0 44 -4 56q-6 27 -15 26l-53 -4q-4 0 -16 11t-10 15l4 16q2 8 1.5 12t2.5 4l13 -1q31 -2 48 46.5t17 115.5
q0 37 -5 51t-23 21l-10 5q-5 2 -14 -19.5t-18 -49t-15.5 -51.5t-6.5 -28q0 -10 1 -16.5t1 -7.5q0 -11 -12 -11q-4 0 -12 2.5t-10 2.5q-6 0 -16 -4t-14 -4q-10 0 -20 13t-10 25q0 10 14 62l15 58q6 22 11 34t6 16q3 25 15 25q4 0 7.5 -4t5.5 -7q14 3 22 5.5t17 5t20.5 4
t31.5 1.5q26 0 49.5 -9.5t41.5 -26t29 -39.5t11 -49q0 -7 -2 -16.5t-2 -11.5v-17q0 -17 -9.5 -37.5t-20.5 -39t-19.5 -32t-6.5 -17.5q1 -4 19 -13q14 -7 24.5 -24.5t17.5 -39t10 -43.5t3 -37q0 -5 -3 -20.5t-11 -35.5t-21 -41t-34 -38l-12 -11q-11 -10 -21 -14.5t-11 -5.5
q-23 -3 -41.5 -12.5t-37.5 -11t-40 11.5t-49 54q-11 17 -11 20l-12 42l-4 30q-3 19 4.5 34.5t42.5 28.5z" />
    <glyph glyph-name="afii10074" unicode="&#x438;" horiz-adv-x="356" 
d="M196 102q-36 -65 -56 -83q-9 -10 -24.5 -16.5t-25.5 -6.5t-24 8t-26 23.5t-20 38t-8 52.5q0 37 2 63t5 42q3 18 3 19v46q0 12 6 23.5t6 16.5l-6 19l1 17v36q0 8 11 19t20 11q2 0 8.5 -1.5t9.5 -1.5q10 0 24 11l11 -6l5 -1q11 -2 16.5 -10t8 -15.5t2.5 -11.5v0
q0 -4 -3.5 -12t-3.5 -12l1 -13q0 2 -5 -14t-10.5 -45t-10.5 -68.5t-5 -84.5q0 -22 5 -43.5t17 -21.5t21.5 19t17 47t12.5 61.5t8.5 62t5 48.5t1.5 21t-1 7t-2 6l1 12q0 4 -3 8t-3 6q0 9 6 18.5t10 9.5l12 -2q11 -2 24 -4t18 -2l8 1t17 1q7 0 7 -4l-1 -15q0 -1 7 -10.5
t7 -16.5q0 -3 -8 -14q1 1 -2 -15t-6.5 -38.5t-7.5 -47t-5 -39.5l-3 -44q-1 -18 11 -37.5t22 -19.5q22 0 53 64q4 10 7 10q7 0 6.5 -13.5t-0.5 -51.5q0 -2 -9.5 -15t-24 -28t-32.5 -27t-36 -12q-26 0 -43 18t-29 58z" />
    <glyph glyph-name="afii10075" unicode="&#x439;" horiz-adv-x="356" 
d="M196 102q-36 -65 -56 -83q-9 -10 -24.5 -16.5t-25.5 -6.5t-24 8t-26 23.5t-20 38t-8 52.5q0 37 2 63t5 42q3 18 3 19v46q0 12 6 23.5t6 16.5l-6 19l1 17v36q0 8 11 19t20 11q2 0 8.5 -1.5t9.5 -1.5q10 0 24 11l11 -6l5 -1q11 -2 16.5 -10t8 -15.5t2.5 -11.5v0
q0 -4 -3.5 -12t-3.5 -12l1 -13q0 2 -5 -14t-10.5 -45t-10.5 -68.5t-5 -84.5q0 -22 5 -43.5t17 -21.5t21.5 19t17 47t12.5 61.5t8.5 62t5 48.5t1.5 21t-1 7t-2 6l1 12q0 4 -3 8t-3 6q0 9 6 18.5t10 9.5l12 -2q11 -2 24 -4t18 -2l8 1t17 1q7 0 7 -4l-1 -15q0 -1 7 -10.5
t7 -16.5q0 -3 -8 -14q1 1 -2 -15t-6.5 -38.5t-7.5 -47t-5 -39.5l-3 -44q-1 -18 11 -37.5t22 -19.5q22 0 53 64q4 10 7 10q7 0 6.5 -13.5t-0.5 -51.5q0 -2 -9.5 -15t-24 -28t-32.5 -27t-36 -12q-26 0 -43 18t-29 58zM73 587l14 -2l19 2q12 1 15.5 -11t7.5 -26t11 -26t26 -12
q20 0 35 11.5t26.5 26t20.5 26t17 11.5q2 0 3 -0.5t3 -0.5q11 -1 20.5 0t11.5 1q16 0 16 -12q0 -22 -10.5 -43t-28 -37t-40 -26t-45.5 -10q-63 0 -100 36q-15 14 -25.5 35t-10.5 38q0 16 14 19z" />
    <glyph glyph-name="afii10076" unicode="&#x43a;" horiz-adv-x="354" 
d="M226 218q8 -40 20 -66t40 -26q8 0 11.5 0.5t7 3.5t8.5 8.5l15 16.5l16 17q9 10 11 15.5t5 5.5q7 0 7 -15v-11t-1 -25q0 -7 -2 -9t-11 -15q-25 -35 -56 -53t-59 -18q-16 0 -25 3.5t-29 17.5q-19 14 -27 36t-12.5 42.5t-8 33t-13.5 6.5l-7 -1q-14 -4 -13.5 -18t-0.5 -45
l-1 -54q0 -15 6 -21.5t6 -28.5q0 -1 -16 -12t-25 -11l-9.5 4t-20 11t-19.5 16.5t-9 19.5q0 2 1 7t1 7q0 5 -2 15.5t-2 18.5l1 46q1 66 1 111t-1 78t-3 57.5t-4 48.5l2 11q7 39 54 47h10l10 2q2 0 7 -1t10 -1q9 0 21 -8.5t12 -30.5q-4 1 -8.5 -16t-8.5 -42.5t-7 -55.5
t-3 -55.5t3.5 -41.5t11.5 -14q45 13 70.5 50t33.5 72q3 16 3.5 36.5t3 38t10 29t25.5 9.5q38 -4 58 -33t13 -62q-13 -68 -45 -100.5t-66 -50.5z" />
    <glyph glyph-name="afii10077" unicode="&#x43b;" horiz-adv-x="416" 
d="M18 104l30 2q10 -7 17.5 -11.5t16.5 -4.5t22 5t36 18q15 15 30 41.5t20 47.5l7.5 37.5t9 47t8 48.5t4.5 41q0 15 2.5 24t8.5 15.5t17 12.5t29 15l4 -1l9 -1l15 -12q19 -13 26.5 -13.5t8.5 -10.5l-6 -14l-2 -21q-2 -38 -5 -54t-5 -27t-2.5 -24t1.5 -44v-10q1 -14 1.5 -25
t2.5 -20q3 -21 15 -34.5t26 -11.5q10 2 20 14.5t18.5 24.5t14.5 17.5t8 -7.5v-12l3 -22q-4 -13 -5.5 -20t-3 -11.5t-4.5 -8t-9 -8.5q-17 -12 -33.5 -34t-39.5 -25q-36 -4 -56 13q-20 16 -28.5 43.5t-11 55.5t-1.5 49.5t1 25.5q-1 9 -8 9q-5 -4 -10.5 -30.5t-13.5 -59.5
t-19 -63t-26 -42q-12 -1 -21.5 -8t-21 -15t-27.5 -14.5t-43 -6.5q-8 0 -21.5 16t-22.5 36t-8 39.5t22 27.5z" />
    <glyph glyph-name="afii10078" unicode="&#x43c;" horiz-adv-x="504" 
d="M137 256q-5 -15 -12 -25l-21 -71q-14 -48 -26.5 -85.5t-37.5 -74.5q-2 -2 -5 -7t-5 -7q-10 -11 -18 -8t-19 13t-13 15.5t2 21.5l5 14q4 11 10 17.5t15 16.5t20.5 26t24.5 46q6 15 16 42.5t20.5 55.5t19 52t10.5 33q7 33 12 39.5t21 9.5q1 0 12.5 6t18.5 6l16 -10
q23 -14 23.5 -15.5t0.5 -12.5q0 -1 3.5 -7.5t3.5 -12.5t-1 -8q-9 -46 -13.5 -100.5t-4.5 -90.5q7 -15 17.5 -9t21.5 22t20.5 37.5t15.5 38.5q13 38 20.5 59t12 35t7 25.5t5.5 28.5q3 16 6.5 21t3.5 19q0 4 1 4l17 -4q6 4 14.5 5.5t41.5 6.5q6 -1 9 -4t17 -21l8 -10l3 -9
q2 -8 5 -11t3 -5q0 -11 -13 -24q0 4 -5 -18t-11 -52.5t-10.5 -60t-4.5 -40.5q0 -35 10 -58t27 -23q5 0 12.5 8t15.5 17.5t15.5 17.5t12.5 8t5 -5l-1 -13q-1 -14 -1 -21v-10.5t-1 -5.5t-4 -7q-1 -2 -12 -13.5t-26.5 -24.5t-34.5 -23t-38 -10t-32.5 12.5t-22.5 31.5t-13 41
t-4 41q0 10 2 24.5t4 28t3.5 24t1.5 12.5q0 1 -0.5 5.5t-1.5 11.5q-10 -25 -17.5 -43t-13.5 -33.5t-12 -32l-14 -38.5q-16 -47 -37.5 -69t-33.5 -27q-7 -1 -20 3.5t-25.5 15.5t-21.5 28.5t-9 42.5q0 22 1 47.5t1.5 48t1.5 39t1 20.5v6t-1 10z" />
    <glyph glyph-name="afii10079" unicode="&#x43d;" horiz-adv-x="351" 
d="M112 223l64 55q7 21 9 35t2 25t-0.5 21t1.5 23q2 15 5 23.5t10 14.5t18.5 10.5t30.5 11.5l4 -2l9 -2l14 -14q16 -16 23.5 -17.5t7.5 -11.5l-8 -13l-4 -20q-8 -37 -12.5 -53t-8 -26t-6 -23t-4.5 -44q0 -3 -0.5 -5.5t-0.5 -4.5q-1 -14 -1.5 -25.5t-0.5 -20.5
q0 -21 10 -35.5t24 -14.5q10 0 22 11.5t22 22t16.5 15t6.5 -8.5l-1 -12v-22q-11 -25 -12.5 -30.5t-15.5 -13.5q-9 -5 -18.5 -13.5t-19 -16.5t-20 -14t-22.5 -6q-36 0 -54 20q-17 19 -22.5 45.5t-4.5 51.5t4.5 44t3.5 23q0 10 -6 10q-11 -7 -31 -15t-31 -30q-3 -7 -5 -27.5
t-2.5 -45t0.5 -48.5t5 -37q1 -6 -6.5 -15.5t-18.5 -9.5h-14q-9 0 -14 3t-9 6t-9 4.5t-14 -1.5q-14 -5 -15.5 27.5t-2.5 102.5l2 42q2 30 4 63t3.5 62t2 50.5t-1.5 30.5l5 15q3 9 13 12.5t8 3.5q2 -6 9 -6.5t15 1t16 4t12 2.5q8 0 22 -17t14 -27q0 -14 -6 -32t-12 -51
q-2 -8 -3 -13t-1.5 -10.5t-0.5 -14t1 -22.5z" />
    <glyph glyph-name="afii10080" unicode="&#x43e;" horiz-adv-x="326" 
d="M228 92q-7 -13 -17.5 -29.5t-23 -31.5t-26 -25t-26.5 -8l-32 4h-15q-16 0 -30 12.5t-23.5 32t-15 44t-5.5 47.5q0 17 1.5 42.5t4.5 52.5t7 52t9 41t9 33t8 29.5t8.5 20t10.5 5.5h10l8 1l11 -5l8 3t17 3h14q8 0 15 7t21 7q19 0 41 -7q11 -3 21 -18t17 -34t11 -39t4 -34
q0 -32 -16 -102q-5 -26 -7.5 -48t21.5 -26l21 -4q6 -1 9.5 6t7.5 15.5t10.5 16t17.5 7.5q5 -3 5 -15l-1 -15q-2 -33 -21 -47t-43 -14q-17 0 -46 20zM194 122q-5 4 -12.5 24t-15 46.5t-13 53.5t-5.5 44q0 14 3 27.5t3 24.5q0 17 -7 17q-12 0 -18.5 -29.5t-10.5 -67t-5 -72.5
t-1 -45q0 -35 9 -61t23 -26q21 0 28.5 18.5t21.5 45.5zM210 187q5 13 7.5 19t3.5 10.5t1 11v20.5v18q0 16 -6 42t-12 36q-4 -17 -4 -37v-19t2 -46q3 -36 8 -55z" />
    <glyph glyph-name="afii10081" unicode="&#x43f;" horiz-adv-x="351" 
d="M101 192v-33q19 31 34.5 72t34 80t44 72t64.5 49l4 -2l9 -2l14 -14q16 -16 23.5 -17.5t7.5 -11.5l-8 -13l-4 -20q-4 -22 -13 -34.5t-18 -24.5t-16.5 -29t-9.5 -48q0 -3 -0.5 -5.5t-0.5 -4.5q-1 -14 -1.5 -25.5t-0.5 -20.5q0 -21 10 -35.5t24 -14.5q10 0 22 11.5t22 22
t16.5 15t6.5 -8.5l-1 -12v-22q-11 -25 -12.5 -30.5t-15.5 -13.5q-9 -5 -18.5 -13.5t-19 -16.5t-20 -14t-22.5 -6q-36 0 -54 20q-17 19 -20.5 43t-1 48t7 45t2.5 33q0 5 -4 12t-7 7q-6 -3 -17 -20.5t-23 -41t-21.5 -47.5t-11.5 -41q1 -17 2.5 -34.5t1.5 -33.5q0 -4 -9.5 -14
t-12.5 -10h-14q-19 0 -21.5 9t-7.5 9h-13q-15 0 -18 20.5t-3 54.5l-1 49l2 42q2 24 5 57.5t3 45.5l-2 53q0 22 10 32l-8 18l5 15q3 9 13 12.5t8 3.5q1 0 7.5 -3.5t14.5 -3.5q7 0 16 4t14 4q8 0 22 -17t14 -27q0 -14 -8.5 -31.5t-9.5 -51.5q-1 -15 -7 -38t-8 -53z" />
    <glyph glyph-name="afii10082" unicode="&#x440;" horiz-adv-x="328" 
d="M114 340q5 11 11 23.5t16.5 23t27 17t41.5 6.5q15 0 21 -9t30 -21q26 -50 26 -140q0 -26 -1 -41.5t-4 -29t-9.5 -28.5t-16.5 -41l-4 -12l-22 -22l-11 -14l-13 -8q-4 -3 -15 -11.5t-12 -8.5l-19 2q-1 0 -6.5 -1t-9.5 -1q-12 0 -20 4t-14 4q-2 0 -6 -3t-3 -5l6 -16l-5 -32
l2 -19v-39q0 -10 2 -21t2 -21q0 -4 4.5 -18t3.5 -13q0 -3 -8.5 -8t-15.5 -8t-8 -4q-14 0 -36.5 13.5t-40.5 22.5q-11 5 -12.5 14.5t0.5 25t4.5 37.5t-0.5 53l8 62l4 93l5 136v62q4 27 5.5 42.5t1.5 18.5q0 5 -1 15.5t-1 15.5t1.5 12t1.5 12q0 4 -5 7t-5 7q0 3 8 7.5t17 8.5
t16.5 7l7.5 3q8 -3 37 -3q7 0 13.5 -5t11 -11.5t7 -12t2.5 -6.5l-3.5 -9t-7.5 -24t-7.5 -34t-3.5 -39q0 -2 0.5 -6t1.5 -10zM106 92q10 -4 13.5 -7t6.5 -5l10 3l8 -3q10 0 17.5 23t12.5 59l4 33l2 97q0 11 -7 20.5t-14 9.5t-15 -11t-14.5 -26t-11 -30t-4.5 -23
q0 -22 -3.5 -59t-4.5 -81z" />
    <glyph glyph-name="afii10083" unicode="&#x441;" horiz-adv-x="282" 
d="M230 239q-12 0 -24 -4.5t-14 -4.5q-30 0 -30 89v15.5t1 13.5q1 9 1 16.5v11.5q0 10 -9 10q-8 0 -16 -25t-14.5 -59.5t-10.5 -72t-4 -62.5q0 -33 15 -62t43 -29q3 0 36 11l12 11l14 10l25 25q10 10 21.5 24t13.5 14q6 0 6 -41q0 -19 -12 -36.5t-27 -31t-30 -22.5t-21 -12
q-7 -2 -19 -7t-24.5 -10.5t-23 -9.5t-13.5 -4q-25 0 -45.5 11.5t-35.5 30t-23 41t-8 44.5q0 57 3 98.5t11 69.5q2 8 6 28t10.5 40.5t15 36.5t19.5 16q13 0 32 10.5t67 10.5q13 0 22 -6.5t20 -10.5l5 -3q6 -4 10 -6t7 -8t4.5 -20t1.5 -41q0 -28 3 -50t3 -39q0 -16 -11 -13.5
t-13 2.5z" />
    <glyph glyph-name="afii10084" unicode="&#x442;" horiz-adv-x="499" 
d="M178 256q-5 -15 -12 -25l-21 -71q-13 -48 -27.5 -76t-14.5 -60q0 -2 1 -9t1 -9q0 -14 -8 -17t-23 -3t-20 2.5t-13 17.5h-11q-9 0 -14.5 17t-5.5 45q0 58 1 95t3 52q4 33 6 50.5t2 20.5l-2 54q-1 12 1 18t2 8q0 4 -3.5 11.5t-3.5 6.5q0 17 13 22.5t24 5.5l7 2l8 -4l18 1
q1 0 8 -3t15 -8t14.5 -11.5t6.5 -12.5q-4 -5 -9 -19t-6 -36l-5 -71q-3 -40 -7 -66t-5 -36q6 15 16 42.5t20.5 55.5t19 52t10.5 33q8 33 12 39.5t21 9.5q1 0 12.5 6t18.5 6l16 -10q23 -14 23.5 -15.5t0.5 -12.5q0 -1 3.5 -7.5t3.5 -12.5t-1 -8q-9 -46 -14 -87t-5 -77
q7 16 30 86q13 38 20.5 59t12 35t7 25.5t5.5 28.5q3 16 6.5 21t3.5 19q0 4 1 4l17 -4q6 4 14.5 5.5t41.5 6.5q6 -1 9 -4t17 -21l8 -10l3 -9q2 -8 5 -11t3 -5q0 -11 -13 -24q0 4 -5 -18t-11 -52.5t-10.5 -60t-4.5 -40.5q0 -35 10 -58t27 -23q5 0 12.5 8t15.5 17.5t15.5 17.5
t12.5 8t5 -5l-1 -13q-1 -14 -1 -21v-10.5t-1 -5.5t-4 -7q-2 -2 -12 -13.5t-26 -24.5t-35 -23t-38 -10t-32.5 12.5t-22.5 31.5t-13 41t-4 41q0 10 2 24.5t4 28t3.5 24t1.5 12.5q0 1 -0.5 5.5t-1.5 11.5q-12 -24 -18 -37t-10 -25.5t-8.5 -29.5t-14.5 -50q-8 -27 -13 -43.5
t-5 -24.5l1 -31l-7 -13v-6q0 -7 -7 -7q8 0 -4 2t-29.5 9.5t-33.5 22t-16 39.5q0 22 2 50t4 53.5t4 45t2 23.5v6t-1 10z" />
    <glyph glyph-name="afii10085" unicode="&#x443;" horiz-adv-x="334" 
d="M185 73l-1 11q-48 -64 -90 -64q-40 0 -62 25t-22 65q0 41 7 92.5t7 113.5q0 3 -3.5 8.5t-3.5 9.5l4 16q5 21 1 24.5t-4 10.5q0 8 6 10.5t30 6.5l24 4q-1 0 10.5 -6t25 -15.5t24 -20.5t6.5 -21l-2 -6l-10 1q-1 0 -5.5 -22.5t-9.5 -53.5t-9 -63.5t-4 -52.5q0 -15 9 -35.5
t20 -20.5q3 0 34 40q3 3 6 28t5.5 56.5t5.5 63t6 48.5q3 16 7 31.5t4 28.5q0 4 -1.5 12t-1.5 14q0 7 2 7l18 -5l4.5 3t11 7t13 7t9.5 3q11 0 27 -13t16 -23q0 -3 -1 -4q-2 -10 -1 -16.5t1 -10.5q0 -13 -7.5 -40.5t-10.5 -96.5l-5 -128l4 -108q0 -2 -3 -13.5t-6.5 -25.5
t-6.5 -25.5t-4 -13.5q-7 -15 -22.5 -26.5t-34.5 -31.5q-24 -25 -34 -31t-21 -6q-13 0 -31 9.5t-34 23.5t-27 30t-11 28q0 3 2.5 10.5t6.5 15.5t9 14t10 6q1 0 9 -12.5t19.5 -26.5t24.5 -23t23 -3q16 0 27.5 30.5t11.5 70.5q0 7 -0.5 22t-0.5 40l-0.5 4.5t-0.5 12.5z" />
    <glyph glyph-name="afii10086" unicode="&#x444;" horiz-adv-x="494" 
d="M380 108q-4 -8 -13 -23t-20.5 -31t-25.5 -28t-29 -14q-4 -1 -7 -19t-5 -37q-3 -34 1.5 -64t15.5 -50q9 -16 2 -32.5t-36 -5.5q-5 2 -20 0t-32 -3.5t-30.5 -1.5t-15.5 6q-6 15 -11 29t4 41q8 26 15 82.5t11 123.5q-5 -9 -14.5 -25.5t-22 -32.5t-27 -28t-29.5 -12
q-40 0 -63 40t-23 91q0 31 6 73t16 94q3 15 16.5 49t36 61t53 34.5t68.5 -30.5q1 -1 2 -1.5t2 -1.5q3 35 7 40l-7 48q0 4 3.5 13t11.5 18.5t23 16.5t37 7q4 0 13 -3.5t17.5 -8.5t14 -11t3.5 -11v-15q0 -2 3 -6t3 -5l-1 -7l1 -8q0 -2 -10 -13q7 3 1.5 -5.5t-14.5 -30
t-17.5 -58.5t-9.5 -93q-1 -52 -1 -85.5t2 -44.5q3 -17 13 -25.5t20 -8.5q4 0 10 8t12 19.5t10 25t4 23.5q0 11 -2.5 26t-2.5 44q0 66 -12 86q-7 14 -12 21t-5 9t6.5 10t15.5 16t19.5 14.5t17.5 6.5l11 -1l8 1q4 0 12.5 -8t16 -19t13.5 -21t6 -13l-4 -18v-12
q0 -20 -0.5 -30.5t-2 -17.5t-3.5 -12.5t-6 -14.5q-2 -2 -6 -16.5t-8 -30.5t-7 -29t-3 -12q0 -6 5 -12.5t18 -6.5l21 -4q11 -1 54 54q4 0 4 -8q0 -7 -1 -14.5t-1 -15.5v-21q0 -6 -8 -14.5t-19.5 -16t-23 -12.5t-19.5 -5q-11 0 -19.5 5.5t-36.5 27.5zM169 363q-8 -1 -19 -23.5
t-21.5 -56.5t-18 -74.5t-7.5 -76.5q0 -19 5.5 -42t16.5 -23l8.5 11t18 27.5t17.5 36.5t8 38l4 12l1 20q1 13 5.5 32.5t8.5 40.5q1 11 1.5 22t1.5 21q-1 15 -7.5 25t-22.5 10z" />
    <glyph glyph-name="afii10087" unicode="&#x445;" horiz-adv-x="306" 
d="M132 340l12 -40l5 -11q5 10 16.5 27.5t23.5 36t21.5 34.5t9.5 23q0 9 4 11.5t4 3.5l12 -4l22 1q10 0 22 -15.5t12 -22.5q0 2 -18.5 -17t-40 -45t-40 -52.5t-18.5 -41.5q0 -2 5.5 -15t12 -28t12.5 -27.5t7 -13.5q9 -15 32 -24q16 -7 25.5 0.5t15.5 18.5t11.5 21.5
t14.5 10.5q5 0 5 -7l-1 -7.5t-1 -14.5q0 -3 -3.5 -20.5t-13 -36.5t-26.5 -35t-43 -16l-18 -5q-28 0 -56 27.5t-38 71.5q-5 21 -16.5 5.5t-24 -43.5t-24 -56.5t-16.5 -33.5l-7 -7q-1 -1 -7 3.5t-11 4.5q-8 0 -8 7l2 24q0 2 -5 11t-5 10q0 7 12 24q-1 -1 9.5 13.5t23 34.5
t23 40.5t10.5 30.5l-6 18t-13.5 39.5t-14 40t-8.5 18.5q-3 0 -5.5 -5l-5.5 -11t-6.5 -11t-8.5 -5q-9 0 -14.5 13.5t-5.5 18.5q0 21 7 43.5t17.5 42t24 32t27.5 12.5q19 0 29.5 -8t17 -22t10.5 -32.5t11 -39.5z" />
    <glyph glyph-name="afii10088" unicode="&#x446;" horiz-adv-x="414" 
d="M40 111v1l-6 199q0 26 -0.5 33.5t-4.5 15.5q-2 6 -2 8q0 14 17.5 27t40.5 13q11 0 21 -12l8 -2l9 -8q13 -11 18.5 -16.5t5.5 -16.5q0 -5 -6 -6t-6 -11q0 -2 -3 -25t-6 -51t-6 -53t-3 -31q0 -12 7 -28t16.5 -30t20.5 -24t19 -10q22 0 26.5 65.5t-2.5 188.5q-3 14 1.5 26
t10.5 20.5t11 12.5t3 2q6 6 15 12t19.5 8.5t20.5 -1.5t17 -18l9 -18l-4 -16l-4 -42l-24 -132q-12 -26 -12 -34q0 -11 4 -20.5t18 -9.5q7 0 14 4t14.5 9.5t16.5 10t20 4.5q15 0 28 -21t22.5 -48.5t14.5 -54.5t4 -38q-5 -32 -23 -48t-33 -23q-10 -5 -26 3t-25 12q-3 2 -1 13.5
t5.5 27.5t7.5 34.5t6 33.5q2 17 -4 24t-5 7h-9q-12 -7 -24 -19.5t-23 -10.5q-6 1 -8 6t-3.5 10.5t-4.5 11t-11 8.5q-6 -10 -13.5 -22t-18.5 -23t-27 -18.5t-39 -7.5q-30 0 -61 22.5t-43 75.5z" />
    <glyph glyph-name="afii10089" unicode="&#x447;" horiz-adv-x="286" 
d="M116 223q-17 -13 -38.5 -16t-47.5 11q-3 -8 -7.5 -24t-12 -32.5t-17.5 -29t-23 -12.5q-4 0 -4 7q0 3 1 10.5t1 14.5v32q0 11 4 26q4 16 1 26t-9 19t-11.5 18.5t-4.5 24.5l3 58l3 37l-1 10q0 3 1.5 4.5t9.5 6.5l12 11q7 6 14.5 8.5t5.5 2.5q20 0 28.5 -9t8.5 -19
q0 -9 -5.5 -18t-3.5 -39q1 -20 8.5 -36t19 -26t24.5 -12.5t25 5.5q18 11 29.5 48t21.5 82q6 9 12 9.5t14 -3.5t19 -10.5t27 -11.5q12 -4 13 -17t-3.5 -30t-11 -35t-9.5 -31v-14q0 -25 -6.5 -53t-6.5 -54q0 -33 7 -43.5t33 -12.5l10 -2q4 0 10 9t13 20.5t13 20.5t10 9t4 -10
v-23q0 -24 -1.5 -29.5t-9.5 -15.5q-25 -29 -53.5 -51t-41.5 -22q-26 0 -47.5 16t-33.5 36q-15 26 -15 44q0 38 10 67.5t8 47.5z" />
    <glyph glyph-name="afii10090" unicode="&#x448;" horiz-adv-x="491" 
d="M201 106q-32 -63 -53 -84q-10 -10 -27 -20t-25 -10q-20 0 -36 15t-26.5 35t-16 41t-5.5 34q0 105 15 225q1 2 1 10q0 2 -6 20v7l3 20q0 2 -2 8.5t-2 10.5q0 14 5 12l22 -2q20 16 34 16q9 0 20.5 -8t21 -18t16 -19.5t6.5 -13.5l-2.5 -5.5t-5 -14t-5 -18t-2.5 -15.5
q0 -10 -5.5 -37t-5.5 -56q0 -25 -1.5 -41t-3.5 -27.5t-3.5 -21t-1.5 -23.5q0 -3 2 -10.5t5 -15.5t7 -14t8 -6q12 0 23.5 28t20 65t14 75t5.5 57q0 26 -0.5 33.5t-4.5 15.5q-2 6 -2 8q0 14 17.5 27t40.5 13q10 0 21 -12l8 -2l9 -8q13 -11 18.5 -16.5t5.5 -16.5q0 -5 -6 -6
t-6 -11q0 -2 -3 -25t-6 -51t-6 -53t-3 -31q0 -12 2 -27t5.5 -28t9.5 -22t14 -9q11 0 19.5 12t14 30t8 39t2.5 39q0 17 -3.5 32.5t-3.5 25.5q-1 -2 0.5 6t1.5 14q0 2 -3 38q0 1 4.5 17.5t9.5 36t9 35t2 13.5q11 11 29 8.5t32 -30.5l9 -18l-4 -16l-4 -42l-6 -146
q-8 -26 -4 -45t30 -21q7 0 15.5 7.5t16 15t12.5 10t5 -8.5q0 -4 -0.5 -9t-0.5 -9t0.5 -12t0.5 -14q0 -5 -5 -10t-10.5 -9t-10 -6.5t-3.5 -2.5h-9l-15 -2q-2 0 -9.5 2.5t-15.5 7l-16 9t-11 7.5q-6 -10 -17 -23t-27 -24.5t-36 -19.5t-43 -8q-30 0 -45.5 20t-26.5 73z" />
    <glyph glyph-name="afii10091" unicode="&#x449;" horiz-adv-x="543" 
d="M201 106q-32 -63 -53 -84q-10 -10 -27 -20t-25 -10q-20 0 -36 15t-26.5 35t-16 41t-5.5 34q0 105 15 225q1 2 1 10q0 2 -6 20v7l3 20q0 2 -2 8.5t-2 10.5q0 14 5 12l22 -2q20 16 34 16q9 0 20.5 -8t21 -18t16 -19.5t6.5 -13.5l-2.5 -5.5t-5 -14t-5 -18t-2.5 -15.5
q0 -10 -5.5 -37t-5.5 -56q0 -25 -1.5 -41t-3.5 -27.5t-3.5 -21t-1.5 -23.5q0 -3 2 -10.5t5 -15.5t7 -14t8 -6q12 0 23.5 28t20 65t14 75t5.5 57q0 26 -0.5 33.5t-4.5 15.5q-2 6 -2 8q0 14 17.5 27t40.5 13q10 0 21 -12l8 -2l9 -8q13 -11 18.5 -16.5t5.5 -16.5q0 -5 -6 -6
t-6 -11q0 -2 -3 -25t-6 -51t-6 -53t-3 -31q0 -12 2 -27t5.5 -28t9.5 -22t14 -9q11 0 19.5 12t14 30t8 39t2.5 39q0 17 -3.5 32.5t-3.5 25.5q-1 -2 0.5 6t1.5 14q0 2 -3 38q0 1 4.5 17.5t9.5 36t9 35t2 13.5q11 11 29 8.5t32 -30.5l9 -18l-4 -16l-4 -42l-24 -132
q-12 -26 -12 -34q0 -11 12 -21.5t26 -10.5q7 0 13 4.5t12.5 10t14.5 10.5t19 5q15 0 25.5 -19t17.5 -43.5t9.5 -49t1.5 -35.5q-5 -32 -27.5 -55.5t-37.5 -30.5q-10 -5 -19 3t-18 12q-3 2 -1 13.5t5.5 27.5t7.5 34.5t6 33.5q2 17 -4 24t-5 7h-9q-12 -7 -21 -19.5t-20 -10.5
t-18.5 16t-14.5 20q-6 -10 -13.5 -22t-18.5 -23t-27 -18.5t-39 -7.5q-30 0 -45.5 20t-26.5 73z" />
    <glyph glyph-name="afii10092" unicode="&#x44a;" horiz-adv-x="388" 
d="M288 45q-28 -16 -52 -19.5t-44 -0.5q-26 14 -35 7.5t-10 -14.5q0 -1 -16 -12t-25 -11l-9.5 4t-20 11t-19.5 16.5t-9 19.5q0 2 1 7t1 7q0 5 -2 15.5t-2 18.5q0 43 5.5 76t12.5 59t14 46t10 37q3 15 -8 20.5t-28.5 5.5t-37 -1.5t-33.5 -0.5t-18.5 8.5t7.5 25.5v10l-2 10
q1 2 2 7t1 10q1 9 9.5 21t30.5 11l18 -5l21 0.5t39.5 0.5h21.5q40 -17 57.5 -50.5t-4.5 -67.5q-16 -24 -15 -50.5t3 -54.5q28 28 61 41.5t88 13.5q38 0 52 -24t14 -58v-14q0 -47 -25.5 -79.5t-53.5 -46.5zM270 218q-14 3 -31.5 -18t-30.5 -47.5t-17 -49t10 -22.5
q17 0 32.5 11t27 28t18.5 36.5t7 35.5q0 23 -16 26z" />
    <glyph glyph-name="afii10093" unicode="&#x44b;" horiz-adv-x="532" 
d="M254 45q-28 -16 -52 -19.5t-44 -0.5q-26 14 -35 7.5t-10 -14.5q0 -1 -16 -12t-25 -11l-9.5 4t-20 11t-19.5 16.5t-9 19.5q0 2 1 7t1 7q0 5 -2 15.5t-2 18.5q0 80 7 132t13.5 85.5t8 54t-8.5 37.5l2 11q7 39 54 47h10l10 2q2 0 7 -1t10 -1q9 0 21 -8.5t12 -30.5l-4 -18
q0 1 3 -4.5l3 -5.5q-2 -17 -8.5 -39.5t-12.5 -48t-10.5 -52t-2.5 -50.5q28 28 57 45.5t84 17.5q38 0 52 -24t14 -58v-14q0 -47 -25.5 -79.5t-53.5 -46.5zM236 218q-14 3 -31.5 -18t-30.5 -47.5t-17 -49t10 -22.5q17 0 32.5 11t27 28t18.5 36.5t7 35.5q0 23 -16 26zM439 0
l-14 1l-15 -2q-13 -2 -24 12t-18.5 35t-11.5 44.5t-3 39.5l2.5 32.5t2.5 39.5t2 36t1 22q1 21 7.5 45t12 46.5t6 42t-10.5 32.5l3 5v8q1 4 7 9.5t9 4.5l11 -2q9 7 20 11t29 4q1 0 8 -6t14.5 -14.5t13.5 -18t5 -17.5q0 -5 -7 -27.5t-16 -56.5t-18.5 -74.5t-15.5 -81.5
q-7 -41 6 -60t27 -19q15 1 28.5 21t23 36.5t14.5 17.5t2 -35l-1 -32q0 -1 -10 -19l-5 -9l-16 -18l-8 -8l-20 -22l-12 -7q-20 -16 -29 -16z" />
    <glyph glyph-name="afii10094" unicode="&#x44c;" horiz-adv-x="354" 
d="M254 45q-28 -16 -52 -19.5t-44 -0.5q-26 14 -35 7.5t-10 -14.5q0 -1 -16 -12t-25 -11l-9.5 4t-20 11t-19.5 16.5t-9 19.5q0 2 1 7t1 7q0 5 -2 15.5t-2 18.5q0 80 7 132t13.5 85.5t8 54t-8.5 37.5l2 11q7 39 54 47h10l10 2q2 0 7 -1t10 -1q9 0 21 -8.5t12 -30.5l-4 -18
q0 1 3 -4.5l3 -5.5q-2 -17 -8.5 -39.5t-12.5 -48t-10.5 -52t-2.5 -50.5q28 28 57 45.5t84 17.5q38 0 52 -24t14 -58v-14q0 -47 -25.5 -79.5t-53.5 -46.5zM236 218q-14 3 -31.5 -18t-30.5 -47.5t-17 -49t10 -22.5q17 0 32.5 11t27 28t18.5 36.5t7 35.5q0 23 -16 26z" />
    <glyph glyph-name="afii10095" unicode="&#x44d;" horiz-adv-x="304" 
d="M66 252q-2 0 -12 -1.5t-7 14.5q4 17 4 41t6 52q6 27 16.5 38.5t25.5 16.5t35 8t45 12q24 -3 39.5 -7.5t25.5 -9.5t16.5 -9t13.5 -5q11 -1 16 -17.5t6.5 -37.5t1 -41t0.5 -28q1 -57 -22 -167q-5 -21 -18 -42.5t-32 -38t-42 -26t-47 -6.5q-3 0 -12.5 5.5t-21 12t-22.5 12.5
t-17 8q-6 3 -19 14t-25 26t-20 33t-4 37q9 40 15 40q2 -1 10.5 -15.5t16.5 -25.5l20 -28l11 -11l9 -12q30 -14 34 -14q28 -3 49.5 23.5t27.5 59.5q3 16 -24 20t-60 -6q-8 -2 -11.5 2t-4.5 10t0 12t2 8q12 14 30.5 19.5t36 8t30.5 3.5t13 7q2 24 2.5 47.5t-0.5 42.5t-4 31
t-8 12q-4 0 -11.5 -2.5t-15.5 -10.5t-14 -22t-7 -37q-2 -39 -14.5 -48.5t-42.5 -13.5l-20 6v0z" />
    <glyph glyph-name="afii10096" unicode="&#x44e;" horiz-adv-x="494" 
d="M106 90q-2 -27 6 -48.5t3 -40.5q-5 -6 -13.5 -7.5t-20.5 -1t-25.5 1t-27.5 -2.5q-12 -3 -17 23t-5.5 60t1 67.5t1.5 45.5q0 9 1 23.5l2 29t2 26t1 15.5q0 16 4.5 33.5t8.5 34.5t3 31.5t-12 23.5l2 5v6q0 3 5.5 7t8.5 3l11 -1q8 4 18 7.5t28 3.5q1 0 9.5 -4.5t17.5 -11
t16.5 -13.5t7.5 -12q0 -4 -5.5 -20t-12.5 -40t-12.5 -54.5t-5.5 -62.5q0 -60 27 -60q9 0 17 7t14.5 15.5t12 17.5t9.5 13q3 32 7.5 64t10.5 52q5 16 9 33t8 29.5t8.5 20t10.5 5.5h10l8 1l11 -5l8 3t17 3h14q8 0 15 7t21 7q19 0 41 -7q11 -3 21 -18t17 -34t11 -39t4 -34
q0 -32 -16 -102q-5 -26 -7.5 -48t21.5 -26l21 -4q6 -1 9.5 6t7.5 15.5t10.5 16t17.5 7.5q5 -3 5 -15l-1 -15q-2 -33 -21 -47t-43 -14q-17 0 -46 20q-7 -13 -17.5 -29.5t-23 -31.5t-26 -25t-26.5 -8l-32 4h-15q-16 0 -30 12.5t-23.5 32t-15 44t-5.5 47.5v1q-6 -13 -18 -22
t-24 -15t-22 -9t-12 -3zM362 122q-5 4 -12.5 24t-15 46.5t-13 53.5t-5.5 44q0 14 3 27.5t3 24.5q0 17 -7 17q-12 0 -18.5 -29.5t-10.5 -67t-5 -72.5t-1 -45q0 -35 9 -61t23 -26q21 0 28.5 18.5t21.5 45.5zM378 187q5 13 7.5 19t3.5 10.5t1 11v20.5v18q0 16 -6 42t-12 36
q-4 -17 -4 -37v-19t2 -46q3 -36 8 -55z" />
    <glyph glyph-name="afii10097" unicode="&#x44f;" horiz-adv-x="365" 
d="M134 210q-28 8 -51 36t-18 76l1 14q3 34 20.5 59.5t54.5 34.5q27 5 44.5 1t29.5 -13t22 -21.5t22 -24.5l-4 30q3 22 16 33t22 12q5 1 9 3.5t6 2.5h11l11 2q47 2 51 -37l-1 -10q-9 -10 -15.5 -25t-10.5 -41.5t-7.5 -67t-6.5 -102.5l-2 -46q-1 -8 -5 -19.5t-3 -16.5
q0 -2 1 -7t1 -7q-2 -10 -11.5 -21t-21 -20.5t-21 -15.5l-9.5 -6q-7 -1 -22.5 6.5t-15.5 8.5q0 22 7.5 30.5t6.5 23.5l3 54q2 32 4.5 46t-11.5 15h-7q-9 5 -13.5 -9t-10.5 -35.5t-16 -46t-30 -41.5q-23 -18 -32 -24t-24 -8q-28 -5 -58 6.5t-53 43.5q-8 11 -9.5 12t-0.5 9
q-1 29 1 36q3 16 9 18q4 1 5.5 -4.5t8.5 -14.5l15 -13q18 -18 20.5 -22t19.5 0q28 5 42.5 34.5t25.5 71.5zM182 366q-15 -6 -17 -29q-1 -17 4 -35.5t15 -33t24.5 -22.5t32.5 -4q13 2 10.5 24t-13 46t-26.5 42t-30 12z" />
    <glyph glyph-name="afii10071" unicode="&#x451;" horiz-adv-x="300" 
d="M58 413q13 1 38.5 11t63.5 13l32 3q13 2 27 -10t26 -31t19.5 -43t7.5 -46q0 -28 -9.5 -56t-24.5 -44q-29 -32 -39.5 -41t-22.5 -9q-5 0 -10 -2.5t-9 -2.5q-2 0 -15.5 2.5t-21.5 2.5q-9 0 -9 -12q0 -29 16.5 -50.5t38.5 -21.5q49 0 92 49q0 -1 13 14t24 29t13 16q4 0 4 -5
v-9v-26q0 -3 0.5 -7t0.5 -9q0 -14 -17 -37t-43.5 -44.5t-59 -37t-63.5 -15.5q-16 0 -31 8t-33 24q-29 26 -40.5 49t-11.5 64q0 33 1.5 58.5t4.5 49.5t8.5 50.5t13.5 60.5q4 16 8 30t8 25zM168 394l-8 4q-5 3 -13 -24.5t-15.5 -62t-13.5 -65.5t-6 -36q0 -4 9.5 -9t16.5 -5
q14 0 23.5 17.5t15.5 40.5t8.5 45.5t2.5 32.5q0 22 -6 45q-2 8 -4 10.5t-10 6.5zM217 626q28 0 47 -13t19 -47q0 -16 -17 -34.5t-38 -18.5q-20 0 -39.5 17t-19.5 36q0 20 13.5 40t34.5 20zM73 628q29 0 47.5 -13t18.5 -47q0 -5 -3.5 -14t-9.5 -18t-15.5 -15.5t-21.5 -6.5
q-17 0 -22.5 2t-17.5 13t-17.5 27.5t-2.5 32t14 27t30 12.5z" />
    <glyph glyph-name="afii10050" unicode="&#x490;" horiz-adv-x="839" 
d="M794 -180h-749v1080h749v-1080zM749 720h-243l-89 -202h-1l-85 202h-241l84 -180h-63v-138h129l20 -42h-149v-139h194v-221h221v221h202v139h-152l20 42h132v138h-65zM701 690l-86 -180h83v-78h-121l-50 -102h171v-79h-202v-221h-160v221h-194v79h165l-48 102h-117v78h79
l-83 180h173l78 -183q15 -36 28 -94q12 56 29 94l80 183h175z" />
    <glyph glyph-name="endash" unicode="&#x2013;" horiz-adv-x="368" 
d="M312 184l-220 2l-36 -2l-15 1q-5 0 -14.5 -1.5t-15.5 -1.5q-11 0 -10 10l2 36l5 28q4 24 7 28.5t17 4.5q12 0 28.5 -1t38.5 -4q106 2 163.5 2.5t66.5 1.5q7 1 12.5 1h7.5q20 0 20 -14q0 -3 -3 -24v-18q0 -17 -2 -27.5t-2 -11.5q-3 -12 -16 -12q-1 0 -12.5 1t-21.5 1z" />
    <glyph glyph-name="emdash" unicode="&#x2014;" horiz-adv-x="504" 
d="M449 184l-357 2l-36 -2l-14 1q-4 0 -14.5 -1.5t-16.5 -1.5q-11 0 -10 10l2 36l5 28q4 24 7 28.5t19 4.5q10 0 26.5 -1t38.5 -4q173 2 265 2.5t102 1.5q8 1 12.5 1h7.5q20 0 20 -14q0 -4 -4 -24v-18q0 -17 -2 -27.5t-2 -11.5q-2 -12 -16 -12q-1 0 -12 1t-21 1z" />
    <glyph glyph-name="quoteleft" unicode="&#x2018;" horiz-adv-x="218" 
d="M116 688q12 0 12 -8q0 -10 -10 -27t-10 -35q0 -5 11 -9t23.5 -9.5t23.5 -14.5t11 -25q0 -5 -2.5 -17.5t-7 -25t-11 -22.5t-13.5 -10l-21 1l-10.5 -2t-15.5 -2q-11 0 -21 7.5t-17.5 17.5t-12 20.5t-4.5 16.5q0 17 5.5 42t15 47.5t23.5 38.5t31 16z" />
    <glyph glyph-name="quoteright" unicode="&#x2019;" horiz-adv-x="218" 
d="M75 685l21 -1q1 0 11 2t15 2q11 0 21 -7.5t17.5 -17.5t12 -20.5t4.5 -16.5q0 -18 -5.5 -42.5t-15.5 -47t-24 -38.5t-30 -16q-12 0 -12 8q0 10 10 27t10 35q0 6 -11 9t-23.5 8.5t-23.5 14.5t-11 26q0 21 11.5 46t22.5 29z" />
    <glyph glyph-name="quotesinglbase" unicode="&#x201a;" horiz-adv-x="382" 
d="M337 -180h-292v1080h292v-1080zM292 -14v214h-193v-200h-9v-126h103q48 0 75 33q24 30 24 79zM264 -14q0 -85 -71 -85h-75v72h85v33h-77v167h138v-187z" />
    <glyph glyph-name="quotedblleft" unicode="&#x201c;" horiz-adv-x="374" 
d="M273 688q13 0 13 -8q0 -10 -11 -26.5t-11 -35.5q0 -5 11 -8.5t24 -9.5t24 -15t11 -25q0 -4 -2.5 -16.5t-7 -25.5t-10.5 -23t-14 -10l-22 1l-10.5 -2t-15.5 -2q-10 0 -20 7.5t-17.5 17.5t-12 20.5t-4.5 16.5q0 17 5 42t15 47.5t24 38.5t31 16zM116 688q12 0 12 -8
q0 -10 -10 -27t-10 -35q0 -5 11 -9t23.5 -9.5t23.5 -14.5t11 -25q0 -5 -2.5 -17.5t-7 -25t-11 -22.5t-13.5 -10l-21 1l-10.5 -2t-15.5 -2q-11 0 -21 7.5t-17.5 17.5t-12 20.5t-4.5 16.5q0 17 5.5 42t15 47.5t23.5 38.5t31 16z" />
    <glyph glyph-name="quotedblright" unicode="&#x201d;" horiz-adv-x="374" 
d="M232 685l22 -1l11 2t15 2q10 0 20 -7.5t17.5 -17.5t12 -20.5t4.5 -16.5q0 -18 -5.5 -43t-15 -47t-23.5 -38t-31 -16q-13 0 -13 8q0 10 11 26.5t11 35.5q0 5 -11 8.5t-24 9t-24 15t-11 25.5q0 21 11.5 46t22.5 29zM75 685l21 -1q1 0 11 2t15 2q11 0 21 -7.5t17.5 -17.5
t12 -20.5t4.5 -16.5q0 -18 -5.5 -42.5t-15.5 -47t-24 -38.5t-30 -16q-12 0 -12 8q0 10 10 27t10 35q0 6 -11 9t-23.5 8.5t-23.5 14.5t-11 26q0 21 11.5 46t22.5 29z" />
    <glyph glyph-name="quotedblbase" unicode="&#x201e;" horiz-adv-x="374" 
d="M232 116l22 -2q-2 0 10 2t16 2q11 0 20.5 -7.5t17 -17.5t12 -20.5t4.5 -16.5q0 -18 -5.5 -43t-15 -47t-23.5 -38t-31 -16q-13 0 -13 8q0 10 11 26.5t11 35.5q0 5 -11 8.5t-24 9.5t-24 15t-11 25q0 22 11.5 47t22.5 29zM75 116l21 -2q-1 0 9 2t17 2q12 0 22 -7.5
t17.5 -17.5t11.5 -20.5t4 -16.5q0 -18 -5.5 -42.5t-15.5 -47t-24 -38.5t-30 -16q-12 0 -12 8q0 10 10 27t10 35q0 5 -11 8.5t-23.5 9t-23.5 15t-11 25.5q0 22 11.5 47t22.5 29z" />
    <glyph glyph-name="dagger" unicode="&#x2020;" horiz-adv-x="458" 
d="M287 539h17q28 0 45.5 0.5t24.5 0.5q8 1 12.5 1h6.5q21 0 21 -14q0 -2 -3 -23l-1 -18q-2 -24 -5.5 -35t-10 -14t-15.5 -2t-23 1h-52q-13 0 -19 -10t-8.5 -25t-2 -32.5t0.5 -32.5q0 -56 -0.5 -107t-1.5 -99q0 -8 -0.5 -12.5t-0.5 -7.5q0 -13 2 -32t2 -20v-20l3 -14l-1 -22
l2.5 -18l7.5 -54l4 -16q2 -4 -15 -18l-7 -7l-14 -4l-23 -9q-3 -1 -12 4.5t-13 7.5l-10 6q-11 7 -28.5 21.5t-17.5 25.5q0 5 5 12t5 9l-1 13l1.5 8t1.5 12v15q0 10 -0.5 20t-0.5 20v21t1 36l2 61l4 40v61l6 73v9t-1 25q0 4 -0.5 10t-0.5 12q0 5 1 12t0.5 13t-5 10.5
t-14.5 4.5l-56 -1l-14 1q-3 0 -13 -2t-17 -2q-11 0 -10 10l2 16v20l5 28q5 26 7 30t20 4q7 0 17.5 -0.5t21 -1.5t18 -2t9.5 -1q8 0 15 0.5t17 0.5l2 11q3 29 3 44q0 22 -9 37.5t-9 25.5q0 12 7 22t16.5 17t19 11t14.5 4q4 0 19 -4q14 -1 26 -1t20.5 -3.5t13.5 -12t5 -25.5
l2 -18q2 -11 -9.5 -36t-11.5 -71z" />
    <glyph glyph-name="bullet" unicode="&#x2022;" horiz-adv-x="682" 
d="M344 489q57 0 98 -41q42 -42 42 -101t-42 -101q-41 -41 -100 -41q-57 0 -100 41q-42 40 -42 100q0 62 42 102q43 41 102 41z" />
    <glyph glyph-name="ellipsis" unicode="&#x2026;" horiz-adv-x="649" 
d="M82 115q3 0 21 -3l27 5q5 1 12.5 -5.5t15 -15t13 -17.5t5.5 -13t-3.5 -18.5t-11.5 -30.5t-20.5 -28.5t-30.5 -12.5q-40 0 -54.5 20t-14.5 43q0 6 3 18.5t8 25t13 22.5t17 10zM298 115q3 0 21 -3l27 5q5 1 12.5 -5.5t15 -15t13 -17.5t5.5 -13t-3.5 -18.5t-11.5 -30.5
t-20.5 -28.5t-30.5 -12.5q-40 0 -54.5 20t-14.5 43q0 6 3 18.5t8 25t13 22.5t17 10zM514 115q2 0 22 -3l26 5q5 1 13 -5.5t15.5 -15.5t12.5 -17.5t5 -12.5q0 -6 -4 -21t-12.5 -30.5t-21 -27t-28.5 -11.5q-40 0 -54 20t-14 43q0 5 2.5 17.5t7.5 25.5t12.5 23t17.5 10z" />
    <glyph glyph-name="perthousand" unicode="&#x2030;" horiz-adv-x="793" 
d="M112 640q4 0 9.5 -1l5.5 -1l16 2q3 0 5 0.5t3 0.5q29 0 45 -23.5t24.5 -55.5t10.5 -66t2 -54q0 -47 -12.5 -90.5t-44.5 -73.5q-15 -14 -26 -22t-28 -8q-51 0 -72.5 48.5t-21.5 132.5q0 17 2 42t6 58l1 9q3 27 7.5 42t4.5 21q0 1 -3 5l2 9q2 8 3 9.5t15 3.5l14 4
q27 8 32 8zM137 604l-6 -4q-15 -10 -21.5 -39t-9.5 -67l-2 -14v-16l-3 -46q-1 -13 1.5 -34t6.5 -40.5t8.5 -33.5t9.5 -12l6 2q11 3 18 22t11 44.5t6 51.5t2 42q0 89 -11 119q-10 25 -16 25zM436 686q26 0 26 -34q0 -6 -19 -43l-39 -79q-9 -18 -20.5 -42t-24.5 -56
q-19 -46 -45 -93t-38 -81q-6 -17 -21 -50t-33 -69.5t-36 -71.5t-30 -55q-2 -6 -2 -14.5t-1.5 -16.5t-5.5 -13.5t-14 -5.5q-1 0 -8 3t-14 8t-13 11.5t-6 13.5q0 12 17.5 40.5t38.5 75.5q3 8 22 46.5t42 85t43 87.5t25 53q10 24 13 32t6 13.5t8.5 16t20.5 40.5q18 35 32 64.5
t24 51.5q6 12 9.5 26.5t8 26.5t12.5 20.5t22 8.5zM414 388q2 0 8 -0.5t6 -1.5l8 2h8q3 0 5 1t3 1q10 0 15 -3.5t21 -14.5q16 -12 25.5 -36.5t14 -52t5.5 -53.5t1 -40q0 -48 -12 -90.5t-44 -72.5q-16 -17 -26 -24t-28 -7q-51 0 -73.5 47t-22.5 135q0 34 9 100l1 8q4 28 8 43
t4 21l-2 4l1 10q1 8 3 9.5t15 3.5l14 3q27 8 33 8zM438 352l-6 -2q-14 -8 -21 -39t-9 -69l-3 -14v-16l-3 -46q-1 -14 1.5 -34.5t6.5 -39.5t9 -32.5t9 -13.5l6 2q10 3 17.5 22t11.5 44.5t6 51.5t2 43q0 89 -11 119q-10 24 -16 24zM646 388q2 0 8 -0.5t6 -1.5l8 2h8q3 0 5 1
t3 1q28 1 44.5 -23t24.5 -57t10.5 -67t2.5 -53q0 -48 -12 -90.5t-44 -72.5q-16 -17 -26 -24t-28 -7q-51 0 -73.5 47t-22.5 135q0 34 9 100l1 8q4 28 8 43t4 21l-2 4l1 10q1 8 3 9.5t15 3.5l14 3q27 8 33 8zM670 352l-6 -2q-14 -8 -21 -38t-9 -70l-3 -14v-16l-3 -46l2 -24
q3 -39 9 -67.5t15 -28.5l6 2q11 3 18.5 22.5t11.5 45t5.5 51.5t1.5 42q0 89 -11 119q-10 24 -16 24z" />
    <glyph glyph-name="guilsinglleft" unicode="&#x2039;" horiz-adv-x="428" 
d="M383 -180h-338v1080h338v-1080zM338 452h-177l-71 -124v-127l71 -124h176l-89 165v51zM290 105h-113l-59 104v111l59 104h113l-70 -123v-66z" />
    <glyph glyph-name="guilsinglright" unicode="&#x203a;" horiz-adv-x="428" 
d="M383 -180h-338v1080h338v-1080zM338 201v127l-71 124h-177l91 -159v-51l-90 -165h176zM310 209l-59 -104h-113l71 130v66l-71 123h113l59 -104v-111z" />
    <glyph glyph-name="afii61352" unicode="&#x2116;" horiz-adv-x="786" 
d="M237 532q0 -15 1.5 -30.5t2.5 -35.5q4 -47 7 -77.5t3.5 -57t-1.5 -55t-7 -70.5q-11 -92 -38 -142t-68 -53q-18 -2 -36 6t-33 20t-24 24.5t-9 18.5q2 8 12.5 11t11.5 13q-1 1 -3 6.5t-1 10.5l1 7q-1 0 -1 6v8q0 6 7 8q2 -1 14 -13t23 -10q34 3 50 135q1 8 2 35.5t1.5 65
t-0.5 79t-3.5 76t-7.5 57t-13 21.5q-8 0 -7 8q-1 -1 2 7.5t7 19t7 19t2 7.5q3 2 14 8.5t23.5 13.5t24 12t15.5 5q16 2 25 -9t19 -47q1 -6 8 -25t18 -50q9 -23 23.5 -70t34.5 -117q12 -71 21.5 -115t13.5 -63q5 68 9 118.5t6 94.5t0 86t-9 92q-4 21 -4.5 34t0.5 20
q0 9 9.5 25t20.5 17q6 1 10 -1t22 10q1 2 4 3l6 2q31 2 44 -12t18 -35t4.5 -44.5t3.5 -40.5q5 -7 3 -15q0 -2 -2.5 -7t-6.5 -11t-8 -11t-6 -5q-7 0 -9 -3.5t-3 -8.5q0 -6 -0.5 -12t-1.5 -13q1 -39 1.5 -56.5t-1 -35t-4 -44.5t-6.5 -85l-6 -99l-7 -94q-1 -2 -9.5 -14.5
t-19 -27t-19 -25.5t-10.5 -10l-12 3l-13 -4h-13q-13 0 -16 6.5t-6 35.5q-9 73 -20.5 150t-29.5 151q-12 51 -18.5 80.5t-11.5 49t-12 34t-19 34.5zM635 491q4 0 9.5 -1l5.5 -1l16 2q3 0 5 0.5t3 0.5q28 0 44.5 -23.5t25 -56t10.5 -66t2 -53.5q0 -47 -12.5 -90.5t-44.5 -73.5
q-15 -14 -26 -22t-28 -8q-51 0 -72.5 48.5t-21.5 132.5q0 17 2 42t6 58l1 9q3 27 7.5 42t4.5 21l-3 5l2 9q2 8 3 9.5t15 3.5l14 4q27 8 32 8zM660 455l-6 -4q-15 -10 -21.5 -39.5t-9.5 -66.5l-2 -14v-16l-3 -46q-1 -13 1.5 -34t6.5 -40.5t9 -33t9 -12.5l6 2q10 3 17.5 22
t11.5 44.5t6 51.5t2 42q0 89 -11 119q-10 25 -16 25zM704 -4h-11q-13 0 -18.5 -0.5l-5.5 -0.5l-40 3l-33 -2l-15 1q-3 0 -12.5 -1t-14.5 -1q-10 0 -9 7l2 28l4 22q4 18 6.5 21.5t15.5 3.5q11 0 33 -8t42 -6l73 13h20q17 0 17 -10v-5.5t-2 -12.5l-1 -14q-3 -28 -3 -30
q-3 -9 -15 -9q-2 0 -13.5 0.5t-19.5 0.5z" />
    <glyph glyph-name="trademark" unicode="&#x2122;" horiz-adv-x="690" 
d="M58 603q-5 0 -14 -1.5t-16 -1.5q-10 0 -8 8v9q0 2 -1.5 4.5t-1.5 4.5q0 9 -4.5 17.5t-4.5 15.5q0 4 6.5 11.5t11.5 7.5l25 -2q9 -1 25.5 2t43.5 3h11t13 1h38q30 0 36 -12t6 -32q0 -2 -1 -7t-3 -7v-10q0 -2 -3 -7t-5 -4l-10 3h-9q-23 0 -25 -3t-2 -10l-2 -19.5
t-4.5 -44.5t-5 -49.5t-2.5 -36.5q0 -25 2 -50t4.5 -45t4.5 -34t2 -18q0 -5 -12 -11l-5 -5l-8 -2q-7 -2 -9 -4.5t-5 -2.5q-5 0 -9 4t-11 4l-8 6l-10 5l-6 8q-5 7 -8.5 8.5t-3.5 5.5t3 9.5t3 13.5q0 24 2 58t3.5 66.5t2 58.5t-1.5 35q0 14 3.5 23.5t3.5 15.5t-6 8.5t-25 2.5z
M560 512q-8 -11 -8 -14l1 -6q3 -12 -1.5 -24t-13 -29t-20.5 -41.5t-24 -61.5q-9 -28 -13.5 -37t-14.5 -9q-3 0 -11.5 4t-17.5 10t-16 13.5t-7 13.5q0 5 5 27v22l5 26q4 18 4 34.5t1 28.5q3 29 2 33t-4.5 -6.5t-9.5 -30.5t-13 -39q-3 -9 -8 -25.5t-10.5 -34.5t-9 -35
t-3.5 -26q0 -27 -4.5 -32t-34.5 -11q-1 0 -7 5t-13 11.5t-12.5 14t-5.5 13.5q0 8 -6 13.5t-6 20.5q0 21 2.5 58t5 73.5t5 64.5t2.5 32q0 8 -5.5 10t-5.5 14q0 2 1.5 9t2.5 12v25q0 16 8 31t32 17l22 2q16 2 27 -9.5t11 -18.5q0 -2 -4 -21.5t-9 -51t-10.5 -71.5t-8.5 -82v-6
q0 7 9.5 27t18.5 49l20 64q2 5 5 19t10.5 29t19.5 26.5t31 11.5q3 0 9 -2q1 0 7 -1.5t12.5 -4.5t11.5 -7.5t4 -10.5v-8l2 -8q-1 3 -4.5 -17.5t-8 -49t-8.5 -56.5t-6 -40q5 11 16 43t23 66t21 60.5t9 25.5l-1 14q0 4 3.5 10.5t14.5 11.5l16 10h7l14 2q2 0 9.5 -3t15 -9
t13.5 -13.5t6 -16.5q0 3 -4 -11.5t-9.5 -34.5t-10 -40t-6.5 -28q0 2 -1.5 -14t-3.5 -36.5t-3.5 -36.5t-1.5 -14q0 -70 16 -70q2 0 9.5 4t12.5 4q6 0 6 -6l-2 -13q0 -3 8 -3.5t8 -8.5q0 -7 -7.5 -16t-18 -17t-21.5 -13.5t-19 -5.5q-65 0 -65 114q0 34 13 108z" />
    <glyph glyph-name="NULL" horiz-adv-x="0" 
 />
  </font>
</defs>
</svg>
