<svg xmlns="http://www.w3.org/2000/svg" xmlns:xlink="http://www.w3.org/1999/xlink" width="116" height="135" viewBox="0 0 116 135">
    <defs>
        <path id="a" d="M.028.214h45.881V36.55H.028V.214z"/>
    </defs>
    <g fill="none" fill-rule="evenodd">
        <path fill="#B1CDE3" d="M99.647 27.423l-.01.064-.158-.128z"/>
        <path fill="#FED4C4" d="M72.426 43.862l13.718-3.456 16.722-18.042 9.498 1.435.234-3.992s-1.65-.876-1.69.84l-2.452-1.848-3.158-.184-1.474-1.884s1.2-.825.97-2.188c0 0-.088-1.826-2.322.031l-1.278 1.58 1.17 2.138-18.626 15.822-13.618 3.373-1.892.362 4.198 6.013zM76.357 86.717l16.374 6.662 14.652 23.1-4.31.886-13.79-15.545-33.178-3.11zM53.089 96.936l-13.358 19.1L9.729 122.2l.808-3.499 18.854-8.886 6.032-19.543z"/>
        <path fill="#E13532" d="M72.478 81.83l3.336 3.221 4.852 1.22-10.34 17.769-16.376-3.552-5.17 7.552-21.114-8.441 5.602-8.44 5.6-10.66 28.872 4.888z"/>
        <path fill="#171C22" d="M107.382 116.478l5.17-1.332 3.232-1.998.216 2.885-8.618 4.886 1.724 2.666-2.154 1.779-3.878-5.777zM9.57 118.256l-1.295 4.443-2.154 1.773-1.508 5.556-3.662 4.22-.216-4.22 1.938-6.443-2.478.114.646-3.666z"/>
        <path fill="#808081" d="M70.323 81.72l-2.586-31.314-21.328-8.552-6.894 1.111 6.57 19.766-5.816 15.66 26.822 5.66z"/>
        <path fill="#808081" d="M45.44 45.074L44.9 40.52l7.002-.445 6.462 4.666-3.232 14.323z"/>
        <path fill="#808081" d="M51.58 40.076l10.996-2.418 11.28-1.868.604 10.173-8.014 4.44-9.696-.663z"/>
        <path fill="#FED4C4" d="M55.674 48.961l-.538 10.103 15.944 4.111 15.836-.334-.646-3.664-15.838-3.331z"/>
        <path fill="#F9B195" d="M57.074 37.413l-4.848-4.998-3.878-.666.97 8.327 3.878.334z"/>
        <path fill="#FED4C4" d="M69.57 21.075c.938 10.414-7.758 19.756-19.42 20.872-11.662 1.115-21.876-6.42-22.812-16.835C26.402 14.7 35.096 5.357 46.756 4.243c11.664-1.115 21.878 6.42 22.814 16.832"/>
        <path fill="#FEFEFE" d="M51.47 34.334s5.662.018 9.792-2.006c0 0-.84 4.86-4.46 5.195 0 0-4.488-.944-5.332-3.19"/>
        <g transform="matrix(-1 0 0 1 72.955 .235)">
            <mask id="b" fill="#fff">
                <use xlink:href="#a"/>
            </mask>
            <path fill="#5C1416" d="M40.575 36.55c.854-.924 1.354-2.889 1.532-4.093.618-4.171-5.626-5.746-7.778-2.58 0 0-2.14-1.579-1.398-14.054 0 0-11.892-8.83-28.996-.466 0 0-16.232-15.373 17.47-15.142 3.75.03 7.98 1.031 11.436 2.334 13.132 4.936 17.56 23.343 7.734 34" mask="url(#b)"/>
        </g>
        <path fill="#191A1A" d="M46.706 24.406c.464.693.282 1.657-.414 2.154-.696.497-1.638.345-2.104-.348-.466-.689-.282-1.656.414-2.155.694-.497 1.638-.34 2.104.349M64.576 20.772c.466.694.28 1.655-.414 2.156-.694.493-1.636.34-2.104-.35-.466-.691-.282-1.658.416-2.155.694-.499 1.636-.342 2.102.349"/>
        <path fill="#FED4C4" d="M85.095 61.974s-.506 1.027.884 1.417c0 0 3.41.967 4.8 1.49 0 0 2.778 1.318 4.768 2.36 0 0 .972.168.922-.537l-3.77-2.11s.922-.4 2.496.017c0 0 2.386.64 2.962 1.075 0 0 .998.115.502-.483 0 0-1.412-1.148-2.356-1.507 0 0 2.624.83 3.122 1.023 0 0 .97.169.424-.594 0 0-2.28-1.258-5.008-2.008 0 0 1.554-.613 4.57.492 0 0 .92-.132.188-.651 0 0-2.096-1.097-4.696-1.303 0 0-1.628-.173-2.52-.503 0 0 1.848-1.478 2.378-2.15 0 0 .37-.487-.18-.708 0 0-1.158.347-1.684.479 0 0-2.796 1.663-4.37 1.515 0 0-1.444-.276-1.892-.04 0 0-.774 1.974-1.54 2.726"/>
    </g>
</svg>
